<svg xmlns="http://www.w3.org/2000/svg" xmlns:xlink="http://www.w3.org/1999/xlink" viewBox="0 0 1089.3 814.93"><defs><style>.cls-1,.cls-4,.cls-5{fill:none;}.cls-2{isolation:isolate;}.cls-24,.cls-3,.cls-8{fill:#fff;}.cls-3{opacity:0.15;mix-blend-mode:screen;}.cls-4,.cls-5{stroke:#fff;stroke-miterlimit:10;}.cls-5{stroke-width:2px;stroke-dasharray:12;}.cls-6{fill:#ffe578;}.cls-7{fill:#f6d7aa;}.cls-9{fill:#eebb9a;}.cls-10{fill:#ffd8a4;}.cls-11,.cls-12,.cls-14{fill:#ffa582;}.cls-12{opacity:0.2;}.cls-13{fill:#033344;}.cls-14{opacity:0.4;}.cls-15{fill:#54321a;}.cls-16{fill:#2d2d2d;}.cls-17{fill:#13496d;}.cls-18{fill:#d3d3d3;}.cls-19{clip-path:url(#clip-path);}.cls-20{fill:#dfdfdf;}.cls-21{fill:#fb7038;}.cls-22,.cls-37{fill:#1c1c1c;}.cls-22{opacity:0.16;}.cls-23{fill:#0b354c;}.cls-24,.cls-46{opacity:0.3;}.cls-25{fill:#606060;}.cls-26{fill:#141414;}.cls-27{clip-path:url(#clip-path-2);}.cls-28{fill:#c7e8ff;}.cls-29{fill:#4378a2;}.cls-30{fill:#a6dfff;}.cls-31{fill:#b4b4b4;}.cls-32{fill:#212121;}.cls-33{clip-path:url(#clip-path-3);}.cls-34{fill:#92d3ff;}.cls-35{fill:#ff734d;}.cls-36{clip-path:url(#clip-path-4);}.cls-38{fill:#e9e9e9;}.cls-39{clip-path:url(#clip-path-5);}.cls-40{fill:#ed6b4c;}.cls-41{clip-path:url(#clip-path-6);}.cls-42{fill:#161616;}.cls-43{fill:#ff4824;}.cls-44{clip-path:url(#clip-path-7);}.cls-45{fill:#757575;}.cls-46{fill:#3a3a3a;}</style><clipPath id="clip-path" transform="translate(-9.92 -9.43)"><circle class="cls-1" cx="833.41" cy="270.47" r="95.46"/></clipPath><clipPath id="clip-path-2" transform="translate(-9.92 -9.43)"><circle class="cls-1" cx="187.31" cy="296.99" r="114.77"/></clipPath><clipPath id="clip-path-3" transform="translate(-9.92 -9.43)"><circle class="cls-1" cx="609.41" cy="124.7" r="114.77"/></clipPath><clipPath id="clip-path-4" transform="translate(-9.92 -9.43)"><circle class="cls-1" cx="106.53" cy="567.81" r="96.1"/></clipPath><clipPath id="clip-path-5" transform="translate(-9.92 -9.43)"><circle class="cls-1" cx="379.24" cy="185.36" r="59.62"/></clipPath><clipPath id="clip-path-6" transform="translate(-9.92 -9.43)"><circle class="cls-1" cx="1003.26" cy="570.22" r="95.46"/></clipPath><clipPath id="clip-path-7" transform="translate(-9.92 -9.43)"><circle class="cls-1" cx="1020.05" cy="353.93" r="59.62"/></clipPath></defs><title>installiance</title><g class="cls-2"><g id="img"><g id="New_Symbol_135" data-name="New Symbol 135"><path class="cls-3" d="M513.68,778.41L330.76,806.1a78.86,78.86,0,0,1-82.31-42.65L165.59,598a78.86,78.86,0,0,1,15.13-91.46L312.43,376.65a78.86,78.86,0,0,1,91.66-13.87L568.36,447.9a78.86,78.86,0,0,1,41.52,82.89L579.68,713.31A78.86,78.86,0,0,1,513.68,778.41Z" transform="translate(-9.92 -9.43)"/><path class="cls-3" d="M626.93,532L444,559.65A78.86,78.86,0,0,1,361.69,517L278.84,351.59A78.86,78.86,0,0,1,294,260.12L425.68,130.21a78.86,78.86,0,0,1,91.66-13.87L681.6,201.45a78.86,78.86,0,0,1,41.52,82.89L692.93,466.86A78.86,78.86,0,0,1,626.93,532Z" transform="translate(-9.92 -9.43)"/><path class="cls-3" d="M684.79,805.31L504.76,680a93.49,93.49,0,0,1-36.09-103.81l63.5-209.93a93.49,93.49,0,0,1,87.57-66.4L839,295.43a93.49,93.49,0,0,1,90.21,62.77l72,207.16a93.49,93.49,0,0,1-31.82,105.19L794.67,803.06A93.49,93.49,0,0,1,684.79,805.31Z" transform="translate(-9.92 -9.43)"/><circle class="cls-3" cx="177.38" cy="287.57" r="114.77"/><circle class="cls-3" cx="96.61" cy="558.39" r="96.11"/><circle class="cls-3" cx="599.49" cy="115.27" r="114.77"/><circle class="cls-4" cx="599.49" cy="115.27" r="114.77"/><circle class="cls-3" cx="823.49" cy="261.04" r="95.46"/><circle class="cls-3" cx="993.33" cy="560.8" r="95.46"/><circle class="cls-3" cx="369.31" cy="175.93" r="59.62"/><circle class="cls-3" cx="1010.13" cy="344.51" r="59.62"/><circle class="cls-4" cx="177.38" cy="287.57" r="114.77"/><circle class="cls-4" cx="96.61" cy="558.39" r="96.11"/><circle class="cls-4" cx="823.49" cy="261.04" r="95.46"/><circle class="cls-4" cx="993.33" cy="560.8" r="95.46"/><circle class="cls-4" cx="369.31" cy="175.93" r="59.62"/><circle class="cls-4" cx="1010.13" cy="344.51" r="59.62"/><line class="cls-5" x1="532.98" y1="555.95" x2="599.49" y2="230.05"/><path class="cls-1" d="M609.41,239.47" transform="translate(-9.92 -9.43)"/><path class="cls-1" d="M542.9,565.38" transform="translate(-9.92 -9.43)"/><line class="cls-5" x1="532.98" y1="555.95" x2="960.92" y2="378.17"/><line class="cls-5" x1="532.98" y1="555.95" x2="752.26" y2="324.59"/><line class="cls-5" x1="532.98" y1="555.95" x2="898.42" y2="571.03"/><line class="cls-5" x1="532.98" y1="555.95" x2="394.25" y2="235.55"/><line class="cls-5" x1="532.98" y1="555.95" x2="260.56" y2="366.65"/><line class="cls-5" x1="532.98" y1="555.95" x2="187.95" y2="588.31"/><path class="cls-6" d="M596.71,470.21H495a7.88,7.88,0,0,1-7.88-7.88V380.44H604.59v81.88A7.88,7.88,0,0,1,596.71,470.21Z" transform="translate(-9.92 -9.43)"/><rect class="cls-7" x="519.91" y="436.46" width="32.01" height="27.08"/><path class="cls-8" d="M594.79,481.18a15.39,15.39,0,0,0-15.39-15.39H568.77L545.84,473l-22.93-7.17H512.27a15.39,15.39,0,0,0-15.39,15.39V565h97.91V481.18Z" transform="translate(-9.92 -9.43)"/><circle class="cls-6" cx="535.92" cy="371.02" r="58.76"/><path class="cls-9" d="M529.83,459.5a54.43,54.43,0,0,0,32,0V445.88h-32V459.5Z" transform="translate(-9.92 -9.43)"/><path class="cls-10" d="M577.49,346.81H514.18A14,14,0,0,0,500,360.6v51.48c0,21.3,15.1,44.58,45.84,44.58s45.84-23.27,45.84-44.58V360.6A14,14,0,0,0,577.49,346.81Z" transform="translate(-9.92 -9.43)"/><path class="cls-11" d="M545.84,418.93h0a3.61,3.61,0,0,0,3.6-3.6V408a3.61,3.61,0,0,0-3.6-3.6h0a3.61,3.61,0,0,0-3.6,3.6v7.37A3.61,3.61,0,0,0,545.84,418.93Z" transform="translate(-9.92 -9.43)"/><polygon class="cls-9" points="581.77 363.37 490.06 358.93 490.06 371.02 581.77 374.82 581.77 363.37"/><path class="cls-8" d="M540.39,444.76h10.9a13.48,13.48,0,0,0,13.48-13.48H526.9A13.48,13.48,0,0,0,540.39,444.76Z" transform="translate(-9.92 -9.43)"/><circle class="cls-7" cx="584.36" cy="404.31" r="8.32"/><path class="cls-9" d="M591.69,411.21a4.77,4.77,0,1,1,0,7.84v-7.84Z" transform="translate(-9.92 -9.43)"/><circle class="cls-7" cx="487.47" cy="404.31" r="8.32"/><path class="cls-9" d="M500,411.21a4.77,4.77,0,1,0,0,7.84v-7.84Z" transform="translate(-9.92 -9.43)"/><rect class="cls-12" x="505.08" y="381.29" width="61.67" height="11.02"/><ellipse class="cls-13" cx="557.16" cy="394.94" rx="4.82" ry="5.63"/><ellipse class="cls-13" cx="514.67" cy="394.94" rx="4.82" ry="5.63"/><circle class="cls-14" cx="561.97" cy="411.06" r="6.75"/><circle class="cls-14" cx="509.86" cy="411.06" r="6.75"/><path class="cls-13" d="M522.37,402.32h-6.2a1.17,1.17,0,0,1-1.17-1.17h0a1.17,1.17,0,0,1,1.17-1.17h6.2a1.17,1.17,0,0,1,1.17,1.17h0A1.17,1.17,0,0,1,522.37,402.32Z" transform="translate(-9.92 -9.43)"/><path class="cls-13" d="M575.5,402.32h-6.2a1.17,1.17,0,0,1-1.17-1.17h0A1.17,1.17,0,0,1,569.3,400h6.2a1.17,1.17,0,0,1,1.17,1.17h0A1.17,1.17,0,0,1,575.5,402.32Z" transform="translate(-9.92 -9.43)"/><path class="cls-15" d="M575,392.25l-16-.36a1.39,1.39,0,0,1-1.55-1l0-2a1.39,1.39,0,0,1,1.59-.88l16,0.36a1.39,1.39,0,0,1,1.55,1l0,2A1.39,1.39,0,0,1,575,392.25Z" transform="translate(-9.92 -9.43)"/><path class="cls-15" d="M516.65,392.25l16-.36a1.39,1.39,0,0,0,1.55-1l0-2a1.39,1.39,0,0,0-1.59-.88l-16,.36a1.39,1.39,0,0,0-1.55,1l0,2A1.39,1.39,0,0,0,516.65,392.25Z" transform="translate(-9.92 -9.43)"/><path class="cls-6" d="M497.81,352.87v27.57h17.43l1.86-11.18L519,380.44h74.92V352.87c0-3.74-3.78-8.28-7.53-8.28h-81C501.59,344.59,497.81,349.13,497.81,352.87Z" transform="translate(-9.92 -9.43)"/><rect class="cls-16" x="443.21" y="809.23" width="185.41" height="5.7" rx="2.56" ry="2.56"/><polygon class="cls-10" points="531.27 800.95 510.45 800.95 505.2 607.57 531.27 607.57 531.27 800.95"/><path class="cls-17" d="M541.31,802.75l-21,2.75s-10.62,7.2-10.62,16l13-5.43h18.66V802.75Z" transform="translate(-9.92 -9.43)"/><rect class="cls-17" x="527.94" y="801.7" width="3.33" height="10.38"/><path class="cls-17" d="M516.85,817.17l-7.19,4.34H527l10.88-5.43S531.93,809.85,516.85,817.17Z" transform="translate(-9.92 -9.43)"/><polygon class="cls-10" points="540.56 800.95 561.38 800.95 566.63 607.57 540.56 607.57 540.56 800.95"/><path class="cls-10" d="M638.87,631.87a9.76,9.76,0,0,1-9.7-8.84c0-.35-3.64-36.35-21.11-79.07A357,357,0,0,0,574.7,481.9a9.76,9.76,0,0,1,16-11.21,371.69,371.69,0,0,1,35.45,65.88c18.63,45.55,22.33,83.05,22.48,84.63a9.76,9.76,0,0,1-8.8,10.63C639.49,631.86,639.18,631.87,638.87,631.87Z" transform="translate(-9.92 -9.43)"/><path class="cls-8" d="M626.83,609.82q10-1.65,20.07-3.06a348.41,348.41,0,0,0-20.43-70.32,372.08,372.08,0,0,0-35.49-66,10.13,10.13,0,0,0-16.58,11.64,356,356,0,0,1,33.32,62A330.69,330.69,0,0,1,626.83,609.82Z" transform="translate(-9.92 -9.43)"/><circle class="cls-10" cx="613.59" cy="611.12" r="6.39"/><circle class="cls-10" cx="628.21" cy="615.13" r="16.13"/><path class="cls-10" d="M452.8,631.87a9.76,9.76,0,0,0,9.7-8.84c0-.35,3.64-36.35,21.11-79.07A357,357,0,0,1,517,481.9a9.76,9.76,0,0,0-16-11.21,371.69,371.69,0,0,0-35.45,65.88c-18.63,45.55-22.33,83.05-22.48,84.63a9.76,9.76,0,0,0,8.8,10.63C452.19,631.86,452.5,631.87,452.8,631.87Z" transform="translate(-9.92 -9.43)"/><path class="cls-8" d="M464.85,609.82q-10-1.65-20.07-3.06a348.41,348.41,0,0,1,20.43-70.32,372.08,372.08,0,0,1,35.49-66,10.13,10.13,0,0,1,16.58,11.64,356,356,0,0,0-33.32,62A330.68,330.68,0,0,0,464.85,609.82Z" transform="translate(-9.92 -9.43)"/><circle class="cls-10" cx="458.25" cy="611.12" r="6.39"/><circle class="cls-10" cx="443.62" cy="615.13" r="16.13"/><path class="cls-17" d="M550.33,802.75l21.05,2.75s10.63,7.2,10.63,16l-13-5.43H550.33V802.75Z" transform="translate(-9.92 -9.43)"/><rect class="cls-17" x="540.56" y="801.7" width="3.33" height="10.38"/><path class="cls-17" d="M574.82,817.17l7.19,4.34H564.69l-10.88-5.43S559.75,809.85,574.82,817.17Z" transform="translate(-9.92 -9.43)"/><path class="cls-17" d="M487.64,679.23H604a7.89,7.89,0,0,0,7.79-9.15L594.79,565H496.88l-17,105.08A7.89,7.89,0,0,0,487.64,679.23Z" transform="translate(-9.92 -9.43)"/><rect class="cls-17" x="530.12" y="463.54" width="11.6" height="81.64"/><path class="cls-18" d="M522.9,465.79l6.77-8.64,15.18,15.62L541,495.67a1.34,1.34,0,0,1-2.49.4Z" transform="translate(-9.92 -9.43)"/><path class="cls-18" d="M568.77,465.79L562,457.15l-15.18,15.62,3.83,22.89a1.34,1.34,0,0,0,2.49.4Z" transform="translate(-9.92 -9.43)"/><path class="cls-8" d="M522.9,465.79l6.77-8.64,15.18,15.62L541,494.16a1.34,1.34,0,0,1-2.49.4Z" transform="translate(-9.92 -9.43)"/><path class="cls-8" d="M568.77,465.79L562,457.15l-15.18,15.62,3.83,21.39a1.34,1.34,0,0,0,2.49.4Z" transform="translate(-9.92 -9.43)"/><g class="cls-19"><path class="cls-20" d="M821.62,311.32l-0.09,0h-0.71l0.8,0.78v-0.75Z" transform="translate(-9.92 -9.43)"/><path class="cls-20" d="M845.23,312.07l0.8-.78h-0.71l-0.09,0v0.75Z" transform="translate(-9.92 -9.43)"/><path class="cls-7" d="M834.2,322.81l6.93-6.75a41.63,41.63,0,0,1-15.4,0l6.94,6.76,0.76,0.14Z" transform="translate(-9.92 -9.43)"/><path class="cls-9" d="M841.13,316.07l4.11-4v-0.75a40.06,40.06,0,0,1-23.61,0v0.75l4.11,4A41.63,41.63,0,0,0,841.13,316.07Z" transform="translate(-9.92 -9.43)"/><path class="cls-8" d="M839.85,333.3a0.65,0.65,0,0,1-1.11-.23l-0.89-1.83-3.56,3.56,2.66,17.55,6.73-23.19Z" transform="translate(-9.92 -9.43)"/><polygon class="cls-8" points="823.51 313.54 822.75 313.4 823.03 313.68 822.72 314.33 823.51 313.54"/><polygon class="cls-8" points="824.29 314.33 823.98 313.68 824.28 313.39 823.51 313.54 824.29 314.33"/><path class="cls-8" d="M829,331.23l-0.89,1.83a0.65,0.65,0,0,1-1.11.23l-3.82-4.14,6.73,23.19,2.66-17.55Z" transform="translate(-9.92 -9.43)"/><polygon class="cls-21" points="827.93 321.8 824.29 314.33 823.51 313.54 822.72 314.33 819.09 321.8 822.65 325.37 823.51 319.7 824.37 325.37 827.93 321.8"/><path class="cls-8" d="M827,333.3a0.65,0.65,0,0,0,1.11-.23l0.89-1.83-0.76-.76-0.37.57a0.63,0.63,0,0,1-1,.17l-4.23-3.93,0.54,1.87Z" transform="translate(-9.92 -9.43)"/><path class="cls-22" d="M827,333.3a0.65,0.65,0,0,0,1.11-.23l0.89-1.83-0.76-.76-0.37.57a0.63,0.63,0,0,1-1,.17l-4.23-3.93,0.54,1.87Z" transform="translate(-9.92 -9.43)"/><polygon class="cls-8" points="823.03 313.68 822.45 314.6 822.72 314.33 823.03 313.68"/><polygon class="cls-22" points="823.03 313.68 822.45 314.6 822.72 314.33 823.03 313.68"/><polygon class="cls-21" points="822.72 314.33 822.45 314.6 818.33 321.04 819.09 321.8 822.72 314.33"/><polygon class="cls-22" points="822.72 314.33 822.45 314.6 818.33 321.04 819.09 321.8 822.72 314.33"/><path class="cls-8" d="M822.64,327.28l4.23,3.93a0.63,0.63,0,0,0,1-.17l0.37-.57,4.12-6.44,0.59-.92-0.29-.28-6.94-6.76-4.11-4-0.8-.78-2.06,2.65h0Z" transform="translate(-9.92 -9.43)"/><polygon class="cls-8" points="824.57 314.6 823.98 313.68 824.29 314.33 824.57 314.6"/><polygon class="cls-22" points="824.57 314.6 823.98 313.68 824.29 314.33 824.57 314.6"/><path class="cls-8" d="M839,331l-0.37-.57-0.76.76,0.89,1.83a0.65,0.65,0,0,0,1.11.23l3.83-4.14,0.54-1.87L840,331.21A0.63,0.63,0,0,1,839,331Z" transform="translate(-9.92 -9.43)"/><path class="cls-22" d="M839,331l-0.37-.57-0.76.76,0.89,1.83a0.65,0.65,0,0,0,1.11.23l3.83-4.14,0.54-1.87L840,331.21A0.63,0.63,0,0,1,839,331Z" transform="translate(-9.92 -9.43)"/><polygon class="cls-21" points="827.93 321.8 828.69 321.04 824.57 314.6 824.29 314.33 827.93 321.8"/><polygon class="cls-22" points="827.93 321.8 828.69 321.04 824.57 314.6 824.29 314.33 827.93 321.8"/><path class="cls-8" d="M841.13,316.07l-6.93,6.75-0.3.29,0.59,0.92,4.12,6.44L839,331a0.63,0.63,0,0,0,1,.17l4.23-3.93,3.88-13.35h0L846,311.29l-0.8.78Z" transform="translate(-9.92 -9.43)"/><polygon class="cls-21" points="827.02 342.92 824.37 325.37 823.51 319.7 822.65 325.37 819.99 342.91 822.96 353.13 822.96 356.5 824.06 356.5 824.06 353.13 827.02 342.92"/><path class="cls-10" d="M833.43,289.84a4.83,4.83,0,0,1-3.21,4.55h6.43A4.83,4.83,0,0,1,833.43,289.84Z" transform="translate(-9.92 -9.43)"/><path class="cls-10" d="M836.45,274.66a4.34,4.34,0,0,1,1.25,1s0,0,0,0v-1a0.83,0.83,0,0,1,.83-0.83h7.09a4.57,4.57,0,0,1,.37-1.22H835.33A3,3,0,0,1,836.45,274.66Z" transform="translate(-9.92 -9.43)"/><path class="cls-10" d="M828,278.5v-1.63a2.18,2.18,0,0,0,0-.39h-0.27l-9.45,4.22h1.2c0.51,0,.91.74,0.91,1.66v1.59a2.72,2.72,0,0,1-.13.83h5.58a2.2,2.2,0,0,0,2.2-2.2v-3.95h0S828,278.57,828,278.5Z" transform="translate(-9.92 -9.43)"/><path class="cls-10" d="M857.63,280.7c0.5,0,.91.74,0.91,1.66v1.59a2.88,2.88,0,0,1,0,.5,2.19,2.19,0,0,0,1.07-1.87v-5.7a2.18,2.18,0,0,0,0-.39h-0.27l-9.45,4.22h7.83Z" transform="translate(-9.92 -9.43)"/><path class="cls-10" d="M830.41,274.66a3,3,0,0,1,1.11-2.07H820.88a4.56,4.56,0,0,1,.37,1.22h7.09a0.83,0.83,0,0,1,.83.83v1s0,0,0,0A4.34,4.34,0,0,1,830.41,274.66Z" transform="translate(-9.92 -9.43)"/><path class="cls-10" d="M846.46,282.36c0-.06,0-0.11,0-0.17l-5.73,2.56,0.26,0h5.58a2.72,2.72,0,0,1-.13-0.83v-1.59Z" transform="translate(-9.92 -9.43)"/><path class="cls-10" d="M833.43,313.1a38.1,38.1,0,0,0,11.81-1.78l0.09,0c12.07-4,19.11-13.86,21.22-24.3a6.13,6.13,0,0,1,.69-11.37v-7.16H864.7c0.13-3.6.17-17.6-6.71-22.94-5.77-3.82-21,6.85-33.55,10.25a31.16,31.16,0,0,1-20.79-1.45,49.34,49.34,0,0,0-1.49,14.14h-2.53v7.16a6.13,6.13,0,0,1,.69,11.37c2.11,10.44,9.15,20.35,21.22,24.3l0.09,0A38.1,38.1,0,0,0,833.43,313.1Zm-24.65-27.72a2.9,2.9,0,0,1-2.19-2.8v-5.7a2.89,2.89,0,0,1,0-.48,0.82,0.82,0,0,1-.47-0.74v-1a0.83,0.83,0,0,1,.83-0.83h7.28a4.56,4.56,0,0,1,.37-1.22h-4v-8.13h0l-0.06-2.56a1.16,1.16,0,0,1,1.13-1.19l11.83-.27a1.16,1.16,0,0,1,1.19,1.13l0.06,2.56a1.15,1.15,0,0,1,0,.32H842a1.15,1.15,0,0,1,0-.32l0.06-2.56a1.16,1.16,0,0,1,1.19-1.13l11.83,0.27a1.16,1.16,0,0,1,1.13,1.19l-0.06,2.56h0v8.13h-4a4.56,4.56,0,0,1,.37,1.22h7.28a0.83,0.83,0,0,1,.83.83v1a0.82,0.82,0,0,1-.47.74,2.88,2.88,0,0,1,0,.48v5.7a2.9,2.9,0,0,1-2.19,2.8,0.64,0.64,0,0,1-.45.22H847.38a0.58,0.58,0,0,1-.35-0.12h-6a2.9,2.9,0,0,1-2.9-2.9v-3.94h0a4.13,4.13,0,0,0-1.63-3.11V284a3,3,0,0,1-6.09,0v-8.46a4.1,4.1,0,0,0-1.63,3.11h0v3.94a2.9,2.9,0,0,1-2.9,2.9h-6a0.58,0.58,0,0,1-.35.12H809.22A0.64,0.64,0,0,1,808.77,285.38Zm9.29,8.23a4.83,4.83,0,0,1,4.83-4.83H844a4.83,4.83,0,0,1,4.83,4.83v1.06h-1.41a9.94,9.94,0,0,1-9.93,9.66h-8a9.94,9.94,0,0,1-9.93-9.66h-1.41V293.6Z" transform="translate(-9.92 -9.43)"/><path class="cls-11" d="M830.38,275.52V284a3,3,0,0,0,6.09,0v-8.46A5.94,5.94,0,0,0,830.38,275.52Z" transform="translate(-9.92 -9.43)"/><path class="cls-11" d="M830.41,274.66a6.91,6.91,0,0,1,6,0,3,3,0,0,0-1.11-2.07h-3.81A3,3,0,0,0,830.41,274.66Z" transform="translate(-9.92 -9.43)"/><path class="cls-8" d="M836.64,294.38h-6.43a4.81,4.81,0,0,1-1.62.28h-9.12a9.94,9.94,0,0,0,9.93,9.66h8a9.94,9.94,0,0,0,9.93-9.66h-9.12A4.81,4.81,0,0,1,836.64,294.38Z" transform="translate(-9.92 -9.43)"/><path class="cls-10" d="M820.39,282.36c0-.91-0.41-1.66-0.91-1.66h-1.2l-9.05,4,0.26,0h10.78a2.72,2.72,0,0,0,.13-0.83v-1.59Z" transform="translate(-9.92 -9.43)"/><path class="cls-14" d="M820.39,282.36c0-.91-0.41-1.66-0.91-1.66h-1.2l-9.05,4,0.26,0h10.78a2.72,2.72,0,0,0,.13-0.83v-1.59Z" transform="translate(-9.92 -9.43)"/><path class="cls-10" d="M819.82,285.48H809.49a2.87,2.87,0,0,1-.72-0.1,0.64,0.64,0,0,0,.45.22h10.25A0.58,0.58,0,0,0,819.82,285.48Z" transform="translate(-9.92 -9.43)"/><path class="cls-14" d="M819.82,285.48H809.49a2.87,2.87,0,0,1-.72-0.1,0.64,0.64,0,0,0,.45.22h10.25A0.58,0.58,0,0,0,819.82,285.48Z" transform="translate(-9.92 -9.43)"/><path class="cls-10" d="M858.55,282.36c0-.91-0.41-1.66-0.91-1.66H849.8l-3.33,1.49c0,0.06,0,.11,0,0.17v1.59a2.72,2.72,0,0,0,.13.83h10.78a2.17,2.17,0,0,0,1.13-.32,2.88,2.88,0,0,0,0-.5v-1.59Z" transform="translate(-9.92 -9.43)"/><path class="cls-14" d="M858.55,282.36c0-.91-0.41-1.66-0.91-1.66H849.8l-3.33,1.49c0,0.06,0,.11,0,0.17v1.59a2.72,2.72,0,0,0,.13.83h10.78a2.17,2.17,0,0,0,1.13-.32,2.88,2.88,0,0,0,0-.5v-1.59Z" transform="translate(-9.92 -9.43)"/><path class="cls-10" d="M847,285.48a0.58,0.58,0,0,0,.35.12h10.25a0.64,0.64,0,0,0,.45-0.22,2.86,2.86,0,0,1-.72.1H847Z" transform="translate(-9.92 -9.43)"/><path class="cls-14" d="M847,285.48a0.58,0.58,0,0,0,.35.12h10.25a0.64,0.64,0,0,0,.45-0.22,2.86,2.86,0,0,1-.72.1H847Z" transform="translate(-9.92 -9.43)"/><path class="cls-9" d="M841.63,246.38c-11.56,6-25.38,9.48-37.09,5.29a26.11,26.11,0,0,0-.89,2.64,31.16,31.16,0,0,0,20.79,1.45c12.57-3.4,27.78-14.08,33.55-10.25C854.55,242.84,849.38,242.33,841.63,246.38Z" transform="translate(-9.92 -9.43)"/><path class="cls-7" d="M863,281.44a6.14,6.14,0,1,0,4.22-5.82A6.13,6.13,0,0,0,863,281.44Zm4.22-1.86a3.52,3.52,0,1,1,0,5.78v-5.78Z" transform="translate(-9.92 -9.43)"/><path class="cls-9" d="M872.77,282.48a3.52,3.52,0,0,0-5.52-2.89v5.78A3.52,3.52,0,0,0,872.77,282.48Z" transform="translate(-9.92 -9.43)"/><path class="cls-7" d="M803.83,281.44a6.15,6.15,0,1,0-3.53,5.55A6.13,6.13,0,0,0,803.83,281.44Zm-4.22,3.93a3.52,3.52,0,1,1,0-5.78v5.78Z" transform="translate(-9.92 -9.43)"/><path class="cls-9" d="M794.09,282.48a3.52,3.52,0,0,0,5.52,2.89v-5.78A3.52,3.52,0,0,0,794.09,282.48Z" transform="translate(-9.92 -9.43)"/><path class="cls-10" d="M817.76,270.38a3.51,3.51,0,0,1,3.12,2.21h10.64a3,3,0,0,1,3.81,0H846a3.31,3.31,0,0,1,6.24,0h4v-8.13h0A1.16,1.16,0,0,1,855,265.6l-11.83-.27a1.16,1.16,0,0,1-1.09-.86H824.82a1.16,1.16,0,0,1-1.09.86l-11.83.27a1.16,1.16,0,0,1-1.19-1.13h0v8.13h4A3.51,3.51,0,0,1,817.76,270.38Z" transform="translate(-9.92 -9.43)"/><path class="cls-12" d="M817.76,270.38a3.51,3.51,0,0,1,3.12,2.21h10.64a3,3,0,0,1,3.81,0H846a3.31,3.31,0,0,1,6.24,0h4v-8.13h0A1.16,1.16,0,0,1,855,265.6l-11.83-.27a1.16,1.16,0,0,1-1.09-.86H824.82a1.16,1.16,0,0,1-1.09.86l-11.83.27a1.16,1.16,0,0,1-1.19-1.13h0v8.13h4A3.51,3.51,0,0,1,817.76,270.38Z" transform="translate(-9.92 -9.43)"/><path class="cls-11" d="M833.43,271.9a3,3,0,0,0-1.9.69h3.81A3,3,0,0,0,833.43,271.9Z" transform="translate(-9.92 -9.43)"/><path class="cls-12" d="M833.43,271.9a3,3,0,0,0-1.9.69h3.81A3,3,0,0,0,833.43,271.9Z" transform="translate(-9.92 -9.43)"/><path class="cls-15" d="M803.65,254.31a26.11,26.11,0,0,1,.89-2.64c11.71,4.19,25.53.74,37.09-5.29,7.75-4,12.92-3.54,16.36-.87,6.88,5.34,6.84,19.34,6.71,22.94h3c4.37-8.63,3.58-31.06-.47-36.37-20.63-27-47.12,5.81-50.93-15-20-6.78-30.27,19-19,30.26-0.25,7.29.32,15.81,2,21.07h2.83A49.34,49.34,0,0,1,803.65,254.31Z" transform="translate(-9.92 -9.43)"/><path class="cls-16" d="M849.09,270.38a3.51,3.51,0,0,0-3.12,2.21,4.57,4.57,0,0,0-.37,1.22h7a4.56,4.56,0,0,0-.37-1.22A3.51,3.51,0,0,0,849.09,270.38Z" transform="translate(-9.92 -9.43)"/><path class="cls-16" d="M820.88,272.59a3.31,3.31,0,0,0-6.24,0,4.56,4.56,0,0,0-.37,1.22h7A4.56,4.56,0,0,0,820.88,272.59Z" transform="translate(-9.92 -9.43)"/><path class="cls-15" d="M811.9,265.6l11.83-.27a1.18,1.18,0,0,0,1.13-1.19l-0.06-2.56a1.16,1.16,0,0,0-1.19-1.13l-11.83.27a1.16,1.16,0,0,0-1.13,1.19l0.06,2.56A1.16,1.16,0,0,0,811.9,265.6Z" transform="translate(-9.92 -9.43)"/><path class="cls-15" d="M843.12,265.33L855,265.6a1.16,1.16,0,0,0,1.19-1.13l0.06-2.56a1.16,1.16,0,0,0-1.13-1.19l-11.83-.27a1.16,1.16,0,0,0-1.19,1.13L842,264.14A1.18,1.18,0,0,0,843.12,265.33Z" transform="translate(-9.92 -9.43)"/><path class="cls-17" d="M797.38,329.81a11.67,11.67,0,0,1,.78-4.18,282.78,282.78,0,0,0-21.92,40.3H793.9q1.47-3.09,3-6Z" transform="translate(-9.92 -9.43)"/><path class="cls-17" d="M869.47,329.81L870,359.92q1.48,2.91,3,6h17.66a282.77,282.77,0,0,0-21.92-40.3A11.67,11.67,0,0,1,869.47,329.81Z" transform="translate(-9.92 -9.43)"/><path class="cls-15" d="M828.6,294.67a4.84,4.84,0,0,0,4.83-4.83h0v-1.06H822.89a4.83,4.83,0,0,0-4.83,4.83v1.06H828.6Z" transform="translate(-9.92 -9.43)"/><path class="cls-15" d="M833.43,289.84a4.84,4.84,0,0,0,4.83,4.83h10.53V293.6a4.83,4.83,0,0,0-4.83-4.83H833.43v1.06h0Z" transform="translate(-9.92 -9.43)"/><path class="cls-17" d="M824.39,354.37l-15.28-36.28a11.76,11.76,0,0,0-11.72,11.72l-0.52,30.11-0.1,6h28.47l-4.62-11.56h3.78Z" transform="translate(-9.92 -9.43)"/><path class="cls-17" d="M869.47,329.81a11.76,11.76,0,0,0-11.72-11.72l-15.28,36.28h3.78l-4.62,11.56H870.1l-0.1-6Z" transform="translate(-9.92 -9.43)"/><polygon class="cls-23" points="819.99 342.91 813.26 319.73 812.72 317.86 808.84 304.51 808.84 304.51 799.18 308.66 814.47 344.94 810.69 344.94 815.31 356.5 822.96 356.5 822.96 353.13 819.99 342.91"/><polygon class="cls-23" points="832.54 344.94 847.83 308.66 838.17 304.51 838.17 304.51 834.3 317.86 833.76 319.73 827.02 342.92 824.06 353.13 824.06 356.5 831.71 356.5 836.33 344.94 832.54 344.94"/><path class="cls-10" d="M808.31,282.36c0-.91.41-1.66,0.91-1.66h9.05l9.45-4.22h-6.85a3.31,3.31,0,0,1-6.24,0h-7.31a2.18,2.18,0,0,0,0,.39v5.7a2.19,2.19,0,0,0,1.07,1.87,2.86,2.86,0,0,1,0-.5v-1.59Z" transform="translate(-9.92 -9.43)"/><path class="cls-24" d="M808.31,282.36c0-.91.41-1.66,0.91-1.66h9.05l9.45-4.22h-6.85a3.31,3.31,0,0,1-6.24,0h-7.31a2.18,2.18,0,0,0,0,.39v5.7a2.19,2.19,0,0,0,1.07,1.87,2.86,2.86,0,0,1,0-.5v-1.59Z" transform="translate(-9.92 -9.43)"/><path class="cls-10" d="M809.22,280.7c-0.51,0-.91.74-0.91,1.66v1.59a2.86,2.86,0,0,0,0,.5,2.17,2.17,0,0,0,.87.3l9.05-4h-9.05Z" transform="translate(-9.92 -9.43)"/><path class="cls-14" d="M809.22,280.7c-0.51,0-.91.74-0.91,1.66v1.59a2.86,2.86,0,0,0,0,.5,2.17,2.17,0,0,0,.87.3l9.05-4h-9.05Z" transform="translate(-9.92 -9.43)"/><path class="cls-24" d="M809.22,280.7c-0.51,0-.91.74-0.91,1.66v1.59a2.86,2.86,0,0,0,0,.5,2.17,2.17,0,0,0,.87.3l9.05-4h-9.05Z" transform="translate(-9.92 -9.43)"/><path class="cls-16" d="M817.76,278.68a3.51,3.51,0,0,0,3.12-2.2h-6.24A3.51,3.51,0,0,0,817.76,278.68Z" transform="translate(-9.92 -9.43)"/><path class="cls-24" d="M817.76,278.68a3.51,3.51,0,0,0,3.12-2.2h-6.24A3.51,3.51,0,0,0,817.76,278.68Z" transform="translate(-9.92 -9.43)"/><path class="cls-10" d="M838.81,278.5c0,0.07,0,.13,0,0.13h0v3.95a2.19,2.19,0,0,0,1.93,2.17l5.73-2.56a1.37,1.37,0,0,1,.91-1.49h2.42l9.45-4.22h-7a3.31,3.31,0,0,1-6.24,0h-7.12a2.2,2.2,0,0,0,0,.39v1.63Z" transform="translate(-9.92 -9.43)"/><path class="cls-24" d="M838.81,278.5c0,0.07,0,.13,0,0.13h0v3.95a2.19,2.19,0,0,0,1.93,2.17l5.73-2.56a1.37,1.37,0,0,1,.91-1.49h2.42l9.45-4.22h-7a3.31,3.31,0,0,1-6.24,0h-7.12a2.2,2.2,0,0,0,0,.39v1.63Z" transform="translate(-9.92 -9.43)"/><path class="cls-10" d="M847.38,280.7a1.37,1.37,0,0,0-.91,1.49l3.33-1.49h-2.42Z" transform="translate(-9.92 -9.43)"/><path class="cls-14" d="M847.38,280.7a1.37,1.37,0,0,0-.91,1.49l3.33-1.49h-2.42Z" transform="translate(-9.92 -9.43)"/><path class="cls-24" d="M847.38,280.7a1.37,1.37,0,0,0-.91,1.49l3.33-1.49h-2.42Z" transform="translate(-9.92 -9.43)"/><path class="cls-16" d="M849.09,278.68a3.51,3.51,0,0,0,3.12-2.2H846A3.51,3.51,0,0,0,849.09,278.68Z" transform="translate(-9.92 -9.43)"/><path class="cls-24" d="M849.09,278.68a3.51,3.51,0,0,0,3.12-2.2H846A3.51,3.51,0,0,0,849.09,278.68Z" transform="translate(-9.92 -9.43)"/><path class="cls-25" d="M828,278.5a5.37,5.37,0,0,1,.64-2.1,0.82,0.82,0,0,1-.34.07H828a2.18,2.18,0,0,1,0,.39v1.63Z" transform="translate(-9.92 -9.43)"/><path class="cls-25" d="M819.82,285.48h6a2.9,2.9,0,0,0,2.9-2.9v-3.94H828v3.95a2.2,2.2,0,0,1-2.2,2.2H809.49l-0.26,0a2.19,2.19,0,0,1-1.93-2.17v-5.7a2.18,2.18,0,0,1,0-.39H807a0.81,0.81,0,0,1-.36-0.09,2.89,2.89,0,0,0,0,.48v5.7a2.9,2.9,0,0,0,2.19,2.8,2.87,2.87,0,0,0,.72.1h10.34Z" transform="translate(-9.92 -9.43)"/><path class="cls-25" d="M833.43,274a6.09,6.09,0,0,0-3,.69,4.34,4.34,0,0,0-1.25,1,0.82,0.82,0,0,1-.48.71,5.37,5.37,0,0,0-.64,2.1c0,0.07,0,.13,0,0.13h0.72a4.1,4.1,0,0,1,1.63-3.11,5.1,5.1,0,0,1,3-.84V274Z" transform="translate(-9.92 -9.43)"/><path class="cls-26" d="M807,276.48h21.35a0.83,0.83,0,0,0,.82-0.78s0,0,0,0v-1a0.83,0.83,0,0,0-.83-0.83H807a0.83,0.83,0,0,0-.83.83v1a0.82,0.82,0,0,0,.47.74A0.81,0.81,0,0,0,807,276.48Z" transform="translate(-9.92 -9.43)"/><path class="cls-25" d="M859.52,276.48a2.18,2.18,0,0,1,0,.39v5.7a2.22,2.22,0,0,1-2.2,2.2H841l-0.26,0a2.19,2.19,0,0,1-1.93-2.17v-3.95h-0.71v3.94a2.9,2.9,0,0,0,2.9,2.9h16.36a2.86,2.86,0,0,0,.72-0.1,2.9,2.9,0,0,0,2.19-2.8v-5.7a2.88,2.88,0,0,0,0-.48,0.81,0.81,0,0,1-.36.09h-0.34Z" transform="translate(-9.92 -9.43)"/><path class="cls-25" d="M838.81,278.5v-1.63a2.2,2.2,0,0,1,0-.39h-0.34a0.82,0.82,0,0,1-.33-0.07A5.37,5.37,0,0,1,838.81,278.5Z" transform="translate(-9.92 -9.43)"/><path class="cls-25" d="M838.81,278.63h0s0-.06,0-0.13a5.37,5.37,0,0,0-.64-2.1,0.82,0.82,0,0,1-.48-0.71,4.34,4.34,0,0,0-1.25-1,6.09,6.09,0,0,0-3-.69v0.72a5.08,5.08,0,0,1,3,.84,4.13,4.13,0,0,1,1.63,3.11h0.71Z" transform="translate(-9.92 -9.43)"/><path class="cls-26" d="M838.51,273.8a0.83,0.83,0,0,0-.83.83v1s0,0,0,0a0.83,0.83,0,0,0,.82.78h21.35a0.81,0.81,0,0,0,.36-0.09,0.82,0.82,0,0,0,.47-0.74v-1a0.83,0.83,0,0,0-.83-0.83H838.51Z" transform="translate(-9.92 -9.43)"/></g><g class="cls-27"><path class="cls-20" d="M201.52,347.31l1-.94h-0.3l-0.66.23v0.71Z" transform="translate(-9.92 -9.43)"/><path class="cls-20" d="M173.13,346.55l-0.49-.17h-0.47l1,0.94v-0.76Z" transform="translate(-9.92 -9.43)"/><path class="cls-7" d="M188.26,360.23l8.32-8.1a50.06,50.06,0,0,1-18.51,0l8.32,8.11,0.93,0.19Z" transform="translate(-9.92 -9.43)"/><path class="cls-9" d="M196.58,352.12l4.94-4.81v-0.71a48.17,48.17,0,0,1-28.39-.06v0.76l4.94,4.81A50.06,50.06,0,0,0,196.58,352.12Z" transform="translate(-9.92 -9.43)"/><path class="cls-28" d="M182,370.36l-1.07,2.21a0.78,0.78,0,0,1-1.34.28l-15.21-16.47h-5.44a13.72,13.72,0,0,0-2,.17,9.3,9.3,0,0,1,5.9,14.5,306.22,306.22,0,0,0-17.53,29.4v11.33h35.4l5.62-37.13Z" transform="translate(-9.92 -9.43)"/><path class="cls-28" d="M211.85,371a9.3,9.3,0,0,1,5.9-14.5,13.72,13.72,0,0,0-2-.17h-5.44L195,372.84a0.78,0.78,0,0,1-1.34-.28l-1.07-2.21-4.28,4.28L194,411.77h12.55l-2.64-1.17a2.3,2.3,0,0,1-1.37-2.1V394.3a2.3,2.3,0,0,1,2.3-2.3h11.34v-2.67a1.3,1.3,0,0,1,1.14-1.28v0a0.48,0.48,0,0,1,.48-0.48h0.64a0.48,0.48,0,0,1,.48.48v0a1.3,1.3,0,0,1,1.14,1.28V392h0.1a2.3,2.3,0,0,1,2.3,2.3v14.2a2.3,2.3,0,0,1-1.37,2.1l-2.64,1.17h11V400.44A306.29,306.29,0,0,0,211.85,371Z" transform="translate(-9.92 -9.43)"/><polygon class="cls-28" points="178.35 351.94 177.97 351.16 178.34 350.8 177.41 351 178.35 351.94"/><polygon class="cls-28" points="177.41 351 176.47 350.81 176.84 351.16 176.46 351.94 177.41 351"/><path class="cls-29" d="M217.3,388.06a1.3,1.3,0,0,0-1.14,1.28V392h1.14v-4Z" transform="translate(-9.92 -9.43)"/><path class="cls-29" d="M220,392v-2.67a1.3,1.3,0,0,0-1.14-1.28v4H220Z" transform="translate(-9.92 -9.43)"/><path class="cls-30" d="M222.43,408.5V394.3a2.3,2.3,0,0,0-2.3-2.3h-1.24v5.23a0.48,0.48,0,0,1-.48.48h-0.64a0.48,0.48,0,0,1-.48-0.48V392H204.82a2.3,2.3,0,0,0-2.3,2.3v14.2a2.3,2.3,0,0,0,1.37,2.1l2.64,1.17h11.88l2.64-1.17A2.3,2.3,0,0,0,222.43,408.5Z" transform="translate(-9.92 -9.43)"/><path class="cls-31" d="M217.3,397.24a0.48,0.48,0,0,0,.48.48h0.64a0.48,0.48,0,0,0,.48-0.48V388a0.48,0.48,0,0,0-.48-0.48h-0.64a0.48,0.48,0,0,0-.48.48v9.22Z" transform="translate(-9.92 -9.43)"/><polygon class="cls-29" points="177.41 351 176.46 351.94 172.09 360.93 176.37 365.21 177.41 358.4 178.44 365.21 182.72 360.93 178.35 351.94 177.41 351"/><path class="cls-28" d="M179.6,372.84a0.78,0.78,0,0,0,1.34-.28l1.07-2.21-0.92-.92-0.44.69a0.76,0.76,0,0,1-1.21.21l-15.05-14Z" transform="translate(-9.92 -9.43)"/><path class="cls-22" d="M179.6,372.84a0.78,0.78,0,0,0,1.34-.28l1.07-2.21-0.92-.92-0.44.69a0.76,0.76,0,0,1-1.21.21l-15.05-14Z" transform="translate(-9.92 -9.43)"/><polygon class="cls-28" points="176.84 351.16 176.13 352.27 176.46 351.94 176.84 351.16"/><polygon class="cls-22" points="176.84 351.16 176.13 352.27 176.46 351.94 176.84 351.16"/><polygon class="cls-29" points="176.13 352.27 171.18 360.01 172.09 360.93 176.46 351.94 176.13 352.27"/><polygon class="cls-22" points="176.13 352.27 171.18 360.01 172.09 360.93 176.46 351.94 176.13 352.27"/><path class="cls-28" d="M179.44,370.33a0.76,0.76,0,0,0,1.21-.21l0.44-.69,5-7.74,0.71-1.11-0.37-.36-8.32-8.11-4.94-4.81-1-.94-7.78,10Z" transform="translate(-9.92 -9.43)"/><path class="cls-28" d="M195.21,370.33a0.76,0.76,0,0,1-1.21-.21l-0.44-.69-0.92.92,1.07,2.21a0.78,0.78,0,0,0,1.34.28l15.21-16.47Z" transform="translate(-9.92 -9.43)"/><path class="cls-22" d="M195.21,370.33a0.76,0.76,0,0,1-1.21-.21l-0.44-.69-0.92.92,1.07,2.21a0.78,0.78,0,0,0,1.34.28l15.21-16.47Z" transform="translate(-9.92 -9.43)"/><polygon class="cls-28" points="178.68 352.27 177.97 351.16 178.35 351.94 178.68 352.27"/><polygon class="cls-22" points="178.68 352.27 177.97 351.16 178.35 351.94 178.68 352.27"/><polygon class="cls-29" points="178.68 352.27 178.35 351.94 182.72 360.93 183.64 360.01 178.68 352.27"/><polygon class="cls-22" points="178.68 352.27 178.35 351.94 182.72 360.93 183.64 360.01 178.68 352.27"/><path class="cls-28" d="M196.58,352.12l-8.32,8.1-0.37.36,0.71,1.11,5,7.74,0.44,0.69a0.76,0.76,0,0,0,1.21.21l15.05-14-7.78-10-1,.94Z" transform="translate(-9.92 -9.43)"/><polygon class="cls-29" points="177.41 358.4 176.37 365.21 170.75 402.34 184.06 402.34 178.44 365.21 177.41 358.4"/><path class="cls-28" d="M162.8,371a9.32,9.32,0,0,0-15.25-10.71,331,331,0,0,0-28.48,51.44h20.5c1.9-4,3.81-7.77,5.69-11.33A306.22,306.22,0,0,1,162.8,371Z" transform="translate(-9.92 -9.43)"/><path class="cls-28" d="M217.75,356.54a9.3,9.3,0,0,0-5.9,14.5,306.29,306.29,0,0,1,17.53,29.4c1.88,3.56,3.8,7.35,5.69,11.33h20.5a331,331,0,0,0-28.48-51.44A9.31,9.31,0,0,0,217.75,356.54Z" transform="translate(-9.92 -9.43)"/><path class="cls-10" d="M177.42,307.33l-6,3.07a3,3,0,0,1,.3,1.36v1.91c0,1.1-.49,2-1.1,2h-9.45l-0.44.23A9.43,9.43,0,0,0,177.42,307.33Z" transform="translate(-9.92 -9.43)"/><path class="cls-10" d="M203.08,313.67v-0.17l-4.66,2.39a9.43,9.43,0,0,0,15.79-.23h-10C203.57,315.66,203.08,314.77,203.08,313.67Z" transform="translate(-9.92 -9.43)"/><path class="cls-10" d="M191.07,302.85v1.62a11.33,11.33,0,0,1,4.37,2.74,11.37,11.37,0,0,1,6.82-7.19H189.7A3.65,3.65,0,0,1,191.07,302.85Z" transform="translate(-9.92 -9.43)"/><path class="cls-10" d="M215.64,309.77a9.36,9.36,0,0,0-.55-2.43l-4.74,2.43h5.3Z" transform="translate(-9.92 -9.43)"/><path class="cls-10" d="M183.74,302.85a3.65,3.65,0,0,1,1.37-2.83H172.56a11.37,11.37,0,0,1,6.82,7.19,11.36,11.36,0,0,1,4.37-2.74v-1.62Z" transform="translate(-9.92 -9.43)"/><path class="cls-10" d="M187.41,348.72a45.86,45.86,0,0,0,14.11-2.11l0.66-.23c14.23-4.85,22.53-16.64,25-29.06a7.37,7.37,0,0,1,.83-13.67v-8.52h-3.5S227.22,270,221,263.86s-9.86,10-33.6,10h0c-23.74,0-27.39-16.08-33.6-10s-3.55,31.27-3.55,31.27h-3.5v8.52a7.37,7.37,0,0,1,.83,13.67c2.51,12.42,10.82,24.2,25,29.06l0.49,0.17A45.76,45.76,0,0,0,187.41,348.72Zm-29-33.06h-0.13c-0.61,0-1.1-.89-1.1-2v-1.91a3.45,3.45,0,0,1,.06-0.61c0-.18,0-0.35,0-0.53A11.34,11.34,0,0,1,164.59,300h-4.52v-9.77h0L160,287.17a1.39,1.39,0,0,1,1.36-1.42l14.22-.32a1.39,1.39,0,0,1,1.43,1.36l0.07,3.08a1.38,1.38,0,0,1-.05.39h20.69a1.39,1.39,0,0,1-.05-0.39l0.07-3.08a1.39,1.39,0,0,1,1.42-1.36l14.22,0.32a1.39,1.39,0,0,1,1.36,1.42l-0.07,3.08h0V300h-4.52a11.34,11.34,0,0,1,7.35,10.59c0,0.18,0,.36,0,0.53a3.44,3.44,0,0,1,.06.62v1.91c0,1.1-.49,2-1.1,2h-0.13a11.32,11.32,0,0,1-21.46-5c0-.36,0-0.72.05-1.07a9.44,9.44,0,0,0-3.9-3.05v7.23a3.66,3.66,0,0,1-7.33,0v-7.23a9.46,9.46,0,0,0-3.9,3c0,0.36.05,0.72,0.05,1.08A11.32,11.32,0,0,1,158.44,315.66Zm40.33,10.56h5.42a12,12,0,0,1-12,12h-9.66a12,12,0,0,1-12-12h28.16Z" transform="translate(-9.92 -9.43)"/><path class="cls-11" d="M183.74,306.48v7.23a3.66,3.66,0,0,0,7.33,0v-7.23A9.24,9.24,0,0,0,183.74,306.48Z" transform="translate(-9.92 -9.43)"/><path class="cls-11" d="M183.74,302.85v1.62a11,11,0,0,1,7.33,0v-1.62A3.65,3.65,0,0,0,189.7,300h-4.58A3.65,3.65,0,0,0,183.74,302.85Z" transform="translate(-9.92 -9.43)"/><path class="cls-8" d="M182.58,338.17h9.66a12,12,0,0,0,12-12H170.62A12,12,0,0,0,182.58,338.17Z" transform="translate(-9.92 -9.43)"/><path class="cls-10" d="M170.64,315.66c0.61,0,1.1-.89,1.1-2v-1.91a3,3,0,0,0-.3-1.36l-10.25,5.26h9.45Z" transform="translate(-9.92 -9.43)"/><path class="cls-14" d="M170.64,315.66c0.61,0,1.1-.89,1.1-2v-1.91a3,3,0,0,0-.3-1.36l-10.25,5.26h9.45Z" transform="translate(-9.92 -9.43)"/><path class="cls-10" d="M157.21,311.76v1.91c0,1.1.49,2,1.1,2h0.13a11.24,11.24,0,0,1-1.18-4.51A3.45,3.45,0,0,0,157.21,311.76Z" transform="translate(-9.92 -9.43)"/><path class="cls-14" d="M157.21,311.76v1.91c0,1.1.49,2,1.1,2h0.13a11.24,11.24,0,0,1-1.18-4.51A3.45,3.45,0,0,0,157.21,311.76Z" transform="translate(-9.92 -9.43)"/><path class="cls-10" d="M216.51,315.66c0.61,0,1.1-.89,1.1-2v-1.91a3.44,3.44,0,0,0-.06-0.62,11.23,11.23,0,0,1-1.18,4.52h0.13Z" transform="translate(-9.92 -9.43)"/><path class="cls-14" d="M216.51,315.66c0.61,0,1.1-.89,1.1-2v-1.91a3.44,3.44,0,0,0-.06-0.62,11.23,11.23,0,0,1-1.18,4.52h0.13Z" transform="translate(-9.92 -9.43)"/><path class="cls-10" d="M203.08,313.49v0.17c0,1.1.49,2,1.1,2h10a9.38,9.38,0,0,0,1.48-5c0-.28,0-0.56,0-0.84h-5.3Z" transform="translate(-9.92 -9.43)"/><path class="cls-14" d="M203.08,313.49v0.17c0,1.1.49,2,1.1,2h10a9.38,9.38,0,0,0,1.48-5c0-.28,0-0.56,0-0.84h-5.3Z" transform="translate(-9.92 -9.43)"/><path class="cls-7" d="M223,310.66a7.39,7.39,0,1,0,5.07-7A7.37,7.37,0,0,0,223,310.66Zm5.08-2.23a4.23,4.23,0,1,1,0,7v-7Z" transform="translate(-9.92 -9.43)"/><path class="cls-9" d="M234.71,311.9a4.23,4.23,0,0,0-6.64-3.48v7A4.23,4.23,0,0,0,234.71,311.9Z" transform="translate(-9.92 -9.43)"/><path class="cls-7" d="M151.83,310.66a7.4,7.4,0,1,0-4.24,6.67A7.38,7.38,0,0,0,151.83,310.66Zm-5.08,4.72a4.23,4.23,0,1,1,0-7v7Z" transform="translate(-9.92 -9.43)"/><path class="cls-9" d="M140.11,311.9a4.23,4.23,0,0,0,6.64,3.48v-7A4.23,4.23,0,0,0,140.11,311.9Z" transform="translate(-9.92 -9.43)"/><path class="cls-10" d="M168.57,297.36a4.2,4.2,0,0,1,3.71,2.56l0.28,0.1h12.56a3.57,3.57,0,0,1,4.58,0h12.56l0.28-.1a4,4,0,0,1,7.41,0l0.28,0.1h4.52v-9.77h0a1.39,1.39,0,0,1-1.42,1.36l-14.22-.32a1.39,1.39,0,0,1-1.31-1H177.06a1.39,1.39,0,0,1-1.31,1l-14.22.32a1.39,1.39,0,0,1-1.42-1.36h0V300h4.52l0.28-.1A4.2,4.2,0,0,1,168.57,297.36Z" transform="translate(-9.92 -9.43)"/><path class="cls-12" d="M168.57,297.36a4.2,4.2,0,0,1,3.71,2.56l0.28,0.1h12.56a3.57,3.57,0,0,1,4.58,0h12.56l0.28-.1a4,4,0,0,1,7.41,0l0.28,0.1h4.52v-9.77h0a1.39,1.39,0,0,1-1.42,1.36l-14.22-.32a1.39,1.39,0,0,1-1.31-1H177.06a1.39,1.39,0,0,1-1.31,1l-14.22.32a1.39,1.39,0,0,1-1.42-1.36h0V300h4.52l0.28-.1A4.2,4.2,0,0,1,168.57,297.36Z" transform="translate(-9.92 -9.43)"/><path class="cls-11" d="M187.41,299.18a3.63,3.63,0,0,0-2.29.83h4.58A3.62,3.62,0,0,0,187.41,299.18Z" transform="translate(-9.92 -9.43)"/><path class="cls-12" d="M187.41,299.18a3.63,3.63,0,0,0-2.29.83h4.58A3.62,3.62,0,0,0,187.41,299.18Z" transform="translate(-9.92 -9.43)"/><path class="cls-16" d="M210,299.91a4,4,0,0,0-7.41,0A11.13,11.13,0,0,1,210,299.91Z" transform="translate(-9.92 -9.43)"/><path class="cls-16" d="M168.57,297.36a4.2,4.2,0,0,0-3.71,2.56,11.13,11.13,0,0,1,7.41,0A4.2,4.2,0,0,0,168.57,297.36Z" transform="translate(-9.92 -9.43)"/><path class="cls-15" d="M161.53,291.6l14.22-.32a1.42,1.42,0,0,0,1.36-1.42L177,286.78a1.39,1.39,0,0,0-1.43-1.36l-14.22.32a1.39,1.39,0,0,0-1.36,1.42l0.07,3.08A1.39,1.39,0,0,0,161.53,291.6Z" transform="translate(-9.92 -9.43)"/><path class="cls-15" d="M199.07,291.28l14.22,0.32a1.39,1.39,0,0,0,1.42-1.36l0.07-3.08a1.39,1.39,0,0,0-1.36-1.42l-14.22-.32a1.39,1.39,0,0,0-1.42,1.36l-0.07,3.08A1.42,1.42,0,0,0,199.07,291.28Z" transform="translate(-9.92 -9.43)"/><path class="cls-15" d="M153.8,263.86c6.21-6.1,9.86,10,33.6,10h0c23.74,0,27.39-16.08,33.6-10s3.55,31.27,3.55,31.27h3.51s8.42-16.18,4.52-34.07c-6.18-28.36-45.18-27.87-45.18-27.87s-39-.49-45.18,27.87c-3.9,17.89,4.52,34.07,4.52,34.07h3.51S147.59,270,153.8,263.86Z" transform="translate(-9.92 -9.43)"/><path class="cls-32" d="M179.9,310.61c0-.37,0-0.73-0.05-1.08l-0.12.15a0.94,0.94,0,1,1-1.53-1.1,11.27,11.27,0,0,1,1.19-1.38,11.37,11.37,0,0,0-6.82-7.19l-0.28-.1a11.13,11.13,0,0,0-7.41,0l-0.28.1a11.34,11.34,0,0,0-7.35,10.59c0,0.18,0,.36,0,0.53A11.32,11.32,0,0,0,179.9,310.61ZM168.57,320a9.44,9.44,0,0,1-7.83-4.16l-0.85.43a10.38,10.38,0,1,1,18.36-9.42l-0.85.43A9.42,9.42,0,0,1,168.57,320Z" transform="translate(-9.92 -9.43)"/><path class="cls-32" d="M191.07,304.46a11.49,11.49,0,0,0-12.88,4.12,0.94,0.94,0,1,0,1.53,1.1l0.12-.15a9.44,9.44,0,0,1,15.12,0,11.25,11.25,0,0,1,.47-2.33A11.33,11.33,0,0,0,191.07,304.46Z" transform="translate(-9.92 -9.43)"/><path class="cls-32" d="M206.24,299.28a11.26,11.26,0,0,0-3.71.63l-0.28.1a11.37,11.37,0,0,0-6.82,7.19,11.25,11.25,0,0,0-.47,2.33c0,0.35-.05.71-0.05,1.07a11.32,11.32,0,0,0,22.64.53c0-.18,0-0.35,0-0.53A11.34,11.34,0,0,0,210.23,300l-0.28-.1A11.26,11.26,0,0,0,206.24,299.28Zm9.69,7.62-0.85.43a9.36,9.36,0,0,1,.55,2.43c0,0.28,0,.56,0,0.84a9.44,9.44,0,0,1-17.27,5.28l-0.85.43A10.38,10.38,0,1,1,215.94,306.9Z" transform="translate(-9.92 -9.43)"/><path class="cls-10" d="M210.5,302.19c0,0.05,0,.1,0,0.16,0,2.76-1.91,5-4.27,5s-4.27-2.23-4.27-5c0-.05,0-0.1,0-0.16a9.42,9.42,0,0,0-3.57,13.69l4.66-2.39v-1.74c0-1.1.49-2,1.1-2h6.17l4.74-2.43A9.48,9.48,0,0,0,210.5,302.19Z" transform="translate(-9.92 -9.43)"/><path class="cls-24" d="M210.5,302.19c0,0.05,0,.1,0,0.16,0,2.76-1.91,5-4.27,5s-4.27-2.23-4.27-5c0-.05,0-0.1,0-0.16a9.42,9.42,0,0,0-3.57,13.69l4.66-2.39v-1.74c0-1.1.49-2,1.1-2h6.17l4.74-2.43A9.48,9.48,0,0,0,210.5,302.19Z" transform="translate(-9.92 -9.43)"/><path class="cls-10" d="M204.18,309.77c-0.61,0-1.1.89-1.1,2v1.74l7.27-3.73h-6.17Z" transform="translate(-9.92 -9.43)"/><path class="cls-14" d="M204.18,309.77c-0.61,0-1.1.89-1.1,2v1.74l7.27-3.73h-6.17Z" transform="translate(-9.92 -9.43)"/><path class="cls-24" d="M204.18,309.77c-0.61,0-1.1.89-1.1,2v1.74l7.27-3.73h-6.17Z" transform="translate(-9.92 -9.43)"/><path class="cls-16" d="M206.24,307.34c2.36,0,4.27-2.23,4.27-5,0-.05,0-0.1,0-0.16a9.35,9.35,0,0,0-8.51,0c0,0.05,0,.1,0,0.16C202,305.1,203.89,307.34,206.24,307.34Z" transform="translate(-9.92 -9.43)"/><path class="cls-24" d="M206.24,307.34c2.36,0,4.27-2.23,4.27-5,0-.05,0-0.1,0-0.16a9.35,9.35,0,0,0-8.51,0c0,0.05,0,.1,0,0.16C202,305.1,203.89,307.34,206.24,307.34Z" transform="translate(-9.92 -9.43)"/><path class="cls-32" d="M206.24,300.22a10.38,10.38,0,0,0-8.67,16.1l0.85-.43a9.44,9.44,0,1,1,16.67-8.55l0.85-.43A10.38,10.38,0,0,0,206.24,300.22Z" transform="translate(-9.92 -9.43)"/><path class="cls-24" d="M206.24,300.22a10.38,10.38,0,0,0-8.67,16.1l0.85-.43a9.44,9.44,0,1,1,16.67-8.55l0.85-.43A10.38,10.38,0,0,0,206.24,300.22Z" transform="translate(-9.92 -9.43)"/><path class="cls-10" d="M172.83,302.19c0,0.05,0,.1,0,0.16,0,2.76-1.91,5-4.27,5s-4.27-2.23-4.27-5c0-.05,0-0.1,0-0.16a9.45,9.45,0,0,0-5.14,7.58h11.46a1,1,0,0,1,.8.64l6-3.07A9.48,9.48,0,0,0,172.83,302.19Z" transform="translate(-9.92 -9.43)"/><path class="cls-24" d="M172.83,302.19c0,0.05,0,.1,0,0.16,0,2.76-1.91,5-4.27,5s-4.27-2.23-4.27-5c0-.05,0-0.1,0-0.16a9.45,9.45,0,0,0-5.14,7.58h11.46a1,1,0,0,1,.8.64l6-3.07A9.48,9.48,0,0,0,172.83,302.19Z" transform="translate(-9.92 -9.43)"/><path class="cls-10" d="M160.61,315.66l0.14,0.23,0.44-.23h-0.58Z" transform="translate(-9.92 -9.43)"/><path class="cls-24" d="M160.61,315.66l0.14,0.23,0.44-.23h-0.58Z" transform="translate(-9.92 -9.43)"/><path class="cls-10" d="M170.64,309.77H159.17c0,0.28,0,.56,0,0.84a9.38,9.38,0,0,0,1.48,5h0.58l10.25-5.26A1,1,0,0,0,170.64,309.77Z" transform="translate(-9.92 -9.43)"/><path class="cls-14" d="M170.64,309.77H159.17c0,0.28,0,.56,0,0.84a9.38,9.38,0,0,0,1.48,5h0.58l10.25-5.26A1,1,0,0,0,170.64,309.77Z" transform="translate(-9.92 -9.43)"/><path class="cls-24" d="M170.64,309.77H159.17c0,0.28,0,.56,0,0.84a9.38,9.38,0,0,0,1.48,5h0.58l10.25-5.26A1,1,0,0,0,170.64,309.77Z" transform="translate(-9.92 -9.43)"/><path class="cls-16" d="M168.57,307.34c2.36,0,4.27-2.23,4.27-5,0-.05,0-0.1,0-0.16a9.35,9.35,0,0,0-8.51,0c0,0.05,0,.1,0,0.16C164.3,305.1,166.21,307.34,168.57,307.34Z" transform="translate(-9.92 -9.43)"/><path class="cls-24" d="M168.57,307.34c2.36,0,4.27-2.23,4.27-5,0-.05,0-0.1,0-0.16a9.35,9.35,0,0,0-8.51,0c0,0.05,0,.1,0,0.16C164.3,305.1,166.21,307.34,168.57,307.34Z" transform="translate(-9.92 -9.43)"/><path class="cls-32" d="M159.13,310.61c0-.28,0-0.56,0-0.84a9.43,9.43,0,0,1,18.25-2.43l0.85-.43a10.38,10.38,0,1,0-18.36,9.42l0.85-.43-0.14-.23A9.38,9.38,0,0,1,159.13,310.61Z" transform="translate(-9.92 -9.43)"/><path class="cls-24" d="M159.13,310.61c0-.28,0-0.56,0-0.84a9.43,9.43,0,0,1,18.25-2.43l0.85-.43a10.38,10.38,0,1,0-18.36,9.42l0.85-.43-0.14-.23A9.38,9.38,0,0,1,159.13,310.61Z" transform="translate(-9.92 -9.43)"/></g><g class="cls-33"><path class="cls-34" d="M636.92,208.46a8.91,8.91,0,0,1,5.25-1.62,13.66,13.66,0,0,0-3-.34H623.74v7.1A13.43,13.43,0,0,1,610.31,227H608.5a13.43,13.43,0,0,1-13.43-13.43v-7.1H579.64a13.66,13.66,0,0,0-3,.34A9,9,0,0,1,584.09,221c-0.09.13-5,7.26-11.51,18.5h73.67c-6.47-11.25-11.42-18.37-11.51-18.5A9,9,0,0,1,636.92,208.46Z" transform="translate(-9.92 -9.43)"/><path class="cls-10" d="M608.5,227h1.81a13.43,13.43,0,0,0,13.43-13.43v-7.1H623.6v2.4H595.21v-2.4h-0.14v7.1A13.43,13.43,0,0,0,608.5,227Z" transform="translate(-9.92 -9.43)"/><path class="cls-10" d="M595.21,208.89H623.6V196.31h0V201a48.27,48.27,0,0,1-28.39,0v7.91Z" transform="translate(-9.92 -9.43)"/><path class="cls-34" d="M581.9,208.46a8.91,8.91,0,0,0-5.25-1.62,9.08,9.08,0,0,0-1.46.13,8.92,8.92,0,0,0-5.8,3.69A309.4,309.4,0,0,0,552,239.47h20.59C579,228.23,584,221.1,584.09,221A9,9,0,0,0,581.9,208.46Z" transform="translate(-9.92 -9.43)"/><path class="cls-34" d="M643.63,207a9.07,9.07,0,0,0-1.46-.13A9,9,0,0,0,634.73,221c0.09,0.13,5,7.26,11.51,18.5h20.59a309.41,309.41,0,0,0-17.4-28.83A8.92,8.92,0,0,0,643.63,207Z" transform="translate(-9.92 -9.43)"/><path class="cls-6" d="M585.46,80a56.62,56.62,0,0,1,47.9,0,3.12,3.12,0,0,1,1.73,2.19,26.43,26.43,0,1,0-51.36,0A3.12,3.12,0,0,1,585.46,80Z" transform="translate(-9.92 -9.43)"/><path class="cls-35" d="M609.41,78.77a51.87,51.87,0,0,1,24.92,6.34l0.46-.85a3,3,0,0,0,.29-2.1A3.12,3.12,0,0,0,633.35,80a56.62,56.62,0,0,0-47.9,0,3.12,3.12,0,0,0-1.73,2.19,3,3,0,0,0,.29,2.1l0.46,0.85A51.87,51.87,0,0,1,609.41,78.77Z" transform="translate(-9.92 -9.43)"/><path class="cls-6" d="M568.75,153.39V134.64h0c-2.07.17-3.32,0.19-3.32,0.19L562.1,120.4l6.65-18L609.41,90.9h0l40.65,11.54,6.65,18-3.32,14.42s-1.25,0-3.32-.19h0v18.75a7.32,7.32,0,0,1,6,.64,52.1,52.1,0,1,0-93.35,0A7.32,7.32,0,0,1,568.75,153.39Z" transform="translate(-9.92 -9.43)"/><path class="cls-9" d="M623.6,201v-4.66a48.17,48.17,0,0,1-28.39,0V201h0A48.27,48.27,0,0,0,623.6,201Z" transform="translate(-9.92 -9.43)"/><path class="cls-10" d="M609.41,198.45a45.81,45.81,0,0,0,14.19-2.14h0c14.59-4.73,23.08-16.67,25.63-29.25a7.37,7.37,0,0,1,.83-13.67V134.64c-36.22,1.07-40.29-22.16-40.65-29.8-0.36,7.64-4.43,30.87-40.65,29.8v18.75a7.37,7.37,0,0,1,.83,13.67c2.55,12.59,11,24.53,25.63,29.25A45.81,45.81,0,0,0,609.41,198.45ZM592.62,176h33.58a12,12,0,0,1-12,12h-9.66A12,12,0,0,1,592.62,176Zm13.6-14.14v-6.54a3.19,3.19,0,1,1,6.38,0v6.54A3.19,3.19,0,1,1,606.22,161.81Zm26.29,10.56a6,6,0,1,1,6-6A6,6,0,0,1,632.51,172.37Zm-50.45-23.14V140h0l0-1.21a1.23,1.23,0,0,1,1.37-.84l14.22-.32a1.23,1.23,0,0,1,1.41.78l0,1.6h20.57l0-1.6a1.23,1.23,0,0,1,1.41-.78l14.22,0.32a1.23,1.23,0,0,1,1.37.84l0,1.21h0v9.25h0v0.52h-0.16a1,1,0,0,1-.88.52h-3.5a5.7,5.7,0,0,1,.3,1.81c0,2.76-1.91,5-4.27,5s-4.27-2.23-4.27-5a5.6,5.6,0,0,1,.52-2.33H594.32a5.6,5.6,0,0,1,.52,2.33c0,2.76-1.91,5-4.27,5s-4.27-2.23-4.27-5a5.7,5.7,0,0,1,.3-1.81h-3.5a1,1,0,0,1-.88-0.52h-0.16v-0.52Zm4.24,11.16a6,6,0,1,1-6,6A6,6,0,0,1,586.3,160.39Z" transform="translate(-9.92 -9.43)"/><path class="cls-11" d="M612.59,161.81v-6.54a3.19,3.19,0,1,0-6.38,0v6.54A3.19,3.19,0,1,0,612.59,161.81Z" transform="translate(-9.92 -9.43)"/><path class="cls-8" d="M604.57,187.91h9.66a12,12,0,0,0,12-12H592.62A12,12,0,0,0,604.57,187.91Z" transform="translate(-9.92 -9.43)"/><path class="cls-7" d="M650.06,153.39a7.32,7.32,0,1,0,2.31-.37A7.38,7.38,0,0,0,650.06,153.39Zm6.65,8.25a4.23,4.23,0,0,1-6.64,3.48v-7A4.23,4.23,0,0,1,656.71,161.63Z" transform="translate(-9.92 -9.43)"/><path class="cls-9" d="M650.07,165.11a4.23,4.23,0,1,0,0-7v7Z" transform="translate(-9.92 -9.43)"/><path class="cls-7" d="M573.83,160.39a7.4,7.4,0,1,0-4.24,6.67A7.38,7.38,0,0,0,573.83,160.39Zm-7.49,5.48a4.23,4.23,0,1,1,2.41-7.71v7A4.21,4.21,0,0,1,566.34,165.87Z" transform="translate(-9.92 -9.43)"/><path class="cls-9" d="M568.75,134.64h0c36.22,1.07,40.29-22.16,40.65-29.8,0-.37,0-0.7,0-1C608.32,129.17,578.8,133.8,568.75,134.64Z" transform="translate(-9.92 -9.43)"/><path class="cls-9" d="M650.06,134.64c-10.24-.86-40.66-5.63-40.66-32.2,0,0.48,0,.94,0,1.41,0,0.29,0,.62,0,1,0.36,7.64,4.43,30.87,40.65,29.8h0Z" transform="translate(-9.92 -9.43)"/><path class="cls-9" d="M568.75,158.16a4.23,4.23,0,1,0,0,7v-7Z" transform="translate(-9.92 -9.43)"/><path class="cls-10" d="M636.75,149.75v-0.52a1,1,0,0,1-.16.52h0.16Z" transform="translate(-9.92 -9.43)"/><path class="cls-12" d="M636.75,149.75v-0.52a1,1,0,0,1-.16.52h0.16Z" transform="translate(-9.92 -9.43)"/><path class="cls-10" d="M583.1,148.2h4.82a3.88,3.88,0,0,1,2.65-1.11,4.23,4.23,0,0,1,3.75,2.66h30.17a4.23,4.23,0,0,1,3.75-2.66,3.88,3.88,0,0,1,2.65,1.11h4.82a1,1,0,0,1,1,1V140h0v0.58a1.23,1.23,0,0,1-1.41.78L621.06,141a1.23,1.23,0,0,1-1.37-.84V140H599.12v0.2a1.23,1.23,0,0,1-1.37.84l-14.22.32a1.23,1.23,0,0,1-1.41-.78V140h0v9.25A1,1,0,0,1,583.1,148.2Z" transform="translate(-9.92 -9.43)"/><path class="cls-12" d="M583.1,148.2h4.82a3.88,3.88,0,0,1,2.65-1.11,4.23,4.23,0,0,1,3.75,2.66h30.17a4.23,4.23,0,0,1,3.75-2.66,3.88,3.88,0,0,1,2.65,1.11h4.82a1,1,0,0,1,1,1V140h0v0.58a1.23,1.23,0,0,1-1.41.78L621.06,141a1.23,1.23,0,0,1-1.37-.84V140H599.12v0.2a1.23,1.23,0,0,1-1.37.84l-14.22.32a1.23,1.23,0,0,1-1.41-.78V140h0v9.25A1,1,0,0,1,583.1,148.2Z" transform="translate(-9.92 -9.43)"/><path class="cls-10" d="M582.06,149.23v0.52h0.16A1,1,0,0,1,582.06,149.23Z" transform="translate(-9.92 -9.43)"/><path class="cls-12" d="M582.06,149.23v0.52h0.16A1,1,0,0,1,582.06,149.23Z" transform="translate(-9.92 -9.43)"/><path class="cls-13" d="M629.18,149.23a1,1,0,0,1,1-1h0.68a3.88,3.88,0,0,0-2.65-1.11,4.23,4.23,0,0,0-3.75,2.66,5.6,5.6,0,0,0-.52,2.33c0,2.76,1.91,5,4.27,5s4.27-2.23,4.27-5a5.7,5.7,0,0,0-.3-1.81h-2A1,1,0,0,1,629.18,149.23Z" transform="translate(-9.92 -9.43)"/><path class="cls-13" d="M590.57,147.09a3.88,3.88,0,0,0-2.65,1.11h0.68a1,1,0,0,1,0,2.07h-2a5.7,5.7,0,0,0-.3,1.81c0,2.76,1.91,5,4.27,5s4.27-2.23,4.27-5a5.6,5.6,0,0,0-.52-2.33A4.23,4.23,0,0,0,590.57,147.09Z" transform="translate(-9.92 -9.43)"/><circle class="cls-10" cx="622.59" cy="156.95" r="5.99"/><circle class="cls-14" cx="622.59" cy="156.95" r="5.99"/><circle class="cls-10" cx="576.38" cy="156.95" r="5.99"/><circle class="cls-14" cx="576.38" cy="156.95" r="5.99"/><path class="cls-13" d="M583.1,150.27h5.5a1,1,0,0,0,0-2.07h-5.5a1,1,0,0,0-1,1,1,1,0,0,0,.16.52A1,1,0,0,0,583.1,150.27Z" transform="translate(-9.92 -9.43)"/><path class="cls-13" d="M635.71,148.2h-5.5a1,1,0,0,0,0,2.07h5.5a1,1,0,0,0,.88-0.52,1,1,0,0,0,.16-0.52h0A1,1,0,0,0,635.71,148.2Z" transform="translate(-9.92 -9.43)"/><path class="cls-15" d="M621.06,141l14.22,0.32a1.23,1.23,0,0,0,1.41-.78V140l0-1.21a1.23,1.23,0,0,0-1.37-.84l-14.22-.32a1.23,1.23,0,0,0-1.41.78l0,1.6v0.2A1.23,1.23,0,0,0,621.06,141Z" transform="translate(-9.92 -9.43)"/><path class="cls-15" d="M583.52,141.34l14.22-.32a1.23,1.23,0,0,0,1.37-.84V140l0-1.6a1.23,1.23,0,0,0-1.41-.78l-14.22.32a1.23,1.23,0,0,0-1.37.84l0,1.21v0.58A1.23,1.23,0,0,0,583.52,141.34Z" transform="translate(-9.92 -9.43)"/><polygon class="cls-6" points="599.49 81.47 599.49 81.47 599.49 81.47 599.49 81.47"/><path class="cls-6" d="M609.38,103.84c0-.46,0-0.93,0-1.41h0V90.9l-40.65,11.53-6.65,18,3.32,14.42s1.25,0,3.32-.19C578.8,133.8,608.32,129.17,609.38,103.84Z" transform="translate(-9.92 -9.43)"/><path class="cls-6" d="M609.41,102.44h0c0,26.56,30.42,31.34,40.66,32.2,2.07,0.17,3.32.19,3.32,0.19l3.32-14.42-6.65-18L609.41,90.9h0v11.54Z" transform="translate(-9.92 -9.43)"/></g><g class="cls-36"><path class="cls-20" d="M118.41,609.69l0.8-.78H118.5l-0.09,0v0.75Z" transform="translate(-9.92 -9.43)"/><path class="cls-20" d="M94.64,608.94l-0.09,0H93.84l0.8,0.78v-0.75Z" transform="translate(-9.92 -9.43)"/><path class="cls-7" d="M107.3,620.51l7-6.79a41.92,41.92,0,0,1-15.5,0l7,6.8,0.77,0.14Z" transform="translate(-9.92 -9.43)"/><path class="cls-9" d="M114.28,613.72l4.13-4v-0.75a40.33,40.33,0,0,1-23.77,0v0.75l4.13,4A41.92,41.92,0,0,0,114.28,613.72Z" transform="translate(-9.92 -9.43)"/><path class="cls-8" d="M127.06,629.55A7.79,7.79,0,0,1,132,617.41a11.49,11.49,0,0,0-1.71-.14h-4.56L113,631.06a0.66,0.66,0,0,1-1.12-.23L111,629l-3.58,3.59,4.75,31.35h11.06l-2.8-1.23a1.92,1.92,0,0,1-1.15-1.76V649a1.92,1.92,0,0,1,1.92-1.92h0.3v-2.23a1.09,1.09,0,0,1,1-1.07v0a0.4,0.4,0,0,1,.4-0.4h0.53a0.4,0.4,0,0,1,.4.4v0a1.09,1.09,0,0,1,1,1.07v2.23H134a1.92,1.92,0,0,1,1.92,1.92v11.89a1.92,1.92,0,0,1-1.15,1.76l-2.8,1.23h9.77v-9.75A256.5,256.5,0,0,0,127.06,629.55Z" transform="translate(-9.92 -9.43)"/><path class="cls-8" d="M102.08,629l-0.9,1.85a0.66,0.66,0,0,1-1.12.23L87.32,617.27H82.76a11.48,11.48,0,0,0-1.71.14A7.79,7.79,0,0,1,86,629.55a256.32,256.32,0,0,0-14.68,24.62v9.75h29.61l4.75-31.35Z" transform="translate(-9.92 -9.43)"/><polygon class="cls-8" points="97.4 612.03 97.08 611.38 97.38 611.08 96.61 611.24 97.4 612.03"/><polygon class="cls-8" points="96.61 611.24 95.84 611.09 96.13 611.38 95.81 612.03 96.61 611.24"/><path class="cls-37" d="M122.43,643.8a1.09,1.09,0,0,0-1,1.07v2.23h1V643.8Z" transform="translate(-9.92 -9.43)"/><path class="cls-37" d="M124.72,647.11v-2.23a1.09,1.09,0,0,0-1-1.07v3.31h1Z" transform="translate(-9.92 -9.43)"/><path class="cls-38" d="M135.92,660.92V649a1.92,1.92,0,0,0-1.92-1.92H123.76v4.38a0.4,0.4,0,0,1-.4.4h-0.53a0.4,0.4,0,0,1-.4-0.4v-4.38h-1.25a1.92,1.92,0,0,0-1.92,1.92v11.89a1.92,1.92,0,0,0,1.15,1.76l2.8,1.23H132l2.8-1.23A1.92,1.92,0,0,0,135.92,660.92Z" transform="translate(-9.92 -9.43)"/><path class="cls-31" d="M122.43,651.49a0.4,0.4,0,0,0,.4.4h0.53a0.4,0.4,0,0,0,.4-0.4v-7.72a0.4,0.4,0,0,0-.4-0.4h-0.53a0.4,0.4,0,0,0-.4.4v7.72Z" transform="translate(-9.92 -9.43)"/><polygon class="cls-21" points="96.61 611.24 95.81 612.03 92.16 619.56 95.74 623.14 96.61 617.44 97.47 623.14 101.05 619.56 97.4 612.03 96.61 611.24"/><path class="cls-8" d="M100.06,631.06a0.66,0.66,0,0,0,1.12-.23l0.9-1.85-0.77-.77-0.37.58a0.64,0.64,0,0,1-1,.17l-12.6-11.69Z" transform="translate(-9.92 -9.43)"/><path class="cls-22" d="M100.06,631.06a0.66,0.66,0,0,0,1.12-.23l0.9-1.85-0.77-.77-0.37.58a0.64,0.64,0,0,1-1,.17l-12.6-11.69Z" transform="translate(-9.92 -9.43)"/><polygon class="cls-8" points="96.13 611.38 95.54 612.31 95.81 612.03 96.13 611.38"/><polygon class="cls-22" points="96.13 611.38 95.54 612.31 95.81 612.03 96.13 611.38"/><polygon class="cls-21" points="95.54 612.31 91.39 618.79 92.16 619.56 95.81 612.03 95.54 612.31"/><polygon class="cls-22" points="95.54 612.31 91.39 618.79 92.16 619.56 95.81 612.03 95.54 612.31"/><path class="cls-8" d="M99.92,629a0.64,0.64,0,0,0,1-.17l0.37-.58,4.15-6.48,0.59-.93-0.29-.29-7-6.8-4.13-4-0.8-.78-6.52,8.36Z" transform="translate(-9.92 -9.43)"/><polygon class="cls-8" points="97.67 612.31 97.08 611.38 97.4 612.03 97.67 612.31"/><polygon class="cls-22" points="97.67 612.31 97.08 611.38 97.4 612.03 97.67 612.31"/><path class="cls-8" d="M113.13,629a0.64,0.64,0,0,1-1-.17l-0.37-.58L111,629l0.9,1.85a0.66,0.66,0,0,0,1.12.23l12.74-13.79Z" transform="translate(-9.92 -9.43)"/><path class="cls-22" d="M113.13,629a0.64,0.64,0,0,1-1-.17l-0.37-.58L111,629l0.9,1.85a0.66,0.66,0,0,0,1.12.23l12.74-13.79Z" transform="translate(-9.92 -9.43)"/><polygon class="cls-21" points="97.67 612.31 97.4 612.03 101.05 619.56 101.82 618.79 97.67 612.31"/><polygon class="cls-22" points="97.67 612.31 97.4 612.03 101.05 619.56 101.82 618.79 97.67 612.31"/><path class="cls-8" d="M114.28,613.72l-7,6.79-0.3.29,0.59,0.93,4.15,6.48,0.37,0.58a0.64,0.64,0,0,0,1,.17l12.6-11.69-6.52-8.36-0.8.78Z" transform="translate(-9.92 -9.43)"/><polygon class="cls-21" points="96.61 617.44 95.74 623.14 90.99 654.49 102.22 654.49 97.47 623.14 96.61 617.44"/><path class="cls-10" d="M106.53,610.73a38.36,38.36,0,0,0,11.89-1.79l0.09,0c12.16-4,19.24-14,21.37-24.46a6.17,6.17,0,0,1,.7-11.45v-7.21H138c0.13-3.62.17-17.72-6.76-23.1-5.81-3.85-21.12,6.9-33.78,10.32a31.37,31.37,0,0,1-20.93-1.46A49.69,49.69,0,0,0,75,565.78H72.49V573a6.17,6.17,0,0,1,.7,11.45c2.13,10.51,9.21,20.48,21.37,24.46l0.09,0A38.36,38.36,0,0,0,106.53,610.73Zm25.29-30.95v1.6c0,0.92-.41,1.67-0.92,1.67H120.57c-0.51,0-.92-0.75-0.92-1.67v-1.6c0-.92.41-1.67,0.92-1.67h10.32C131.4,578.11,131.81,578.86,131.81,579.78ZM84.74,558l11.91-.27a1.17,1.17,0,0,1,1.19,1.14l0.06,2.58a1.16,1.16,0,0,1,0,.32h17.33a1.14,1.14,0,0,1,0-.32l0.06-2.58a1.17,1.17,0,0,1,1.19-1.14L128.31,558a1.17,1.17,0,0,1,1.14,1.19l-0.06,2.58h0v8.18h-4a4.69,4.69,0,0,1,.43,2c0,2.31-1.6,4.18-3.58,4.18s-3.58-1.87-3.58-4.18a4.69,4.69,0,0,1,.43-2H108.44a3.05,3.05,0,0,1,1.15,2.37v9.1a3.07,3.07,0,0,1-6.14,0v-9.1a3.05,3.05,0,0,1,1.15-2.37H93.9a4.69,4.69,0,0,1,.43,2c0,2.31-1.6,4.18-3.58,4.18s-3.58-1.87-3.58-4.18a4.69,4.69,0,0,1,.43-2h-4v-8.18h0l-0.06-2.58A1.17,1.17,0,0,1,84.74,558Zm-3.5,23.38v-1.6c0-.92.41-1.67,0.92-1.67H92.48c0.51,0,.92.75,0.92,1.67v1.6c0,0.92-.41,1.67-0.92,1.67H82.16C81.65,583,81.24,582.3,81.24,581.38ZM116,591.89h4.54a10,10,0,0,1-10,10h-8.09a10,10,0,0,1-10-10H116Z" transform="translate(-9.92 -9.43)"/><path class="cls-11" d="M103.46,572.32v9.1a3.07,3.07,0,0,0,6.14,0v-9.1a3.05,3.05,0,0,0-1.15-2.37h-3.83A3.05,3.05,0,0,0,103.46,572.32Z" transform="translate(-9.92 -9.43)"/><path class="cls-8" d="M102.48,601.9h8.09a10,10,0,0,0,10-10H92.47A10,10,0,0,0,102.48,601.9Z" transform="translate(-9.92 -9.43)"/><path class="cls-10" d="M93.4,581.38v-1.6c0-.92-0.41-1.67-0.92-1.67H82.16c-0.51,0-.92.75-0.92,1.67v1.6c0,0.92.41,1.67,0.92,1.67H92.48C93,583,93.4,582.3,93.4,581.38Z" transform="translate(-9.92 -9.43)"/><path class="cls-14" d="M93.4,581.38v-1.6c0-.92-0.41-1.67-0.92-1.67H82.16c-0.51,0-.92.75-0.92,1.67v1.6c0,0.92.41,1.67,0.92,1.67H92.48C93,583,93.4,582.3,93.4,581.38Z" transform="translate(-9.92 -9.43)"/><path class="cls-10" d="M119.65,579.78v1.6c0,0.92.41,1.67,0.92,1.67h10.32c0.51,0,.92-0.75.92-1.67v-1.6c0-.92-0.41-1.67-0.92-1.67H120.57C120.06,578.11,119.65,578.86,119.65,579.78Z" transform="translate(-9.92 -9.43)"/><path class="cls-14" d="M119.65,579.78v1.6c0,0.92.41,1.67,0.92,1.67h10.32c0.51,0,.92-0.75.92-1.67v-1.6c0-.92-0.41-1.67-0.92-1.67H120.57C120.06,578.11,119.65,578.86,119.65,579.78Z" transform="translate(-9.92 -9.43)"/><path class="cls-9" d="M114.78,543.56c-11.64,6.07-25.55,9.55-37.34,5.33a26.3,26.3,0,0,0-.9,2.66A31.37,31.37,0,0,0,97.48,553c12.66-3.42,28-14.17,33.78-10.32C127.79,540,122.59,539.48,114.78,543.56Z" transform="translate(-9.92 -9.43)"/><path class="cls-7" d="M136.32,578.86a6.19,6.19,0,1,0,4.25-5.86A6.17,6.17,0,0,0,136.32,578.86Zm4.25-1.87a3.54,3.54,0,1,1,0,5.82V577Z" transform="translate(-9.92 -9.43)"/><path class="cls-9" d="M146.13,579.9a3.54,3.54,0,0,0-5.56-2.91v5.82A3.54,3.54,0,0,0,146.13,579.9Z" transform="translate(-9.92 -9.43)"/><path class="cls-7" d="M76.73,578.86a6.19,6.19,0,1,0-3.55,5.58A6.18,6.18,0,0,0,76.73,578.86Zm-4.25,4a3.54,3.54,0,1,1,0-5.82v5.82Z" transform="translate(-9.92 -9.43)"/><path class="cls-9" d="M66.92,579.9a3.54,3.54,0,0,0,5.56,2.91V577A3.54,3.54,0,0,0,66.92,579.9Z" transform="translate(-9.92 -9.43)"/><path class="cls-10" d="M96.76,562.64l-11.91.27a1.17,1.17,0,0,1-1.19-1.14h0v8.18h4a3.33,3.33,0,0,1,6.29,0h10.71a3,3,0,0,1,3.83,0h10.71a3.33,3.33,0,0,1,6.29,0h4v-8.18h0a1.17,1.17,0,0,1-1.19,1.14l-11.91-.27a1.16,1.16,0,0,1-1.1-.87H97.86A1.16,1.16,0,0,1,96.76,562.64Z" transform="translate(-9.92 -9.43)"/><path class="cls-12" d="M96.76,562.64l-11.91.27a1.17,1.17,0,0,1-1.19-1.14h0v8.18h4a3.33,3.33,0,0,1,6.29,0h10.71a3,3,0,0,1,3.83,0h10.71a3.33,3.33,0,0,1,6.29,0h4v-8.18h0a1.17,1.17,0,0,1-1.19,1.14l-11.91-.27a1.16,1.16,0,0,1-1.1-.87H97.86A1.16,1.16,0,0,1,96.76,562.64Z" transform="translate(-9.92 -9.43)"/><path class="cls-11" d="M104.61,569.95h3.83A3,3,0,0,0,104.61,569.95Z" transform="translate(-9.92 -9.43)"/><path class="cls-12" d="M104.61,569.95h3.83A3,3,0,0,0,104.61,569.95Z" transform="translate(-9.92 -9.43)"/><path class="cls-15" d="M76.54,551.55a26.3,26.3,0,0,1,.9-2.66c11.79,4.22,25.7.75,37.34-5.33,7.8-4.07,13-3.56,16.47-.87,6.93,5.38,6.89,19.47,6.76,23.1h3c4.4-8.69,3.6-31.27-.48-36.62C119.8,502,93.13,535,89.29,514.11c-20.13-6.83-30.47,19.11-19.16,30.46-0.25,7.34.32,15.92,2.06,21.21H75A49.69,49.69,0,0,1,76.54,551.55Z" transform="translate(-9.92 -9.43)"/><path class="cls-16" d="M122.3,567.72a3.54,3.54,0,0,0-3.14,2.23,4.69,4.69,0,0,0-.43,2c0,2.31,1.6,4.18,3.58,4.18s3.58-1.87,3.58-4.18a4.69,4.69,0,0,0-.43-2A3.54,3.54,0,0,0,122.3,567.72Z" transform="translate(-9.92 -9.43)"/><path class="cls-16" d="M90.75,567.72a3.54,3.54,0,0,0-3.14,2.23,4.69,4.69,0,0,0-.43,2c0,2.31,1.6,4.18,3.58,4.18s3.58-1.87,3.58-4.18a4.69,4.69,0,0,0-.43-2A3.54,3.54,0,0,0,90.75,567.72Z" transform="translate(-9.92 -9.43)"/><path class="cls-15" d="M84.85,562.91l11.91-.27a1.19,1.19,0,0,0,1.14-1.19l-0.06-2.58a1.17,1.17,0,0,0-1.19-1.14L84.74,558a1.17,1.17,0,0,0-1.14,1.19l0.06,2.58A1.17,1.17,0,0,0,84.85,562.91Z" transform="translate(-9.92 -9.43)"/><path class="cls-15" d="M116.29,562.64l11.91,0.27a1.17,1.17,0,0,0,1.19-1.14l0.06-2.58a1.17,1.17,0,0,0-1.14-1.19l-11.91-.27a1.17,1.17,0,0,0-1.19,1.14l-0.06,2.58a1.14,1.14,0,0,0,0,.32A1.16,1.16,0,0,0,116.29,562.64Z" transform="translate(-9.92 -9.43)"/><path class="cls-8" d="M86,629.55a7.8,7.8,0,0,0-12.77-9,277.16,277.16,0,0,0-24,43.33H66.42c1.63-3.43,3.28-6.69,4.89-9.75A256.32,256.32,0,0,1,86,629.55Z" transform="translate(-9.92 -9.43)"/><path class="cls-8" d="M132,617.41a7.79,7.79,0,0,0-4.94,12.14,256.5,256.5,0,0,1,14.68,24.61c1.61,3.06,3.26,6.32,4.89,9.75h17.16a277.2,277.2,0,0,0-24-43.33A7.8,7.8,0,0,0,132,617.41Z" transform="translate(-9.92 -9.43)"/></g><g class="cls-39"><path class="cls-40" d="M362.23,228a4.72,4.72,0,0,0-.76.07,4.64,4.64,0,0,0-3,1.92,160.67,160.67,0,0,0-9,15h7.28v-10A7.09,7.09,0,0,1,362.23,228Z" transform="translate(-9.92 -9.43)"/><path class="cls-40" d="M397,228.1a4.72,4.72,0,0,0-.76-0.07,7.09,7.09,0,0,1,5.53,6.91v10h7.28a160.73,160.73,0,0,0-9-15A4.64,4.64,0,0,0,397,228.1Z" transform="translate(-9.92 -9.43)"/><path class="cls-40" d="M396.27,228a7.1,7.1,0,0,0-1.5-.17v4.89a8.72,8.72,0,0,1-8.72,8.72H372.45a8.72,8.72,0,0,1-8.72-8.72v-4.89a7.1,7.1,0,0,0-7,7.09v10h45.1v-10A7.09,7.09,0,0,0,396.27,228Z" transform="translate(-9.92 -9.43)"/><path class="cls-10" d="M363.73,232.75a8.72,8.72,0,0,0,8.72,8.72H386a8.72,8.72,0,0,0,8.72-8.72v-4.89h-8.22v1.23H371.79v-1.23h-8.06v4.89Z" transform="translate(-9.92 -9.43)"/><path class="cls-10" d="M371.79,229.08h14.75V225a25.07,25.07,0,0,1-14.75,0v4.11Z" transform="translate(-9.92 -9.43)"/><path class="cls-9" d="M386.54,225v-2.39a25,25,0,0,1-14.75-.05V225A25.07,25.07,0,0,0,386.54,225Z" transform="translate(-9.92 -9.43)"/><path class="cls-15" d="M366.8,162.11a29.42,29.42,0,0,1,24.88,0,1.62,1.62,0,0,1,.9,1.14,13.73,13.73,0,1,0-26.68,0A1.62,1.62,0,0,1,366.8,162.11Z" transform="translate(-9.92 -9.43)"/><path class="cls-35" d="M379.25,161.49a26.94,26.94,0,0,1,12.95,3.29l0.24-.44a1.58,1.58,0,0,0,.15-1.09,1.62,1.62,0,0,0-.9-1.14,29.42,29.42,0,0,0-24.88,0,1.62,1.62,0,0,0-.9,1.14,1.58,1.58,0,0,0,.15,1.09l0.24,0.44A26.94,26.94,0,0,1,379.25,161.49Z" transform="translate(-9.92 -9.43)"/><path class="cls-15" d="M358.13,200.25v-9.74h0c-1.08.09-1.73,0.1-1.73,0.1l-1.73-7.49,3.45-9.33,21.12-6h0l21.12,6,3.45,9.33-1.73,7.49s-0.65,0-1.73-.1h0v9.74a3.81,3.81,0,0,1,3.13.33,27.07,27.07,0,1,0-48.49,0A3.81,3.81,0,0,1,358.13,200.25Z" transform="translate(-9.92 -9.43)"/><path class="cls-10" d="M386.54,222.58a19.76,19.76,0,0,0,13.39-15.22,3.83,3.83,0,0,1,.43-7.1v-9.74c-18.82.56-20.93-11.51-21.12-15.48-0.19,4-2.3,16-21.12,15.48v9.74a3.83,3.83,0,0,1,.43,7.1,19.77,19.77,0,0,0,13.23,15.17A25,25,0,0,0,386.54,222.58Zm-16-10.6H388a6.21,6.21,0,0,1-6.21,6.21h-5A6.21,6.21,0,0,1,370.52,212Zm7.06-7.35v-3.4a1.66,1.66,0,1,1,3.31,0v3.4A1.66,1.66,0,0,1,377.59,204.63Zm13.66,5.49a3.11,3.11,0,1,1,3.11-3.11A3.11,3.11,0,0,1,391.25,210.11Zm-26.21-12h0v-4.81h0v-0.63a0.64,0.64,0,0,1,.71-0.44l7.39-.17a0.64,0.64,0,0,1,.73.41l0,0.83h10.69l0-.83a0.64,0.64,0,0,1,.73-0.41l7.39,0.17a0.64,0.64,0,0,1,.71.44v0.63h0v4.81h0v0.27h-0.08a0.53,0.53,0,0,1-.46.27h-1.82a3,3,0,0,1,.16.94,2.25,2.25,0,1,1-4.44,0,2.91,2.91,0,0,1,.27-1.21H371.41a2.91,2.91,0,0,1,.27,1.21,2.25,2.25,0,1,1-4.44,0,3,3,0,0,1,.16-0.94h-1.82a0.53,0.53,0,0,1-.46-0.27H365v-0.27Zm2.2,5.8a3.11,3.11,0,1,1-3.11,3.11A3.11,3.11,0,0,1,367.24,203.89Z" transform="translate(-9.92 -9.43)"/><path class="cls-11" d="M380.9,204.63v-3.4a1.66,1.66,0,1,0-3.31,0v3.4A1.66,1.66,0,0,0,380.9,204.63Z" transform="translate(-9.92 -9.43)"/><path class="cls-8" d="M376.74,218.18h5A6.21,6.21,0,0,0,388,212H370.52A6.21,6.21,0,0,0,376.74,218.18Z" transform="translate(-9.92 -9.43)"/><path class="cls-7" d="M400.36,200.25a3.81,3.81,0,1,0,1.2-.19A3.83,3.83,0,0,0,400.36,200.25Zm3.45,4.28a2.2,2.2,0,0,1-3.45,1.81v-3.61A2.2,2.2,0,0,1,403.82,204.54Z" transform="translate(-9.92 -9.43)"/><path class="cls-9" d="M400.37,206.34a2.2,2.2,0,1,0,0-3.61v3.61Z" transform="translate(-9.92 -9.43)"/><path class="cls-7" d="M360.76,203.89a3.84,3.84,0,1,0-2.2,3.46A3.83,3.83,0,0,0,360.76,203.89Zm-3.89,2.84a2.2,2.2,0,1,1,1.25-4v3.61A2.19,2.19,0,0,1,356.87,206.73Z" transform="translate(-9.92 -9.43)"/><path class="cls-9" d="M358.12,190.51h0c18.82,0.56,20.93-11.51,21.12-15.48,0-.19,0-0.36,0-0.52C378.68,187.67,363.35,190.07,358.12,190.51Z" transform="translate(-9.92 -9.43)"/><path class="cls-9" d="M400.37,190.51c-5.32-.44-21.12-2.93-21.12-16.73,0,0.25,0,.49,0,0.73s0,0.32,0,.52c0.19,4,2.3,16,21.12,15.48h0Z" transform="translate(-9.92 -9.43)"/><path class="cls-9" d="M358.12,202.73a2.2,2.2,0,1,0,0,3.61v-3.61Z" transform="translate(-9.92 -9.43)"/><path class="cls-10" d="M365,198.09v0.27h0.08A0.52,0.52,0,0,1,365,198.09Z" transform="translate(-9.92 -9.43)"/><path class="cls-12" d="M365,198.09v0.27h0.08A0.52,0.52,0,0,1,365,198.09Z" transform="translate(-9.92 -9.43)"/><path class="cls-10" d="M365.58,197.56h2.5a2,2,0,0,1,1.38-.57,2.2,2.2,0,0,1,1.95,1.38h15.67A2.2,2.2,0,0,1,389,197a2,2,0,0,1,1.38.57h2.5a0.54,0.54,0,0,1,.54.54v-4.81h0v0.3a0.64,0.64,0,0,1-.73.41l-7.39-.17a0.64,0.64,0,0,1-.71-0.44v-0.1H373.9v0.1a0.64,0.64,0,0,1-.71.44l-7.39.17a0.64,0.64,0,0,1-.73-0.41v-0.3h0v4.81A0.54,0.54,0,0,1,365.58,197.56Z" transform="translate(-9.92 -9.43)"/><path class="cls-12" d="M365.58,197.56h2.5a2,2,0,0,1,1.38-.57,2.2,2.2,0,0,1,1.95,1.38h15.67A2.2,2.2,0,0,1,389,197a2,2,0,0,1,1.38.57h2.5a0.54,0.54,0,0,1,.54.54v-4.81h0v0.3a0.64,0.64,0,0,1-.73.41l-7.39-.17a0.64,0.64,0,0,1-.71-0.44v-0.1H373.9v0.1a0.64,0.64,0,0,1-.71.44l-7.39.17a0.64,0.64,0,0,1-.73-0.41v-0.3h0v4.81A0.54,0.54,0,0,1,365.58,197.56Z" transform="translate(-9.92 -9.43)"/><path class="cls-10" d="M393.45,198.36v-0.27a0.52,0.52,0,0,1-.08.27h0.08Z" transform="translate(-9.92 -9.43)"/><path class="cls-12" d="M393.45,198.36v-0.27a0.52,0.52,0,0,1-.08.27h0.08Z" transform="translate(-9.92 -9.43)"/><path class="cls-13" d="M389.52,198.09h0a0.54,0.54,0,0,1,.54-0.54h0.35A2,2,0,0,0,389,197a2.2,2.2,0,0,0-1.95,1.38,2.91,2.91,0,0,0-.27,1.21,2.25,2.25,0,1,0,4.44,0,3,3,0,0,0-.16-0.94h-1A0.54,0.54,0,0,1,389.52,198.09Z" transform="translate(-9.92 -9.43)"/><path class="cls-13" d="M369.46,197a2,2,0,0,0-1.38.57h0.35a0.54,0.54,0,0,1,.54.54h0a0.54,0.54,0,0,1-.54.54h-1a3,3,0,0,0-.16.94,2.25,2.25,0,1,0,4.44,0,2.91,2.91,0,0,0-.27-1.21A2.2,2.2,0,0,0,369.46,197Z" transform="translate(-9.92 -9.43)"/><circle class="cls-10" cx="381.33" cy="197.58" r="3.11"/><circle class="cls-14" cx="381.33" cy="197.58" r="3.11"/><circle class="cls-10" cx="357.32" cy="197.58" r="3.11"/><circle class="cls-14" cx="357.32" cy="197.58" r="3.11"/><path class="cls-13" d="M365.58,198.63h2.86a0.54,0.54,0,0,0,.54-0.54h0a0.54,0.54,0,0,0-.54-0.54h-2.86a0.54,0.54,0,0,0-.54.54h0a0.52,0.52,0,0,0,.08.27A0.53,0.53,0,0,0,365.58,198.63Z" transform="translate(-9.92 -9.43)"/><path class="cls-13" d="M392.91,197.56h-2.86a0.54,0.54,0,0,0-.54.54h0a0.54,0.54,0,0,0,.54.54h2.86a0.53,0.53,0,0,0,.46-0.27,0.52,0.52,0,0,0,.08-0.27h0A0.54,0.54,0,0,0,392.91,197.56Z" transform="translate(-9.92 -9.43)"/><path class="cls-15" d="M385.3,193.83l7.39,0.17a0.64,0.64,0,0,0,.73-0.41v-0.93a0.64,0.64,0,0,0-.71-0.44l-7.39-.17a0.64,0.64,0,0,0-.73.41l0,0.83v0.1A0.64,0.64,0,0,0,385.3,193.83Z" transform="translate(-9.92 -9.43)"/><path class="cls-15" d="M365.8,194l7.39-.17a0.64,0.64,0,0,0,.71-0.44v-0.1l0-.83a0.64,0.64,0,0,0-.73-0.41l-7.39.17a0.64,0.64,0,0,0-.71.44v0.93A0.64,0.64,0,0,0,365.8,194Z" transform="translate(-9.92 -9.43)"/><polygon class="cls-15" points="369.32 158.37 369.32 158.37 369.32 158.37 369.32 158.37"/><path class="cls-15" d="M379.23,174.51c0-.24,0-0.48,0-0.73h0v-6l-21.12,6-3.45,9.33,1.73,7.49s0.65,0,1.73-.1C363.35,190.07,378.68,187.67,379.23,174.51Z" transform="translate(-9.92 -9.43)"/><path class="cls-15" d="M379.25,173.78h0c0,13.8,15.8,16.28,21.12,16.73,1.08,0.09,1.73.1,1.73,0.1l1.73-7.49-3.45-9.33-21.12-6h0v6Z" transform="translate(-9.92 -9.43)"/></g><g class="cls-41"><path class="cls-42" d="M974.79,626.56a7.57,7.57,0,0,1,1.08-.1,11.36,11.36,0,0,1,2.51-.29h13.06v-8.68c-12.13-3.93-19.19-13.86-21.31-24.33a6.13,6.13,0,0,1-5.7-10.84,43.14,43.14,0,0,1-4.51-19.26v60.39a5.81,5.81,0,0,0,5.81,5.81h4.52A7.41,7.41,0,0,1,974.79,626.56Z" transform="translate(-9.92 -9.43)"/><path class="cls-42" d="M1045.12,587.61a6.12,6.12,0,0,1-8.74,5.55c-2.12,10.47-9.18,20.4-21.31,24.33v8.68h12.83a11.36,11.36,0,0,1,2.48.28,7.54,7.54,0,0,1,1.34.11,7.41,7.41,0,0,1,4.54,2.7h4.52a5.81,5.81,0,0,0,5.81-5.81V563.05a43.14,43.14,0,0,1-4.51,19.26A6.13,6.13,0,0,1,1045.12,587.61Z" transform="translate(-9.92 -9.43)"/><path class="cls-35" d="M1036.26,629.26a7.41,7.41,0,0,0-4.54-2.7,7.54,7.54,0,0,0-1.34-.11,11.35,11.35,0,0,1,8.87,11.07v25.82l1.21,2.34h16.68a272.53,272.53,0,0,0-20.6-36.06C1036.46,629.5,1036.36,629.38,1036.26,629.26Z" transform="translate(-9.92 -9.43)"/><path class="cls-35" d="M967,637.52a11.35,11.35,0,0,1,8.84-11.07,7.57,7.57,0,0,0-1.08.1,7.41,7.41,0,0,0-4.54,2.7c-0.1.12-.2,0.24-0.29,0.37a272.5,272.5,0,0,0-20.6,36.06h16.68l1-1.9V637.52Z" transform="translate(-9.92 -9.43)"/><path class="cls-35" d="M1039.25,637.52a11.38,11.38,0,0,0-11.35-11.35h-11.47v6.17a13.28,13.28,0,0,1-13.28,13.28h0a13.28,13.28,0,0,1-13.28-13.28v-6.17H978.38A11.39,11.39,0,0,0,967,637.52v28.16h72.21V637.52Z" transform="translate(-9.92 -9.43)"/><path class="cls-10" d="M1015.06,626.17v1.77H991.45v-1.77h-1.59v6.17a13.28,13.28,0,0,0,13.28,13.28h0a13.28,13.28,0,0,0,13.28-13.28v-6.17h-1.36Z" transform="translate(-9.92 -9.43)"/><path class="cls-42" d="M967.53,581.47a6.12,6.12,0,0,1,1.92.31V570.31h0v-1.66h-1.66V548.42c0-5.62,6.35-11.81,12.13-11.81h46.69c5.78,0,12.1,6.28,12.1,11.9v26.87a13.52,13.52,0,0,1-1.64-2.56h0v9a6.09,6.09,0,0,1,5,.53,43.34,43.34,0,1,0-77.64,0A6.1,6.1,0,0,1,967.53,581.47Z" transform="translate(-9.92 -9.43)"/><path class="cls-7" d="M991.45,627.94h23.61v-6.58a40.15,40.15,0,0,1-23.61,0v6.58Z" transform="translate(-9.92 -9.43)"/><path class="cls-9" d="M1015.06,621.36v-3.88a40.06,40.06,0,0,1-23.61,0v3.88A40.15,40.15,0,0,0,1015.06,621.36Z" transform="translate(-9.92 -9.43)"/><path class="cls-10" d="M990.82,582.41h4.85a3.37,3.37,0,0,1,3,1.83,5,5,0,0,1,2-1.38,2.65,2.65,0,0,1,5.21,0,5,5,0,0,1,2,1.38,3.37,3.37,0,0,1,3-1.83h4.87a4.71,4.71,0,0,1-.32-1.71,4.66,4.66,0,0,1,.43-1.94H990.71a4.66,4.66,0,0,1,.43,1.94A4.71,4.71,0,0,1,990.82,582.41Z" transform="translate(-9.92 -9.43)"/><path class="cls-10" d="M1027.46,592.59a5,5,0,0,1,0,.6,1.72,1.72,0,0,0,1.49-1.69v-5.71a1.7,1.7,0,0,0,0-.31l-5.13,2.29A5,5,0,0,1,1027.46,592.59Z" transform="translate(-9.92 -9.43)"/><path class="cls-10" d="M997.35,585.48l-9.3,4.16a4.88,4.88,0,0,1,.93,3.57h6.69a1.72,1.72,0,0,0,1.72-1.72v-5.71A1.73,1.73,0,0,0,997.35,585.48Z" transform="translate(-9.92 -9.43)"/><path class="cls-10" d="M1018,590.32l-6.47,2.89h6A4.85,4.85,0,0,1,1018,590.32Z" transform="translate(-9.92 -9.43)"/><path class="cls-10" d="M1015.06,617.48c12.13-3.93,19.19-13.86,21.31-24.33a6.13,6.13,0,0,1,.69-11.37v-9c-6.53-7.93-.72-19.68-10.22-22.58-6.1-1.86-14.53,1.57-24.26,10.65-4.64,4.33-11.33,6.67-17.49,7.94l8.4-.19a1,1,0,0,1,1.17.65l0,1.33h17.11l0-1.33a1,1,0,0,1,1.17-.65l11.83,0.27a1,1,0,0,1,1.14.7l0,1h0v8.13h-0.13a0.85,0.85,0,0,1-.73.43h-2.91a4.68,4.68,0,0,1-.07,3.22h5a3.38,3.38,0,0,1,3.38,3.38v5.71a3.38,3.38,0,0,1-3.38,3.38h-0.28a5,5,0,0,1-8.85,0h-7.22a3.38,3.38,0,0,1-3.38-3.38v-3.93a3.55,3.55,0,0,0-1.54-2.81v4a2.65,2.65,0,1,1-5.3,0v-4a3.58,3.58,0,0,0-1.56,2.81v3.94a3.38,3.38,0,0,1-3.38,3.38h-7.2a5,5,0,0,1-8.85,0H979.3a3.38,3.38,0,0,1-3.38-3.38v-5.71a3.38,3.38,0,0,1,3.38-3.38h5.06a4.68,4.68,0,0,1-.07-3.22h-2.91a0.85,0.85,0,0,1-.73-0.43h-0.13v-8.13h0l0-1a73,73,0,0,1-11.08.69v11.47a6.13,6.13,0,0,1,.69,11.37c2.12,10.47,9.18,20.4,21.31,24.33A40.06,40.06,0,0,0,1015.06,617.48Zm-2.35-16.94h4.51a9.94,9.94,0,0,1-9.94,9.94h-8a9.94,9.94,0,0,1-9.94-9.94h23.42Z" transform="translate(-9.92 -9.43)"/><path class="cls-11" d="M1003.25,580.7a2.66,2.66,0,0,0-2.6,2.16,7.67,7.67,0,0,1,5.21,0A2.66,2.66,0,0,0,1003.25,580.7Z" transform="translate(-9.92 -9.43)"/><path class="cls-11" d="M1000.6,584.74v4a2.65,2.65,0,1,0,5.3,0v-4A5.52,5.52,0,0,0,1000.6,584.74Z" transform="translate(-9.92 -9.43)"/><path class="cls-8" d="M999.24,610.49h8a9.94,9.94,0,0,0,9.94-9.94H989.29A9.94,9.94,0,0,0,999.24,610.49Z" transform="translate(-9.92 -9.43)"/><path class="cls-7" d="M1032.85,587.61a6.14,6.14,0,1,0,4.22-5.82A6.13,6.13,0,0,0,1032.85,587.61Zm6.23-2.49a3.52,3.52,0,1,1-2,6.41v-5.78A3.5,3.5,0,0,1,1039.08,585.12Z" transform="translate(-9.92 -9.43)"/><path class="cls-9" d="M1037.07,591.53a3.52,3.52,0,1,0,0-5.78v5.78Z" transform="translate(-9.92 -9.43)"/><path class="cls-7" d="M973.66,587.61a6.15,6.15,0,1,0-3.53,5.55A6.13,6.13,0,0,0,973.66,587.61Zm-6.23,4.55a3.52,3.52,0,1,1,2-6.41v5.78A3.5,3.5,0,0,1,967.43,592.16Z" transform="translate(-9.92 -9.43)"/><path class="cls-9" d="M969.44,585.75a3.52,3.52,0,1,0,0,5.78v-5.78Z" transform="translate(-9.92 -9.43)"/><path class="cls-10" d="M993.56,571.49l-11.83.27a1,1,0,0,1-1.17-.65v-0.48h0v7.7a0.86,0.86,0,0,1,.86-0.86h4a3.22,3.22,0,0,1,2.2-.92,3.51,3.51,0,0,1,3.12,2.21h25.09a3.52,3.52,0,0,1,3.12-2.21,3.22,3.22,0,0,1,2.21.92h4a0.86,0.86,0,0,1,.86.86v-7.7h0v0.48a1,1,0,0,1-1.17.65l-11.83-.27a1,1,0,0,1-1.14-.7v-0.16H994.7v0.16A1,1,0,0,1,993.56,571.49Z" transform="translate(-9.92 -9.43)"/><path class="cls-12" d="M993.56,571.49l-11.83.27a1,1,0,0,1-1.17-.65v-0.48h0v7.7a0.86,0.86,0,0,1,.86-0.86h4a3.22,3.22,0,0,1,2.2-.92,3.51,3.51,0,0,1,3.12,2.21h25.09a3.52,3.52,0,0,1,3.12-2.21,3.22,3.22,0,0,1,2.21.92h4a0.86,0.86,0,0,1,.86.86v-7.7h0v0.48a1,1,0,0,1-1.17.65l-11.83-.27a1,1,0,0,1-1.14-.7v-0.16H994.7v0.16A1,1,0,0,1,993.56,571.49Z" transform="translate(-9.92 -9.43)"/><path class="cls-10" d="M980.51,578.75h0.13a0.84,0.84,0,0,1-.13-0.43v0.43Z" transform="translate(-9.92 -9.43)"/><path class="cls-12" d="M980.51,578.75h0.13a0.84,0.84,0,0,1-.13-0.43v0.43Z" transform="translate(-9.92 -9.43)"/><path class="cls-10" d="M1026,578.75v-0.43a0.84,0.84,0,0,1-.13.43H1026Z" transform="translate(-9.92 -9.43)"/><path class="cls-12" d="M1026,578.75v-0.43a0.84,0.84,0,0,1-.13.43H1026Z" transform="translate(-9.92 -9.43)"/><path class="cls-13" d="M1019.7,578.33a0.86,0.86,0,0,1,.86-0.86h0.57a3.22,3.22,0,0,0-2.21-.92,3.52,3.52,0,0,0-3.12,2.21,4.66,4.66,0,0,0-.43,1.94,4.71,4.71,0,0,0,.32,1.71h6.46a4.68,4.68,0,0,0,.07-3.22h-1.66A0.86,0.86,0,0,1,1019.7,578.33Z" transform="translate(-9.92 -9.43)"/><path class="cls-13" d="M991.14,580.7a4.66,4.66,0,0,0-.43-1.94,3.51,3.51,0,0,0-3.12-2.21,3.22,3.22,0,0,0-2.2.92h0.57a0.86,0.86,0,1,1,0,1.72h-1.66a4.68,4.68,0,0,0,.07,3.22h6.45A4.71,4.71,0,0,0,991.14,580.7Z" transform="translate(-9.92 -9.43)"/><path class="cls-10" d="M1023.74,587.77l-5.7,2.55a4.85,4.85,0,0,0-.51,2.89h9.65l0.23,0A4.94,4.94,0,0,0,1023.74,587.77Z" transform="translate(-9.92 -9.43)"/><path class="cls-14" d="M1023.74,587.77l-5.7,2.55a4.85,4.85,0,0,0-.51,2.89h9.65l0.23,0A4.94,4.94,0,0,0,1023.74,587.77Z" transform="translate(-9.92 -9.43)"/><path class="cls-10" d="M1022.47,597.57a5,5,0,0,0,4.42-2.7H1018A5,5,0,0,0,1022.47,597.57Z" transform="translate(-9.92 -9.43)"/><path class="cls-14" d="M1022.47,597.57a5,5,0,0,0,4.42-2.7H1018A5,5,0,0,0,1022.47,597.57Z" transform="translate(-9.92 -9.43)"/><path class="cls-10" d="M984,597.57a5,5,0,0,0,4.42-2.7h-8.85A5,5,0,0,0,984,597.57Z" transform="translate(-9.92 -9.43)"/><path class="cls-14" d="M984,597.57a5,5,0,0,0,4.42-2.7h-8.85A5,5,0,0,0,984,597.57Z" transform="translate(-9.92 -9.43)"/><path class="cls-10" d="M988,589.64l-8,3.57H989A4.88,4.88,0,0,0,988,589.64Z" transform="translate(-9.92 -9.43)"/><path class="cls-14" d="M988,589.64l-8,3.57H989A4.88,4.88,0,0,0,988,589.64Z" transform="translate(-9.92 -9.43)"/><path class="cls-13" d="M986.81,578.33a0.86,0.86,0,0,0-.86-0.86h-4.57a0.86,0.86,0,0,0-.86.86,0.84,0.84,0,0,0,.13.43,0.85,0.85,0,0,0,.73.43h4.57A0.86,0.86,0,0,0,986.81,578.33Z" transform="translate(-9.92 -9.43)"/><path class="cls-13" d="M1025.13,577.46h-4.57a0.86,0.86,0,1,0,0,1.72h4.57a0.85,0.85,0,0,0,.73-0.43,0.84,0.84,0,0,0,.13-0.43A0.86,0.86,0,0,0,1025.13,577.46Z" transform="translate(-9.92 -9.43)"/><path class="cls-9" d="M980.52,569.62h0a1,1,0,0,1,1.14-.7l3.43-.08c6.16-1.27,12.85-3.62,17.49-7.94,9.73-9.08,18.16-12.51,24.26-10.65,9.5,2.9,3.69,14.65,10.22,22.58h0c-4.2-8.39-1.65-21.62-10.22-24.24-6.1-1.86-14.53,1.57-24.26,10.65-10.9,10.17-33.14,9.41-33.14,9.41h0v1.66h0A73,73,0,0,0,980.52,569.62Z" transform="translate(-9.92 -9.43)"/><path class="cls-42" d="M1002.59,559.24c9.73-9.08,18.16-12.51,24.26-10.65,8.57,2.61,6,15.84,10.22,24.24a13.52,13.52,0,0,0,1.64,2.56V548.51c0-5.62-6.32-11.9-12.1-11.9H979.91c-5.78,0-12.13,6.19-12.13,11.81v20.23h1.66S991.69,569.41,1002.59,559.24Z" transform="translate(-9.92 -9.43)"/><path class="cls-15" d="M1013,571.49l11.83,0.27a1,1,0,0,0,1.17-.65v-0.48l0-1a1,1,0,0,0-1.14-.7l-11.83-.27a1,1,0,0,0-1.17.65l0,1.33v0.16A1,1,0,0,0,1013,571.49Z" transform="translate(-9.92 -9.43)"/><path class="cls-15" d="M980.52,569.62h0l0,1v0.48a1,1,0,0,0,1.17.65l11.83-.27a1,1,0,0,0,1.14-.7v-0.16l0-1.33a1,1,0,0,0-1.17-.65l-8.4.19-3.43.08A1,1,0,0,0,980.52,569.62Z" transform="translate(-9.92 -9.43)"/><path class="cls-10" d="M984,587.61a5,5,0,0,1,4,2l9.3-4.16a1.72,1.72,0,0,0-1.69-1.41h-6a3.11,3.11,0,0,1-4.11,0H979.3a1.72,1.72,0,0,0-1.72,1.72v5.71a1.71,1.71,0,0,0,1.51,1.7A5,5,0,0,1,984,587.61Z" transform="translate(-9.92 -9.43)"/><path class="cls-24" d="M984,587.61a5,5,0,0,1,4,2l9.3-4.16a1.72,1.72,0,0,0-1.69-1.41h-6a3.11,3.11,0,0,1-4.11,0H979.3a1.72,1.72,0,0,0-1.72,1.72v5.71a1.71,1.71,0,0,0,1.51,1.7A5,5,0,0,1,984,587.61Z" transform="translate(-9.92 -9.43)"/><path class="cls-13" d="M989.65,584.07h-4.11A3.11,3.11,0,0,0,989.65,584.07Z" transform="translate(-9.92 -9.43)"/><path class="cls-24" d="M989.65,584.07h-4.11A3.11,3.11,0,0,0,989.65,584.07Z" transform="translate(-9.92 -9.43)"/><path class="cls-10" d="M984,587.61a5,5,0,0,0-4.94,5.58l0.21,0h0.75l8-3.57A5,5,0,0,0,984,587.61Z" transform="translate(-9.92 -9.43)"/><path class="cls-14" d="M984,587.61a5,5,0,0,0-4.94,5.58l0.21,0h0.75l8-3.57A5,5,0,0,0,984,587.61Z" transform="translate(-9.92 -9.43)"/><path class="cls-24" d="M984,587.61a5,5,0,0,0-4.94,5.58l0.21,0h0.75l8-3.57A5,5,0,0,0,984,587.61Z" transform="translate(-9.92 -9.43)"/><path class="cls-10" d="M1010.82,593.21h0.75l6.47-2.89a5,5,0,0,1,5.7-2.55l5.13-2.29a1.72,1.72,0,0,0-1.69-1.41H1021a3.11,3.11,0,0,1-4.11,0h-6a1.72,1.72,0,0,0-1.72,1.72v5.71A1.72,1.72,0,0,0,1010.82,593.21Z" transform="translate(-9.92 -9.43)"/><path class="cls-24" d="M1010.82,593.21h0.75l6.47-2.89a5,5,0,0,1,5.7-2.55l5.13-2.29a1.72,1.72,0,0,0-1.69-1.41H1021a3.11,3.11,0,0,1-4.11,0h-6a1.72,1.72,0,0,0-1.72,1.72v5.71A1.72,1.72,0,0,0,1010.82,593.21Z" transform="translate(-9.92 -9.43)"/><path class="cls-13" d="M1021,584.07h-4.11A3.11,3.11,0,0,0,1021,584.07Z" transform="translate(-9.92 -9.43)"/><path class="cls-24" d="M1021,584.07h-4.11A3.11,3.11,0,0,0,1021,584.07Z" transform="translate(-9.92 -9.43)"/><path class="cls-10" d="M1022.47,587.61a5,5,0,0,0-4.43,2.71l5.7-2.55A5,5,0,0,0,1022.47,587.61Z" transform="translate(-9.92 -9.43)"/><path class="cls-14" d="M1022.47,587.61a5,5,0,0,0-4.43,2.71l5.7-2.55A5,5,0,0,0,1022.47,587.61Z" transform="translate(-9.92 -9.43)"/><path class="cls-24" d="M1022.47,587.61a5,5,0,0,0-4.43,2.71l5.7-2.55A5,5,0,0,0,1022.47,587.61Z" transform="translate(-9.92 -9.43)"/><path class="cls-43" d="M998.21,588.38h0a0.83,0.83,0,0,1-.82-0.84v3.95a1.72,1.72,0,0,1-1.72,1.72H979.3l-0.21,0a1.71,1.71,0,0,1-1.51-1.7v-5.71a1.72,1.72,0,0,1,1.72-1.72h16.36a1.74,1.74,0,0,1,1.72,1.72v1.76a5.28,5.28,0,0,1,1.27-3.3,3.37,3.37,0,0,0-3-1.83H979.3a3.38,3.38,0,0,0-3.38,3.38v5.71a3.38,3.38,0,0,0,3.38,3.38h16.36a3.38,3.38,0,0,0,3.38-3.38v-3.94A0.83,0.83,0,0,1,998.21,588.38Z" transform="translate(-9.92 -9.43)"/><path class="cls-43" d="M1002.41,583.24a0.83,0.83,0,0,1,.83-0.83,7.08,7.08,0,0,0-2.59.45,5,5,0,0,0-2,1.38,5.28,5.28,0,0,0-1.27,3.3,0.83,0.83,0,0,0,.82.84h0a0.83,0.83,0,0,0,.83-0.82,3.58,3.58,0,0,1,1.56-2.81,4.73,4.73,0,0,1,2.64-.68A0.83,0.83,0,0,1,1002.41,583.24Z" transform="translate(-9.92 -9.43)"/><path class="cls-43" d="M1010.82,582.41a3.37,3.37,0,0,0-3,1.83,5.28,5.28,0,0,1,1.27,3.3v-1.76a1.72,1.72,0,0,1,1.72-1.72h16.36a1.74,1.74,0,0,1,1.72,1.72v5.71a1.72,1.72,0,0,1-1.49,1.69l-0.23,0h-16.36a1.72,1.72,0,0,1-1.72-1.72v-3.95a0.83,0.83,0,0,1-.82.84h0a0.83,0.83,0,0,1-.83-0.82v3.93a3.38,3.38,0,0,0,3.38,3.38h16.36a3.38,3.38,0,0,0,3.38-3.38v-5.71a3.38,3.38,0,0,0-3.38-3.38h-16.36Z" transform="translate(-9.92 -9.43)"/><path class="cls-43" d="M1008.28,588.38h0a0.83,0.83,0,0,0,.82-0.84,5.28,5.28,0,0,0-1.27-3.3,5,5,0,0,0-2-1.38,7.06,7.06,0,0,0-2.62-.46,0.83,0.83,0,1,0,0,1.66,4.75,4.75,0,0,1,2.66.68,3.55,3.55,0,0,1,1.54,2.81A0.83,0.83,0,0,0,1008.28,588.38Z" transform="translate(-9.92 -9.43)"/></g><g class="cls-44"><path class="cls-8" d="M997.5,394.87a7.06,7.06,0,0,1,2.27-5.19l0-.32a4.71,4.71,0,0,0-.49.58,170.85,170.85,0,0,0-13.38,23.62h10.37q0.63-1.25,1.25-2.44V394.87Z" transform="translate(-9.92 -9.43)"/><path class="cls-10" d="M1020,388.08a25.79,25.79,0,0,1-3.52-.24l3,3.08,0.53,0.17h0l0.53-.17,3-3.08A25.78,25.78,0,0,1,1020,388.08Z" transform="translate(-9.92 -9.43)"/><path class="cls-9" d="M1023.57,387.84l2.93-3a25.25,25.25,0,0,1-12.9,0l2.93,3A26,26,0,0,0,1023.57,387.84Z" transform="translate(-9.92 -9.43)"/><path class="cls-8" d="M1022,402.11a0.48,0.48,0,0,1-.12-0.23L1020.5,391l0.08-.08-0.53.17h0l-0.53-.17,0.08,0.08-1.42,10.89a0.48,0.48,0,0,1-.12.23l1.19,2.63v8.81h1.6v-8.81Z" transform="translate(-9.92 -9.43)"/><path class="cls-8" d="M1042.6,411.12c-0.59-1.13-1.18-2.22-1.75-3.26a17.45,17.45,0,0,0,1.75,5.41v-2.15Z" transform="translate(-9.92 -9.43)"/><path class="cls-8" d="M997.5,394.87v18.4c1.17-2,3.31-8,2.27-23.59A7.06,7.06,0,0,0,997.5,394.87Z" transform="translate(-9.92 -9.43)"/><path class="cls-8" d="M1040.35,389.35c-0.62,8.94-.2,14.77.5,18.5,0.57,1,1.16,2.13,1.75,3.26q0.62,1.19,1.25,2.44h10.37a170.85,170.85,0,0,0-13.38-23.62A4.7,4.7,0,0,0,1040.35,389.35Z" transform="translate(-9.92 -9.43)"/><path class="cls-45" d="M1018.06,402.11a0.94,0.94,0,0,1-1.38,0l-7.2-14.29,0.45-.58h-6.1a7,7,0,0,0-4.15,1.36c0,0.27,0,.53.05,0.79l0,0.32c1,15.56-1.1,21.55-2.27,23.59l-0.18.29h21.93v-8.81Z" transform="translate(-9.92 -9.43)"/><path class="cls-45" d="M1040.85,407.86c-0.7-3.74-1.12-9.56-.5-18.5,0-.27,0-0.52.05-0.79a7,7,0,0,0-4.15-1.36h-6.1l0.45,0.58-7.2,14.29a0.94,0.94,0,0,1-1.38,0l-1.19,2.63v8.81h21.93l-0.18-.29A17.45,17.45,0,0,1,1040.85,407.86Z" transform="translate(-9.92 -9.43)"/><path class="cls-8" d="M1017.83,400.85a0.6,0.6,0,0,1-.19.34l0.42,0.92a0.48,0.48,0,0,0,.12-0.23L1019.6,391Z" transform="translate(-9.92 -9.43)"/><path class="cls-46" d="M1017.83,400.85a0.6,0.6,0,0,1-.19.34l0.42,0.92a0.48,0.48,0,0,0,.12-0.23L1019.6,391Z" transform="translate(-9.92 -9.43)"/><path class="cls-45" d="M1016.68,401l-7.2-13.26,7.2,14.29a0.94,0.94,0,0,0,1.38,0l-0.42-.92A0.62,0.62,0,0,1,1016.68,401Z" transform="translate(-9.92 -9.43)"/><path class="cls-46" d="M1016.68,401l-7.2-13.26,7.2,14.29a0.94,0.94,0,0,0,1.38,0l-0.42-.92A0.62,0.62,0,0,1,1016.68,401Z" transform="translate(-9.92 -9.43)"/><path class="cls-8" d="M1022.27,400.85L1020.5,391l1.42,10.89a0.48,0.48,0,0,0,.12.23l0.41-.92A0.61,0.61,0,0,1,1022.27,400.85Z" transform="translate(-9.92 -9.43)"/><path class="cls-46" d="M1022.27,400.85L1020.5,391l1.42,10.89a0.48,0.48,0,0,0,.12.23l0.41-.92A0.61,0.61,0,0,1,1022.27,400.85Z" transform="translate(-9.92 -9.43)"/><path class="cls-45" d="M1022.45,401.19l-0.41.92a0.94,0.94,0,0,0,1.38,0l7.2-14.29-7.2,13.26A0.62,0.62,0,0,1,1022.45,401.19Z" transform="translate(-9.92 -9.43)"/><path class="cls-46" d="M1022.45,401.19l-0.41.92a0.94,0.94,0,0,0,1.38,0l7.2-14.29-7.2,13.26A0.62,0.62,0,0,1,1022.45,401.19Z" transform="translate(-9.92 -9.43)"/><path class="cls-8" d="M1016.68,401a0.62,0.62,0,0,0,1,.16,0.6,0.6,0,0,0,.19-0.34l1.76-9.85-0.08-.08-3-3.08-2.93-3q-0.74-.2-1.44-0.45l-2.22,2.83-0.45.58Z" transform="translate(-9.92 -9.43)"/><path class="cls-8" d="M1026.5,384.82l-2.93,3-3,3.08-0.08.08,1.76,9.85a0.61,0.61,0,0,0,.18.34,0.62,0.62,0,0,0,1-.16l7.2-13.26-0.45-.58-2.22-2.83Q1027.24,384.62,1026.5,384.82Z" transform="translate(-9.92 -9.43)"/><path class="cls-6" d="M1042.36,369.72a3.81,3.81,0,0,1-1.63-.37,20.9,20.9,0,0,1-3.74,8.41,16,16,0,0,0,15.6,12.65h0v-9.64a15.92,15.92,0,0,0-6.84-13.09A3.83,3.83,0,0,1,1042.36,369.72Z" transform="translate(-9.92 -9.43)"/><path class="cls-6" d="M997.73,369.72a3.83,3.83,0,0,1-3.38-2,15.92,15.92,0,0,0-6.84,13.09v9.64h0a16,16,0,0,0,15.6-12.65,20.9,20.9,0,0,1-3.74-8.41A3.81,3.81,0,0,1,997.73,369.72Z" transform="translate(-9.92 -9.43)"/><path class="cls-6" d="M998.93,362.25v-9.74h0c-1.08.09-1.73,0.1-1.73,0.1l-1.73-7.49,3.45-9.33,21.12-6h0l21.12,6,3.45,9.33-1.73,7.49s-0.65,0-1.73-.1h0v9.74a3.81,3.81,0,0,1,3.13.33,27.07,27.07,0,1,0-48.49,0A3.81,3.81,0,0,1,998.93,362.25Z" transform="translate(-9.92 -9.43)"/><path class="cls-10" d="M1013.6,384.82a25.25,25.25,0,0,0,12.9,0q0.74-.2,1.44-0.45a19.22,19.22,0,0,0,9.05-6.61,20.9,20.9,0,0,0,3.74-8.41,3.83,3.83,0,0,1,.43-7.1v-9.74c-18.82.56-20.93-11.51-21.12-15.48-0.19,4-2.3,16-21.12,15.48v9.74a3.83,3.83,0,0,1,.43,7.1,20.9,20.9,0,0,0,3.74,8.41,19.21,19.21,0,0,0,9.05,6.61Q1012.86,384.62,1013.6,384.82ZM1011.33,374h17.44a6.21,6.21,0,0,1-6.21,6.21h-5A6.21,6.21,0,0,1,1011.33,374Zm7.06-7.35v-3.4a1.66,1.66,0,1,1,3.31,0v3.4A1.66,1.66,0,1,1,1018.39,366.62Zm13.66,5.49a3.11,3.11,0,1,1,3.11-3.11A3.11,3.11,0,0,1,1032.05,372.11Zm-26.21-12v-4.81h0v-0.63a0.64,0.64,0,0,1,.71-0.44L1014,354a0.64,0.64,0,0,1,.73.41l0,0.83h10.69l0-.83a0.64,0.64,0,0,1,.73-0.41l7.39,0.17a0.64,0.64,0,0,1,.71.44v0.63h0v4.81h0v0.27h-0.08a0.53,0.53,0,0,1-.46.27h-1.82a3,3,0,0,1,.16.94,2.25,2.25,0,1,1-4.44,0,2.91,2.91,0,0,1,.27-1.21h-15.67a2.91,2.91,0,0,1,.27,1.21,2.25,2.25,0,1,1-4.44,0,3,3,0,0,1,.16-0.94h-1.82a0.53,0.53,0,0,1-.46-0.27h-0.08v-0.27Zm2.2,5.8a3.11,3.11,0,1,1-3.11,3.11A3.11,3.11,0,0,1,1008,365.89Z" transform="translate(-9.92 -9.43)"/><path class="cls-11" d="M1021.7,366.62v-3.4a1.66,1.66,0,1,0-3.31,0v3.4A1.66,1.66,0,1,0,1021.7,366.62Z" transform="translate(-9.92 -9.43)"/><path class="cls-8" d="M1017.54,380.18h5a6.21,6.21,0,0,0,6.21-6.21h-17.44A6.21,6.21,0,0,0,1017.54,380.18Z" transform="translate(-9.92 -9.43)"/><path class="cls-7" d="M1041.17,362.25a3.81,3.81,0,1,0,1.2-.19A3.83,3.83,0,0,0,1041.17,362.25Zm3.45,4.28a2.2,2.2,0,0,1-3.45,1.81v-3.61A2.2,2.2,0,0,1,1044.62,366.53Z" transform="translate(-9.92 -9.43)"/><path class="cls-9" d="M1041.17,368.34a2.2,2.2,0,1,0,0-3.61v3.61Z" transform="translate(-9.92 -9.43)"/><path class="cls-7" d="M997.73,369.72a3.83,3.83,0,1,0-3.38-2A3.81,3.81,0,0,0,997.73,369.72Zm-2.26-3.19a2.2,2.2,0,0,1,3.45-1.81v3.61A2.2,2.2,0,0,1,995.48,366.53Z" transform="translate(-9.92 -9.43)"/><path class="cls-9" d="M998.93,352.51h0c18.82,0.56,20.93-11.51,21.12-15.48,0-.19,0-0.36,0-0.52C1019.48,349.67,1004.15,352.07,998.93,352.51Z" transform="translate(-9.92 -9.43)"/><path class="cls-9" d="M1020,335.78c0,0.25,0,.49,0,0.73s0,0.32,0,.52c0.19,4,2.3,16,21.12,15.48h0C1035.85,352.06,1020,349.58,1020,335.78Z" transform="translate(-9.92 -9.43)"/><path class="cls-9" d="M997.67,368.73a2.19,2.19,0,0,0,1.25-.39v-3.61A2.2,2.2,0,1,0,997.67,368.73Z" transform="translate(-9.92 -9.43)"/><path class="cls-10" d="M1005.84,360.09v0.27h0.08A0.52,0.52,0,0,1,1005.84,360.09Z" transform="translate(-9.92 -9.43)"/><path class="cls-12" d="M1005.84,360.09v0.27h0.08A0.52,0.52,0,0,1,1005.84,360.09Z" transform="translate(-9.92 -9.43)"/><path class="cls-10" d="M1006.38,359.55h2.5a2,2,0,0,1,1.38-.57,2.2,2.2,0,0,1,1.95,1.38h15.67a2.2,2.2,0,0,1,1.95-1.38,2,2,0,0,1,1.38.57h2.5a0.54,0.54,0,0,1,.54.54v-4.81h0v0.3a0.64,0.64,0,0,1-.73.41l-7.39-.17a0.64,0.64,0,0,1-.71-0.44v-0.1H1014.7v0.1a0.64,0.64,0,0,1-.71.44l-7.39.17a0.64,0.64,0,0,1-.73-0.41v-0.3h0v4.81A0.54,0.54,0,0,1,1006.38,359.55Z" transform="translate(-9.92 -9.43)"/><path class="cls-12" d="M1006.38,359.55h2.5a2,2,0,0,1,1.38-.57,2.2,2.2,0,0,1,1.95,1.38h15.67a2.2,2.2,0,0,1,1.95-1.38,2,2,0,0,1,1.38.57h2.5a0.54,0.54,0,0,1,.54.54v-4.81h0v0.3a0.64,0.64,0,0,1-.73.41l-7.39-.17a0.64,0.64,0,0,1-.71-0.44v-0.1H1014.7v0.1a0.64,0.64,0,0,1-.71.44l-7.39.17a0.64,0.64,0,0,1-.73-0.41v-0.3h0v4.81A0.54,0.54,0,0,1,1006.38,359.55Z" transform="translate(-9.92 -9.43)"/><path class="cls-10" d="M1034.25,360.36v-0.27a0.52,0.52,0,0,1-.08.27h0.08Z" transform="translate(-9.92 -9.43)"/><path class="cls-12" d="M1034.25,360.36v-0.27a0.52,0.52,0,0,1-.08.27h0.08Z" transform="translate(-9.92 -9.43)"/><path class="cls-13" d="M1030.32,360.09a0.54,0.54,0,0,1,.54-0.54h0.35a2,2,0,0,0-1.38-.57,2.2,2.2,0,0,0-1.95,1.38,2.91,2.91,0,0,0-.27,1.21,2.25,2.25,0,1,0,4.44,0,3,3,0,0,0-.16-0.94h-1A0.54,0.54,0,0,1,1030.32,360.09Z" transform="translate(-9.92 -9.43)"/><path class="cls-13" d="M1010.26,359a2,2,0,0,0-1.38.57h0.35a0.54,0.54,0,0,1,0,1.08h-1a3,3,0,0,0-.16.94,2.25,2.25,0,1,0,4.44,0,2.91,2.91,0,0,0-.27-1.21A2.2,2.2,0,0,0,1010.26,359Z" transform="translate(-9.92 -9.43)"/><circle class="cls-10" cx="1022.13" cy="359.57" r="3.11"/><circle class="cls-14" cx="1022.13" cy="359.57" r="3.11"/><circle class="cls-10" cx="998.12" cy="359.57" r="3.11"/><circle class="cls-14" cx="998.12" cy="359.57" r="3.11"/><path class="cls-13" d="M1006.38,360.63h2.86a0.54,0.54,0,0,0,0-1.08h-2.86a0.54,0.54,0,0,0-.54.54,0.52,0.52,0,0,0,.08.27A0.53,0.53,0,0,0,1006.38,360.63Z" transform="translate(-9.92 -9.43)"/><path class="cls-13" d="M1033.71,359.55h-2.86a0.54,0.54,0,1,0,0,1.08h2.86a0.53,0.53,0,0,0,.46-0.27,0.52,0.52,0,0,0,.08-0.27h0A0.54,0.54,0,0,0,1033.71,359.55Z" transform="translate(-9.92 -9.43)"/><path class="cls-15" d="M1026.1,355.82l7.39,0.17a0.64,0.64,0,0,0,.73-0.41v-0.93a0.64,0.64,0,0,0-.71-0.44l-7.39-.17a0.64,0.64,0,0,0-.73.41l0,0.83v0.1A0.64,0.64,0,0,0,1026.1,355.82Z" transform="translate(-9.92 -9.43)"/><path class="cls-15" d="M1006.6,356l7.39-.17a0.64,0.64,0,0,0,.71-0.44v-0.1l0-.83A0.64,0.64,0,0,0,1014,354l-7.39.17a0.64,0.64,0,0,0-.71.44v0.93A0.64,0.64,0,0,0,1006.6,356Z" transform="translate(-9.92 -9.43)"/><polygon class="cls-6" points="1010.13 320.36 1010.13 320.36 1010.13 320.36 1010.13 320.36"/><path class="cls-6" d="M1020,336.51c0-.24,0-0.48,0-0.73h0v-6l-21.12,6-3.45,9.33,1.73,7.49s0.65,0,1.73-.1C1004.15,352.07,1019.48,349.67,1020,336.51Z" transform="translate(-9.92 -9.43)"/><path class="cls-6" d="M1020,335.78h0c0,13.8,15.8,16.28,21.12,16.73,1.08,0.09,1.73.1,1.73,0.1l1.73-7.49-3.45-9.33-21.12-6h0v6Z" transform="translate(-9.92 -9.43)"/></g></g></g></g></svg>