<svg xmlns="http://www.w3.org/2000/svg" viewBox="0 0 1089.3 814.93">
    <defs>
        <style>
            .cls-1,.cls-4,.cls-5{fill:none}.cls-2{isolation:isolate}.cls-24,.cls-3,.cls-8{fill:#fff}.cls-3{opacity:.15;mix-blend-mode:screen}.cls-4,.cls-5{stroke:#fff;stroke-miterlimit:10}.cls-5{stroke-width:2px;stroke-dasharray:12}.cls-6{fill:#ffe578}.cls-7{fill:#f6d7aa}.cls-9{fill:#eebb9a}.cls-10{fill:#ffd8a4}.cls-11,.cls-12,.cls-14{fill:#ffa582}.cls-12{opacity:.2}.cls-13{fill:#033344}.cls-14{opacity:.4}.cls-15{fill:#54321a}.cls-16{fill:#2d2d2d}.cls-17{fill:#13496d}.cls-18{fill:#d3d3d3}.cls-19{clip-path:url(#clip-path)}.cls-20{fill:#dfdfdf}.cls-21{fill:#fb7038}.cls-22,.cls-37{fill:#1c1c1c}.cls-22{opacity:.16}.cls-23{fill:#0b354c}.cls-24,.cls-46{opacity:.3}.cls-25{fill:#606060}.cls-26{fill:#141414}.cls-27{clip-path:url(#clip-path-2)}.cls-28{fill:#c7e8ff}.cls-29{fill:#4378a2}.cls-30{fill:#a6dfff}.cls-31{fill:#b4b4b4}.cls-32{fill:#212121}.cls-33{clip-path:url(#clip-path-3)}.cls-34{fill:#92d3ff}.cls-35{fill:#ff734d}.cls-36{clip-path:url(#clip-path-4)}.cls-38{fill:#e9e9e9}.cls-39{clip-path:url(#clip-path-5)}.cls-40{fill:#ed6b4c}.cls-41{clip-path:url(#clip-path-6)}.cls-42{fill:#161616}.cls-43{fill:#ff4824}.cls-44{clip-path:url(#clip-path-7)}.cls-45{fill:#757575}.cls-46{fill:#3a3a3a}
        </style>
        <clipPath id="clip-path" transform="translate(-9.92 -9.43)">
            <circle class="cls-1" cx="833.41" cy="270.47" r="95.46"/>
        </clipPath>
        <clipPath id="clip-path-2" transform="translate(-9.92 -9.43)">
            <circle class="cls-1" cx="187.31" cy="296.99" r="114.77"/>
        </clipPath>
        <clipPath id="clip-path-3" transform="translate(-9.92 -9.43)">
            <circle class="cls-1" cx="609.41" cy="124.7" r="114.77"/>
        </clipPath>
        <clipPath id="clip-path-4" transform="translate(-9.92 -9.43)">
            <circle class="cls-1" cx="106.53" cy="567.81" r="96.1"/>
        </clipPath>
        <clipPath id="clip-path-5" transform="translate(-9.92 -9.43)">
            <circle class="cls-1" cx="379.24" cy="185.36" r="59.62"/>
        </clipPath>
        <clipPath id="clip-path-6" transform="translate(-9.92 -9.43)">
            <circle class="cls-1" cx="1003.26" cy="570.22" r="95.46"/>
        </clipPath>
        <clipPath id="clip-path-7" transform="translate(-9.92 -9.43)">
            <circle class="cls-1" cx="1020.05" cy="353.93" r="59.62"/>
        </clipPath>
    </defs>
    <title>
        installiance
    </title>
    <g class="cls-2">
        <g id="img">
            <g id="New_Symbol_135" data-name="New Symbol 135">
                <path class="cls-3" d="M513.68 778.41L330.76 806.1a78.86 78.86 0 0 1-82.31-42.65L165.59 598a78.86 78.86 0 0 1 15.13-91.46l131.71-129.89a78.86 78.86 0 0 1 91.66-13.87l164.27 85.12a78.86 78.86 0 0 1 41.52 82.89l-30.2 182.52a78.86 78.86 0 0 1-66 65.1z" transform="translate(-9.92 -9.43)"/>
                <path class="cls-3" d="M626.93 532L444 559.65A78.86 78.86 0 0 1 361.69 517l-82.85-165.41A78.86 78.86 0 0 1 294 260.12l131.68-129.91a78.86 78.86 0 0 1 91.66-13.87l164.26 85.11a78.86 78.86 0 0 1 41.52 82.89l-30.19 182.52a78.86 78.86 0 0 1-66 65.14z" transform="translate(-9.92 -9.43)"/>
                <path class="cls-3" d="M684.79 805.31L504.76 680a93.49 93.49 0 0 1-36.09-103.81l63.5-209.93a93.49 93.49 0 0 1 87.57-66.4L839 295.43a93.49 93.49 0 0 1 90.21 62.77l72 207.16a93.49 93.49 0 0 1-31.82 105.19L794.67 803.06a93.49 93.49 0 0 1-109.88 2.25z" transform="translate(-9.92 -9.43)"/>
                <circle class="cls-3" cx="177.38" cy="287.57" r="114.77"/>
                <circle class="cls-3" cx="96.61" cy="558.39" r="96.11"/>
                <circle class="cls-3" cx="599.49" cy="115.27" r="114.77"/>
                <circle class="cls-4" cx="599.49" cy="115.27" r="114.77"/>
                <circle class="cls-3" cx="823.49" cy="261.04" r="95.46"/>
                <circle class="cls-3" cx="993.33" cy="560.8" r="95.46"/>
                <circle class="cls-3" cx="369.31" cy="175.93" r="59.62"/>
                <circle class="cls-3" cx="1010.13" cy="344.51" r="59.62"/>
                <circle class="cls-4" cx="177.38" cy="287.57" r="114.77"/>
                <circle class="cls-4" cx="96.61" cy="558.39" r="96.11"/>
                <circle class="cls-4" cx="823.49" cy="261.04" r="95.46"/>
                <circle class="cls-4" cx="993.33" cy="560.8" r="95.46"/>
                <circle class="cls-4" cx="369.31" cy="175.93" r="59.62"/>
                <circle class="cls-4" cx="1010.13" cy="344.51" r="59.62"/>
                <path class="cls-5" d="M532.98 555.95l66.51-325.9M532.98 555.95l427.94-177.78M532.98 555.95l219.28-231.36M532.98 555.95l365.44 15.08M532.98 555.95l-138.73-320.4M532.98 555.95l-272.42-189.3M532.98 555.95l-345.03 32.36"/>
                <path class="cls-6" d="M596.71 470.21H495a7.88 7.88 0 0 1-7.88-7.88v-81.89h117.47v81.88a7.88 7.88 0 0 1-7.88 7.89z" transform="translate(-9.92 -9.43)"/>
                <path class="cls-7" d="M519.91 436.46h32.01v27.08h-32.01z"/>
                <path class="cls-8" d="M594.79 481.18a15.39 15.39 0 0 0-15.39-15.39h-10.63L545.84 473l-22.93-7.17h-10.64a15.39 15.39 0 0 0-15.39 15.39V565h97.91v-83.82z" transform="translate(-9.92 -9.43)"/>
                <circle class="cls-6" cx="535.92" cy="371.02" r="58.76"/>
                <path class="cls-9" d="M529.83 459.5a54.43 54.43 0 0 0 32 0v-13.62h-32v13.62z" transform="translate(-9.92 -9.43)"/>
                <path class="cls-10" d="M577.49 346.81h-63.31A14 14 0 0 0 500 360.6v51.48c0 21.3 15.1 44.58 45.84 44.58s45.84-23.27 45.84-44.58V360.6a14 14 0 0 0-14.19-13.79z" transform="translate(-9.92 -9.43)"/>
                <path class="cls-11" d="M545.84 418.93a3.61 3.61 0 0 0 3.6-3.6V408a3.61 3.61 0 0 0-3.6-3.6 3.61 3.61 0 0 0-3.6 3.6v7.37a3.61 3.61 0 0 0 3.6 3.56z" transform="translate(-9.92 -9.43)"/>
                <path class="cls-9" d="M581.77 363.37l-91.71-4.44v12.09l91.71 3.8v-11.45z"/>
                <path class="cls-8" d="M540.39 444.76h10.9a13.48 13.48 0 0 0 13.48-13.48H526.9a13.48 13.48 0 0 0 13.49 13.48z" transform="translate(-9.92 -9.43)"/>
                <circle class="cls-7" cx="584.36" cy="404.31" r="8.32"/>
                <path class="cls-9" d="M591.69 411.21a4.77 4.77 0 1 1 0 7.84v-7.84z" transform="translate(-9.92 -9.43)"/>
                <circle class="cls-7" cx="487.47" cy="404.31" r="8.32"/>
                <path class="cls-9" d="M500 411.21a4.77 4.77 0 1 0 0 7.84v-7.84z" transform="translate(-9.92 -9.43)"/>
                <path class="cls-12" d="M505.08 381.29h61.67v11.02h-61.67z"/>
                <ellipse class="cls-13" cx="557.16" cy="394.94" rx="4.82" ry="5.63"/>
                <ellipse class="cls-13" cx="514.67" cy="394.94" rx="4.82" ry="5.63"/>
                <circle class="cls-14" cx="561.97" cy="411.06" r="6.75"/>
                <circle class="cls-14" cx="509.86" cy="411.06" r="6.75"/>
                <path class="cls-13" d="M522.37 402.32h-6.2a1.17 1.17 0 0 1-1.17-1.17 1.17 1.17 0 0 1 1.17-1.17h6.2a1.17 1.17 0 0 1 1.17 1.17 1.17 1.17 0 0 1-1.17 1.17zM575.5 402.32h-6.2a1.17 1.17 0 0 1-1.17-1.17 1.17 1.17 0 0 1 1.17-1.15h6.2a1.17 1.17 0 0 1 1.17 1.17 1.17 1.17 0 0 1-1.17 1.15z" transform="translate(-9.92 -9.43)"/>
                <path class="cls-15" d="M575 392.25l-16-.36a1.39 1.39 0 0 1-1.55-1v-2a1.39 1.39 0 0 1 1.59-.88l16 .36a1.39 1.39 0 0 1 1.55 1v2a1.39 1.39 0 0 1-1.59.88zM516.65 392.25l16-.36a1.39 1.39 0 0 0 1.55-1v-2a1.39 1.39 0 0 0-1.59-.88l-16 .36a1.39 1.39 0 0 0-1.55 1v2a1.39 1.39 0 0 0 1.59.88z" transform="translate(-9.92 -9.43)"/>
                <path class="cls-6" d="M497.81 352.87v27.57h17.43l1.86-11.18 1.9 11.18h74.92v-27.57c0-3.74-3.78-8.28-7.53-8.28h-81c-3.8 0-7.58 4.54-7.58 8.28z" transform="translate(-9.92 -9.43)"/>
                <rect class="cls-16" x="443.21" y="809.23" width="185.41" height="5.7" rx="2.56" ry="2.56"/>
                <path class="cls-10" d="M531.27 800.95h-20.82l-5.25-193.38h26.07v193.38z"/>
                <path class="cls-17" d="M541.31 802.75l-21 2.75s-10.62 7.2-10.62 16l13-5.43h18.66v-13.32z" transform="translate(-9.92 -9.43)"/>
                <path class="cls-17" d="M527.94 801.7h3.33v10.38h-3.33z"/>
                <path class="cls-17" d="M516.85 817.17l-7.19 4.34H527l10.88-5.43s-5.95-6.23-21.03 1.09z" transform="translate(-9.92 -9.43)"/>
                <path class="cls-10" d="M540.56 800.95h20.82l5.25-193.38h-26.07v193.38z"/>
                <path class="cls-10" d="M638.87 631.87a9.76 9.76 0 0 1-9.7-8.84c0-.35-3.64-36.35-21.11-79.07a357 357 0 0 0-33.36-62.06 9.76 9.76 0 0 1 16-11.21 371.69 371.69 0 0 1 35.45 65.88c18.63 45.55 22.33 83.05 22.48 84.63a9.76 9.76 0 0 1-8.8 10.63c-.34.03-.65.04-.96.04z" transform="translate(-9.92 -9.43)"/>
                <path class="cls-8" d="M626.83 609.82q10-1.65 20.07-3.06a348.41 348.41 0 0 0-20.43-70.32 372.08 372.08 0 0 0-35.49-66 10.13 10.13 0 0 0-16.58 11.64 356 356 0 0 1 33.32 62 330.69 330.69 0 0 1 19.11 65.74z" transform="translate(-9.92 -9.43)"/>
                <circle class="cls-10" cx="613.59" cy="611.12" r="6.39"/>
                <circle class="cls-10" cx="628.21" cy="615.13" r="16.13"/>
                <path class="cls-10" d="M452.8 631.87a9.76 9.76 0 0 0 9.7-8.84c0-.35 3.64-36.35 21.11-79.07A357 357 0 0 1 517 481.9a9.76 9.76 0 0 0-16-11.21 371.69 371.69 0 0 0-35.45 65.88c-18.63 45.55-22.33 83.05-22.48 84.63a9.76 9.76 0 0 0 8.8 10.63c.32.03.63.04.93.04z" transform="translate(-9.92 -9.43)"/>
                <path class="cls-8" d="M464.85 609.82q-10-1.65-20.07-3.06a348.41 348.41 0 0 1 20.43-70.32 372.08 372.08 0 0 1 35.49-66 10.13 10.13 0 0 1 16.58 11.64 356 356 0 0 0-33.32 62 330.68 330.68 0 0 0-19.11 65.74z" transform="translate(-9.92 -9.43)"/>
                <circle class="cls-10" cx="458.25" cy="611.12" r="6.39"/>
                <circle class="cls-10" cx="443.62" cy="615.13" r="16.13"/>
                <path class="cls-17" d="M550.33 802.75l21.05 2.75s10.63 7.2 10.63 16l-13-5.43h-18.68v-13.32z" transform="translate(-9.92 -9.43)"/>
                <path class="cls-17" d="M540.56 801.7h3.33v10.38h-3.33z"/>
                <path class="cls-17" d="M574.82 817.17l7.19 4.34h-17.32l-10.88-5.43s5.94-6.23 21.01 1.09zM487.64 679.23H604a7.89 7.89 0 0 0 7.79-9.15l-17-105.08h-97.91l-17 105.08a7.89 7.89 0 0 0 7.76 9.15z" transform="translate(-9.92 -9.43)"/>
                <path class="cls-17" d="M530.12 463.54h11.6v81.64h-11.6z"/>
                <path class="cls-18" d="M522.9 465.79l6.77-8.64 15.18 15.62-3.85 22.9a1.34 1.34 0 0 1-2.49.4zM568.77 465.79l-6.77-8.64-15.18 15.62 3.83 22.89a1.34 1.34 0 0 0 2.49.4z" transform="translate(-9.92 -9.43)"/>
                <path class="cls-8" d="M522.9 465.79l6.77-8.64 15.18 15.62-3.85 21.39a1.34 1.34 0 0 1-2.49.4zM568.77 465.79l-6.77-8.64-15.18 15.62 3.83 21.39a1.34 1.34 0 0 0 2.49.4z" transform="translate(-9.92 -9.43)"/>
                <g class="cls-19">
                    <path class="cls-20" d="M821.62 311.32H820.82l.8.78v-.75zM845.23 312.07l.8-.78H845.23v.75z" transform="translate(-9.92 -9.43)"/>
                    <path class="cls-7" d="M834.2 322.81l6.93-6.75a41.63 41.63 0 0 1-15.4 0l6.94 6.76.76.14z" transform="translate(-9.92 -9.43)"/>
                    <path class="cls-9" d="M841.13 316.07l4.11-4v-.75a40.06 40.06 0 0 1-23.61 0v.75l4.11 4a41.63 41.63 0 0 0 15.39 0z" transform="translate(-9.92 -9.43)"/>
                    <path class="cls-8" d="M839.85 333.3a.65.65 0 0 1-1.11-.23l-.89-1.83-3.56 3.56 2.66 17.55 6.73-23.19z" transform="translate(-9.92 -9.43)"/>
                    <path class="cls-8" d="M823.51 313.54l-.76-.14.28.28-.31.65.79-.79zM824.29 314.33l-.31-.65.3-.29-.77.15.78.79z"/>
                    <path class="cls-8" d="M829 331.23l-.89 1.83a.65.65 0 0 1-1.11.23l-3.82-4.14 6.73 23.19 2.66-17.55z" transform="translate(-9.92 -9.43)"/>
                    <path class="cls-21" d="M827.93 321.8l-3.64-7.47-.78-.79-.79.79-3.63 7.47 3.56 3.57.86-5.67.86 5.67 3.56-3.57z"/>
                    <path class="cls-8" d="M827 333.3a.65.65 0 0 0 1.11-.23l.89-1.83-.76-.76-.37.57a.63.63 0 0 1-1 .17l-4.23-3.93.54 1.87z" transform="translate(-9.92 -9.43)"/>
                    <path class="cls-22" d="M827 333.3a.65.65 0 0 0 1.11-.23l.89-1.83-.76-.76-.37.57a.63.63 0 0 1-1 .17l-4.23-3.93.54 1.87z" transform="translate(-9.92 -9.43)"/>
                    <path class="cls-8" d="M823.03 313.68l-.58.92.27-.27.31-.65z"/>
                    <path class="cls-22" d="M823.03 313.68l-.58.92.27-.27.31-.65z"/>
                    <path class="cls-21" d="M822.72 314.33l-.27.27-4.12 6.44.76.76 3.63-7.47z"/>
                    <path class="cls-22" d="M822.72 314.33l-.27.27-4.12 6.44.76.76 3.63-7.47z"/>
                    <path class="cls-8" d="M822.64 327.28l4.23 3.93a.63.63 0 0 0 1-.17l.37-.57 4.12-6.44.59-.92-.29-.28-6.94-6.76-4.11-4-.8-.78-2.06 2.65z" transform="translate(-9.92 -9.43)"/>
                    <path class="cls-8" d="M824.57 314.6l-.59-.92.31.65.28.27z"/>
                    <path class="cls-22" d="M824.57 314.6l-.59-.92.31.65.28.27z"/>
                    <path class="cls-8" d="M839 331l-.37-.57-.76.76.89 1.83a.65.65 0 0 0 1.11.23l3.83-4.14.54-1.87-4.24 3.97a.63.63 0 0 1-1-.21z" transform="translate(-9.92 -9.43)"/>
                    <path class="cls-22" d="M839 331l-.37-.57-.76.76.89 1.83a.65.65 0 0 0 1.11.23l3.83-4.14.54-1.87-4.24 3.97a.63.63 0 0 1-1-.21z" transform="translate(-9.92 -9.43)"/>
                    <path class="cls-21" d="M827.93 321.8l.76-.76-4.12-6.44-.28-.27 3.64 7.47z"/>
                    <path class="cls-22" d="M827.93 321.8l.76-.76-4.12-6.44-.28-.27 3.64 7.47z"/>
                    <path class="cls-8" d="M841.13 316.07l-6.93 6.75-.3.29.59.92 4.12 6.44.39.53a.63.63 0 0 0 1 .17l4.23-3.93 3.88-13.35-2.11-2.6-.8.78z" transform="translate(-9.92 -9.43)"/>
                    <path class="cls-21" d="M827.02 342.92l-2.65-17.55-.86-5.67-.86 5.67-2.66 17.54 2.97 10.22v3.37h1.1v-3.37l2.96-10.21z"/>
                    <path class="cls-10" d="M833.43 289.84a4.83 4.83 0 0 1-3.21 4.55h6.43a4.83 4.83 0 0 1-3.22-4.55zM836.45 274.66a4.34 4.34 0 0 1 1.25 1v-1a.83.83 0 0 1 .83-.83h7.09a4.57 4.57 0 0 1 .37-1.22h-10.66a3 3 0 0 1 1.12 2.05zM828 278.5v-1.63a2.18 2.18 0 0 0 0-.39h-.27l-9.45 4.22h1.2c.51 0 .91.74.91 1.66v1.59a2.72 2.72 0 0 1-.13.83h5.58a2.2 2.2 0 0 0 2.2-2.2v-3.95s-.04-.06-.04-.13zM857.63 280.7c.5 0 .91.74.91 1.66v1.59a2.88 2.88 0 0 1 0 .5 2.19 2.19 0 0 0 1.07-1.87v-5.7a2.18 2.18 0 0 0 0-.39h-.27l-9.45 4.22h7.83zM830.41 274.66a3 3 0 0 1 1.11-2.07h-10.64a4.56 4.56 0 0 1 .37 1.22h7.09a.83.83 0 0 1 .83.83v1a4.34 4.34 0 0 1 1.24-.98zM846.46 282.36v-.17l-5.73 2.56h5.84a2.72 2.72 0 0 1-.13-.83v-1.59z" transform="translate(-9.92 -9.43)"/>
                    <path class="cls-10" d="M833.43 313.1a38.1 38.1 0 0 0 11.81-1.78h.09c12.07-4 19.11-13.86 21.22-24.3a6.13 6.13 0 0 1 .69-11.37v-7.16h-2.54c.13-3.6.17-17.6-6.71-22.94-5.77-3.82-21 6.85-33.55 10.25a31.16 31.16 0 0 1-20.79-1.45 49.34 49.34 0 0 0-1.49 14.14h-2.53v7.16a6.13 6.13 0 0 1 .69 11.37c2.11 10.44 9.15 20.35 21.22 24.3h.09a38.1 38.1 0 0 0 11.8 1.78zm-24.65-27.72a2.9 2.9 0 0 1-2.19-2.8v-5.7a2.89 2.89 0 0 1 0-.48.82.82 0 0 1-.47-.74v-1a.83.83 0 0 1 .83-.83h7.28a4.56 4.56 0 0 1 .37-1.22h-4v-8.13l-.06-2.56a1.16 1.16 0 0 1 1.13-1.19l11.83-.27a1.16 1.16 0 0 1 1.19 1.13l.06 2.56a1.15 1.15 0 0 1 0 .32H842a1.15 1.15 0 0 1 0-.32l.06-2.56a1.16 1.16 0 0 1 1.19-1.13l11.83.27a1.16 1.16 0 0 1 1.13 1.19l-.06 2.56v8.13h-4a4.56 4.56 0 0 1 .37 1.22h7.28a.83.83 0 0 1 .83.83v1a.82.82 0 0 1-.47.74 2.88 2.88 0 0 1 0 .48v5.7a2.9 2.9 0 0 1-2.19 2.8.64.64 0 0 1-.45.22h-10.14a.58.58 0 0 1-.35-.12h-6a2.9 2.9 0 0 1-2.9-2.9v-3.94a4.13 4.13 0 0 0-1.63-3.11V284a3 3 0 0 1-6.09 0v-8.46a4.1 4.1 0 0 0-1.63 3.11v3.94a2.9 2.9 0 0 1-2.9 2.9h-6a.58.58 0 0 1-.35.12h-10.31a.64.64 0 0 1-.45-.23zm9.29 8.23a4.83 4.83 0 0 1 4.83-4.83H844a4.83 4.83 0 0 1 4.83 4.83v1.06h-1.41a9.94 9.94 0 0 1-9.93 9.66h-8a9.94 9.94 0 0 1-9.93-9.66h-1.41v-1.07z" transform="translate(-9.92 -9.43)"/>
                    <path class="cls-11" d="M830.38 275.52V284a3 3 0 0 0 6.09 0v-8.46a5.94 5.94 0 0 0-6.09-.02z" transform="translate(-9.92 -9.43)"/>
                    <path class="cls-11" d="M830.41 274.66a6.91 6.91 0 0 1 6 0 3 3 0 0 0-1.11-2.07h-3.81a3 3 0 0 0-1.08 2.07z" transform="translate(-9.92 -9.43)"/>
                    <path class="cls-8" d="M836.64 294.38h-6.43a4.81 4.81 0 0 1-1.62.28h-9.12a9.94 9.94 0 0 0 9.93 9.66h8a9.94 9.94 0 0 0 9.93-9.66h-9.12a4.81 4.81 0 0 1-1.57-.28z" transform="translate(-9.92 -9.43)"/>
                    <path class="cls-10" d="M820.39 282.36c0-.91-.41-1.66-.91-1.66h-1.2l-9.05 4h11.04a2.72 2.72 0 0 0 .13-.83v-1.59z" transform="translate(-9.92 -9.43)"/>
                    <path class="cls-14" d="M820.39 282.36c0-.91-.41-1.66-.91-1.66h-1.2l-9.05 4h11.04a2.72 2.72 0 0 0 .13-.83v-1.59z" transform="translate(-9.92 -9.43)"/>
                    <path class="cls-10" d="M819.82 285.48h-10.33a2.87 2.87 0 0 1-.72-.1.64.64 0 0 0 .45.22h10.25a.58.58 0 0 0 .35-.12z" transform="translate(-9.92 -9.43)"/>
                    <path class="cls-14" d="M819.82 285.48h-10.33a2.87 2.87 0 0 1-.72-.1.64.64 0 0 0 .45.22h10.25a.58.58 0 0 0 .35-.12z" transform="translate(-9.92 -9.43)"/>
                    <path class="cls-10" d="M858.55 282.36c0-.91-.41-1.66-.91-1.66h-7.84l-3.33 1.49v1.76a2.72 2.72 0 0 0 .13.83h10.78a2.17 2.17 0 0 0 1.13-.32 2.88 2.88 0 0 0 0-.5v-1.59z" transform="translate(-9.92 -9.43)"/>
                    <path class="cls-14" d="M858.55 282.36c0-.91-.41-1.66-.91-1.66h-7.84l-3.33 1.49v1.76a2.72 2.72 0 0 0 .13.83h10.78a2.17 2.17 0 0 0 1.13-.32 2.88 2.88 0 0 0 0-.5v-1.59z" transform="translate(-9.92 -9.43)"/>
                    <path class="cls-10" d="M847 285.48a.58.58 0 0 0 .35.12h10.25a.64.64 0 0 0 .45-.22 2.86 2.86 0 0 1-.72.1H847z" transform="translate(-9.92 -9.43)"/>
                    <path class="cls-14" d="M847 285.48a.58.58 0 0 0 .35.12h10.25a.64.64 0 0 0 .45-.22 2.86 2.86 0 0 1-.72.1H847z" transform="translate(-9.92 -9.43)"/>
                    <path class="cls-9" d="M841.63 246.38c-11.56 6-25.38 9.48-37.09 5.29a26.11 26.11 0 0 0-.89 2.64 31.16 31.16 0 0 0 20.79 1.45c12.57-3.4 27.78-14.08 33.55-10.25-3.44-2.67-8.61-3.18-16.36.87z" transform="translate(-9.92 -9.43)"/>
                    <path class="cls-7" d="M863 281.44a6.14 6.14 0 1 0 4.22-5.82 6.13 6.13 0 0 0-4.22 5.82zm4.22-1.86a3.52 3.52 0 1 1 0 5.78v-5.78z" transform="translate(-9.92 -9.43)"/>
                    <path class="cls-9" d="M872.77 282.48a3.52 3.52 0 0 0-5.52-2.89v5.78a3.52 3.52 0 0 0 5.52-2.89z" transform="translate(-9.92 -9.43)"/>
                    <path class="cls-7" d="M803.83 281.44a6.15 6.15 0 1 0-3.53 5.55 6.13 6.13 0 0 0 3.53-5.55zm-4.22 3.93a3.52 3.52 0 1 1 0-5.78v5.78z" transform="translate(-9.92 -9.43)"/>
                    <path class="cls-9" d="M794.09 282.48a3.52 3.52 0 0 0 5.52 2.89v-5.78a3.52 3.52 0 0 0-5.52 2.89z" transform="translate(-9.92 -9.43)"/>
                    <path class="cls-10" d="M817.76 270.38a3.51 3.51 0 0 1 3.12 2.21h10.64a3 3 0 0 1 3.81 0H846a3.31 3.31 0 0 1 6.24 0h4v-8.13a1.16 1.16 0 0 1-1.24 1.14l-11.83-.27a1.16 1.16 0 0 1-1.09-.86h-17.26a1.16 1.16 0 0 1-1.09.86l-11.83.27a1.16 1.16 0 0 1-1.19-1.13v8.13h4a3.51 3.51 0 0 1 3.05-2.22z" transform="translate(-9.92 -9.43)"/>
                    <path class="cls-12" d="M817.76 270.38a3.51 3.51 0 0 1 3.12 2.21h10.64a3 3 0 0 1 3.81 0H846a3.31 3.31 0 0 1 6.24 0h4v-8.13a1.16 1.16 0 0 1-1.24 1.14l-11.83-.27a1.16 1.16 0 0 1-1.09-.86h-17.26a1.16 1.16 0 0 1-1.09.86l-11.83.27a1.16 1.16 0 0 1-1.19-1.13v8.13h4a3.51 3.51 0 0 1 3.05-2.22z" transform="translate(-9.92 -9.43)"/>
                    <path class="cls-11" d="M833.43 271.9a3 3 0 0 0-1.9.69h3.81a3 3 0 0 0-1.91-.69z" transform="translate(-9.92 -9.43)"/>
                    <path class="cls-12" d="M833.43 271.9a3 3 0 0 0-1.9.69h3.81a3 3 0 0 0-1.91-.69z" transform="translate(-9.92 -9.43)"/>
                    <path class="cls-15" d="M803.65 254.31a26.11 26.11 0 0 1 .89-2.64c11.71 4.19 25.53.74 37.09-5.29 7.75-4 12.92-3.54 16.36-.87 6.88 5.34 6.84 19.34 6.71 22.94h3c4.37-8.63 3.58-31.06-.47-36.37-20.63-27-47.12 5.81-50.93-15-20-6.78-30.27 19-19 30.26-.25 7.29.32 15.81 2 21.07h2.83a49.34 49.34 0 0 1 1.52-14.1z" transform="translate(-9.92 -9.43)"/>
                    <path class="cls-16" d="M849.09 270.38a3.51 3.51 0 0 0-3.12 2.21 4.57 4.57 0 0 0-.37 1.22h7a4.56 4.56 0 0 0-.37-1.22 3.51 3.51 0 0 0-3.14-2.21zM820.88 272.59a3.31 3.31 0 0 0-6.24 0 4.56 4.56 0 0 0-.37 1.22h7a4.56 4.56 0 0 0-.39-1.22z" transform="translate(-9.92 -9.43)"/>
                    <path class="cls-15" d="M811.9 265.6l11.83-.27a1.18 1.18 0 0 0 1.13-1.19l-.06-2.56a1.16 1.16 0 0 0-1.19-1.13l-11.83.27a1.16 1.16 0 0 0-1.13 1.19l.06 2.56a1.16 1.16 0 0 0 1.19 1.13zM843.12 265.33l11.88.27a1.16 1.16 0 0 0 1.19-1.13l.06-2.56a1.16 1.16 0 0 0-1.13-1.19l-11.83-.27a1.16 1.16 0 0 0-1.19 1.13l-.1 2.56a1.18 1.18 0 0 0 1.12 1.19z" transform="translate(-9.92 -9.43)"/>
                    <path class="cls-17" d="M797.38 329.81a11.67 11.67 0 0 1 .78-4.18 282.78 282.78 0 0 0-21.92 40.3h17.66q1.47-3.09 3-6zM869.47 329.81l.53 30.11q1.48 2.91 3 6h17.66a282.77 282.77 0 0 0-21.92-40.3 11.67 11.67 0 0 1 .73 4.19z" transform="translate(-9.92 -9.43)"/>
                    <path class="cls-15" d="M828.6 294.67a4.84 4.84 0 0 0 4.83-4.83v-1.06h-10.54a4.83 4.83 0 0 0-4.83 4.83v1.06h10.54z" transform="translate(-9.92 -9.43)"/>
                    <path class="cls-15" d="M833.43 289.84a4.84 4.84 0 0 0 4.83 4.83h10.53v-1.07a4.83 4.83 0 0 0-4.83-4.83h-10.53v1.06z" transform="translate(-9.92 -9.43)"/>
                    <path class="cls-17" d="M824.39 354.37l-15.28-36.28a11.76 11.76 0 0 0-11.72 11.72l-.52 30.11-.1 6h28.47l-4.62-11.56h3.78zM869.47 329.81a11.76 11.76 0 0 0-11.72-11.72l-15.28 36.28h3.78l-4.62 11.56h28.47l-.1-6z" transform="translate(-9.92 -9.43)"/>
                    <path class="cls-23" d="M819.99 342.91l-6.73-23.18-.54-1.87-3.88-13.35-9.66 4.15 15.29 36.28h-3.78l4.62 11.56h7.65v-3.37l-2.97-10.22zM832.54 344.94l15.29-36.28-9.66-4.15-3.87 13.35-.54 1.87-6.74 23.19-2.96 10.21v3.37h7.65l4.62-11.56h-3.79z"/>
                    <path class="cls-10" d="M808.31 282.36c0-.91.41-1.66.91-1.66h9.05l9.45-4.22h-6.85a3.31 3.31 0 0 1-6.24 0h-7.31a2.18 2.18 0 0 0 0 .39v5.7a2.19 2.19 0 0 0 1.07 1.87 2.86 2.86 0 0 1 0-.5v-1.59z" transform="translate(-9.92 -9.43)"/>
                    <path class="cls-24" d="M808.31 282.36c0-.91.41-1.66.91-1.66h9.05l9.45-4.22h-6.85a3.31 3.31 0 0 1-6.24 0h-7.31a2.18 2.18 0 0 0 0 .39v5.7a2.19 2.19 0 0 0 1.07 1.87 2.86 2.86 0 0 1 0-.5v-1.59z" transform="translate(-9.92 -9.43)"/>
                    <path class="cls-10" d="M809.22 280.7c-.51 0-.91.74-.91 1.66v1.59a2.86 2.86 0 0 0 0 .5 2.17 2.17 0 0 0 .87.3l9.05-4h-9.05z" transform="translate(-9.92 -9.43)"/>
                    <path class="cls-14" d="M809.22 280.7c-.51 0-.91.74-.91 1.66v1.59a2.86 2.86 0 0 0 0 .5 2.17 2.17 0 0 0 .87.3l9.05-4h-9.05z" transform="translate(-9.92 -9.43)"/>
                    <path class="cls-24" d="M809.22 280.7c-.51 0-.91.74-.91 1.66v1.59a2.86 2.86 0 0 0 0 .5 2.17 2.17 0 0 0 .87.3l9.05-4h-9.05z" transform="translate(-9.92 -9.43)"/>
                    <path class="cls-16" d="M817.76 278.68a3.51 3.51 0 0 0 3.12-2.2h-6.24a3.51 3.51 0 0 0 3.12 2.2z" transform="translate(-9.92 -9.43)"/>
                    <path class="cls-24" d="M817.76 278.68a3.51 3.51 0 0 0 3.12-2.2h-6.24a3.51 3.51 0 0 0 3.12 2.2z" transform="translate(-9.92 -9.43)"/>
                    <path class="cls-10" d="M838.81 278.5v4.08a2.19 2.19 0 0 0 1.93 2.17l5.73-2.56a1.37 1.37 0 0 1 .91-1.49h2.42l9.45-4.22h-7a3.31 3.31 0 0 1-6.24 0h-7.12a2.2 2.2 0 0 0 0 .39v1.63z" transform="translate(-9.92 -9.43)"/>
                    <path class="cls-24" d="M838.81 278.5v4.08a2.19 2.19 0 0 0 1.93 2.17l5.73-2.56a1.37 1.37 0 0 1 .91-1.49h2.42l9.45-4.22h-7a3.31 3.31 0 0 1-6.24 0h-7.12a2.2 2.2 0 0 0 0 .39v1.63z" transform="translate(-9.92 -9.43)"/>
                    <path class="cls-10" d="M847.38 280.7a1.37 1.37 0 0 0-.91 1.49l3.33-1.49h-2.42z" transform="translate(-9.92 -9.43)"/>
                    <path class="cls-14" d="M847.38 280.7a1.37 1.37 0 0 0-.91 1.49l3.33-1.49h-2.42z" transform="translate(-9.92 -9.43)"/>
                    <path class="cls-24" d="M847.38 280.7a1.37 1.37 0 0 0-.91 1.49l3.33-1.49h-2.42z" transform="translate(-9.92 -9.43)"/>
                    <path class="cls-16" d="M849.09 278.68a3.51 3.51 0 0 0 3.12-2.2H846a3.51 3.51 0 0 0 3.09 2.2z" transform="translate(-9.92 -9.43)"/>
                    <path class="cls-24" d="M849.09 278.68a3.51 3.51 0 0 0 3.12-2.2H846a3.51 3.51 0 0 0 3.09 2.2z" transform="translate(-9.92 -9.43)"/>
                    <path class="cls-25" d="M828 278.5a5.37 5.37 0 0 1 .64-2.1.82.82 0 0 1-.34.07h-.3a2.18 2.18 0 0 1 0 .39v1.63zM819.82 285.48h6a2.9 2.9 0 0 0 2.9-2.9v-3.94H828v3.95a2.2 2.2 0 0 1-2.2 2.2h-16.57a2.19 2.19 0 0 1-1.93-2.17v-5.7a2.18 2.18 0 0 1 0-.39h-.3a.81.81 0 0 1-.36-.09 2.89 2.89 0 0 0 0 .48v5.7a2.9 2.9 0 0 0 2.19 2.8 2.87 2.87 0 0 0 .72.1h10.34z" transform="translate(-9.92 -9.43)"/>
                    <path class="cls-25" d="M833.43 274a6.09 6.09 0 0 0-3 .69 4.34 4.34 0 0 0-1.25 1 .82.82 0 0 1-.48.71 5.37 5.37 0 0 0-.64 2.1v.13h.72a4.1 4.1 0 0 1 1.63-3.11 5.1 5.1 0 0 1 3-.84V274z" transform="translate(-9.92 -9.43)"/>
                    <path class="cls-26" d="M807 276.48h21.35a.83.83 0 0 0 .82-.78v-1a.83.83 0 0 0-.83-.83H807a.83.83 0 0 0-.83.83v1a.82.82 0 0 0 .47.74.81.81 0 0 0 .36.04z" transform="translate(-9.92 -9.43)"/>
                    <path class="cls-25" d="M859.52 276.48a2.18 2.18 0 0 1 0 .39v5.7a2.22 2.22 0 0 1-2.2 2.2H840.74a2.19 2.19 0 0 1-1.93-2.17v-3.95h-.71v3.94a2.9 2.9 0 0 0 2.9 2.9h16.36a2.86 2.86 0 0 0 .72-.1 2.9 2.9 0 0 0 2.19-2.8v-5.7a2.88 2.88 0 0 0 0-.48.81.81 0 0 1-.36.09h-.34zM838.81 278.5v-1.63a2.2 2.2 0 0 1 0-.39h-.34a.82.82 0 0 1-.33-.07 5.37 5.37 0 0 1 .67 2.09z" transform="translate(-9.92 -9.43)"/>
                    <path class="cls-25" d="M838.81 278.63v-.13a5.37 5.37 0 0 0-.64-2.1.82.82 0 0 1-.48-.71 4.34 4.34 0 0 0-1.25-1 6.09 6.09 0 0 0-3-.69v.72a5.08 5.08 0 0 1 3 .84 4.13 4.13 0 0 1 1.63 3.11h.71z" transform="translate(-9.92 -9.43)"/>
                    <path class="cls-26" d="M838.51 273.8a.83.83 0 0 0-.83.83v1a.83.83 0 0 0 .82.78h21.35a.81.81 0 0 0 .36-.09.82.82 0 0 0 .47-.74v-1a.83.83 0 0 0-.83-.83h-21.34z" transform="translate(-9.92 -9.43)"/>
                </g>
                <g class="cls-27">
                    <path class="cls-20" d="M201.52 347.31l1-.94h-.3l-.66.23v.71zM173.13 346.55l-.49-.17h-.47l1 .94v-.76z" transform="translate(-9.92 -9.43)"/>
                    <path class="cls-7" d="M188.26 360.23l8.32-8.1a50.06 50.06 0 0 1-18.51 0l8.32 8.11.93.19z" transform="translate(-9.92 -9.43)"/>
                    <path class="cls-9" d="M196.58 352.12l4.94-4.81v-.71a48.17 48.17 0 0 1-28.39-.06v.76l4.94 4.81a50.06 50.06 0 0 0 18.51.01z" transform="translate(-9.92 -9.43)"/>
                    <path class="cls-28" d="M182 370.36l-1.07 2.21a.78.78 0 0 1-1.34.28l-15.21-16.47h-5.44a13.72 13.72 0 0 0-2 .17 9.3 9.3 0 0 1 5.9 14.5 306.22 306.22 0 0 0-17.53 29.4v11.33h35.4l5.62-37.13zM211.85 371a9.3 9.3 0 0 1 5.9-14.5 13.72 13.72 0 0 0-2-.17h-5.44L195 372.84a.78.78 0 0 1-1.34-.28l-1.07-2.21-4.28 4.28 5.69 37.14h12.55l-2.64-1.17a2.3 2.3 0 0 1-1.37-2.1v-14.2a2.3 2.3 0 0 1 2.3-2.3h11.34v-2.67a1.3 1.3 0 0 1 1.14-1.28.48.48 0 0 1 .48-.48h.64a.48.48 0 0 1 .48.48 1.3 1.3 0 0 1 1.14 1.28V392h.1a2.3 2.3 0 0 1 2.3 2.3v14.2a2.3 2.3 0 0 1-1.37 2.1l-2.64 1.17h11v-11.33a306.29 306.29 0 0 0-17.6-29.44z" transform="translate(-9.92 -9.43)"/>
                    <path class="cls-28" d="M178.35 351.94l-.38-.78.37-.36-.93.2.94.94zM177.41 351l-.94-.19.37.35-.38.78.95-.94z"/>
                    <path class="cls-29" d="M217.3 388.06a1.3 1.3 0 0 0-1.14 1.28V392h1.14v-4zM220 392v-2.67a1.3 1.3 0 0 0-1.14-1.28v4H220z" transform="translate(-9.92 -9.43)"/>
                    <path class="cls-30" d="M222.43 408.5v-14.2a2.3 2.3 0 0 0-2.3-2.3h-1.24v5.23a.48.48 0 0 1-.48.48h-.64a.48.48 0 0 1-.48-.48V392h-12.47a2.3 2.3 0 0 0-2.3 2.3v14.2a2.3 2.3 0 0 0 1.37 2.1l2.64 1.17h11.88l2.64-1.17a2.3 2.3 0 0 0 1.38-2.1z" transform="translate(-9.92 -9.43)"/>
                    <path class="cls-31" d="M217.3 397.24a.48.48 0 0 0 .48.48h.64a.48.48 0 0 0 .48-.48V388a.48.48 0 0 0-.48-.48h-.64a.48.48 0 0 0-.48.48v9.22z" transform="translate(-9.92 -9.43)"/>
                    <path class="cls-29" d="M177.41 351l-.95.94-4.37 8.99 4.28 4.28 1.04-6.81 1.03 6.81 4.28-4.28-4.37-8.99-.94-.94z"/>
                    <path class="cls-28" d="M179.6 372.84a.78.78 0 0 0 1.34-.28l1.07-2.21-.92-.92-.44.69a.76.76 0 0 1-1.21.21l-15.05-14z" transform="translate(-9.92 -9.43)"/>
                    <path class="cls-22" d="M179.6 372.84a.78.78 0 0 0 1.34-.28l1.07-2.21-.92-.92-.44.69a.76.76 0 0 1-1.21.21l-15.05-14z" transform="translate(-9.92 -9.43)"/>
                    <path class="cls-28" d="M176.84 351.16l-.71 1.11.33-.33.38-.78z"/>
                    <path class="cls-22" d="M176.84 351.16l-.71 1.11.33-.33.38-.78z"/>
                    <path class="cls-29" d="M176.13 352.27l-4.95 7.74.91.92 4.37-8.99-.33.33z"/>
                    <path class="cls-22" d="M176.13 352.27l-4.95 7.74.91.92 4.37-8.99-.33.33z"/>
                    <path class="cls-28" d="M179.44 370.33a.76.76 0 0 0 1.21-.21l.44-.69 5-7.74.71-1.11-.37-.36-8.32-8.11-4.94-4.81-1-.94-7.78 10zM195.21 370.33a.76.76 0 0 1-1.21-.21l-.44-.69-.92.92 1.07 2.21a.78.78 0 0 0 1.34.28l15.21-16.47z" transform="translate(-9.92 -9.43)"/>
                    <path class="cls-22" d="M195.21 370.33a.76.76 0 0 1-1.21-.21l-.44-.69-.92.92 1.07 2.21a.78.78 0 0 0 1.34.28l15.21-16.47z" transform="translate(-9.92 -9.43)"/>
                    <path class="cls-28" d="M178.68 352.27l-.71-1.11.38.78.33.33z"/>
                    <path class="cls-22" d="M178.68 352.27l-.71-1.11.38.78.33.33z"/>
                    <path class="cls-29" d="M178.68 352.27l-.33-.33 4.37 8.99.92-.92-4.96-7.74z"/>
                    <path class="cls-22" d="M178.68 352.27l-.33-.33 4.37 8.99.92-.92-4.96-7.74z"/>
                    <path class="cls-28" d="M196.58 352.12l-8.32 8.1-.37.36.71 1.11 5 7.74.44.69a.76.76 0 0 0 1.21.21l15.05-14-7.78-10-1 .94z" transform="translate(-9.92 -9.43)"/>
                    <path class="cls-29" d="M177.41 358.4l-1.04 6.81-5.62 37.13h13.31l-5.62-37.13-1.03-6.81z"/>
                    <path class="cls-28" d="M162.8 371a9.32 9.32 0 0 0-15.25-10.71 331 331 0 0 0-28.48 51.44h20.5c1.9-4 3.81-7.77 5.69-11.33A306.22 306.22 0 0 1 162.8 371zM217.75 356.54a9.3 9.3 0 0 0-5.9 14.5 306.29 306.29 0 0 1 17.53 29.4c1.88 3.56 3.8 7.35 5.69 11.33h20.5a331 331 0 0 0-28.48-51.44 9.31 9.31 0 0 0-9.34-3.79z" transform="translate(-9.92 -9.43)"/>
                    <path class="cls-10" d="M177.42 307.33l-6 3.07a3 3 0 0 1 .3 1.36v1.91c0 1.1-.49 2-1.1 2h-9.45l-.44.23a9.43 9.43 0 0 0 16.69-8.57zM203.08 313.67v-.17l-4.66 2.39a9.43 9.43 0 0 0 15.79-.23h-10c-.64 0-1.13-.89-1.13-1.99zM191.07 302.85v1.62a11.33 11.33 0 0 1 4.37 2.74 11.37 11.37 0 0 1 6.82-7.19H189.7a3.65 3.65 0 0 1 1.37 2.83zM215.64 309.77a9.36 9.36 0 0 0-.55-2.43l-4.74 2.43h5.3zM183.74 302.85a3.65 3.65 0 0 1 1.37-2.83h-12.55a11.37 11.37 0 0 1 6.82 7.19 11.36 11.36 0 0 1 4.37-2.74v-1.62z" transform="translate(-9.92 -9.43)"/>
                    <path class="cls-10" d="M187.41 348.72a45.86 45.86 0 0 0 14.11-2.11l.66-.23c14.23-4.85 22.53-16.64 25-29.06a7.37 7.37 0 0 1 .83-13.67v-8.52h-3.5s2.71-25.13-3.51-31.27-9.86 10-33.6 10c-23.74 0-27.39-16.08-33.6-10s-3.55 31.27-3.55 31.27h-3.5v8.52a7.37 7.37 0 0 1 .83 13.67c2.51 12.42 10.82 24.2 25 29.06l.49.17a45.76 45.76 0 0 0 14.34 2.17zm-29-33.06h-.13c-.61 0-1.1-.89-1.1-2v-1.91a3.45 3.45 0 0 1 .06-.61v-.53a11.34 11.34 0 0 1 7.35-10.61h-4.52v-9.77l-.07-3.06a1.39 1.39 0 0 1 1.36-1.42l14.22-.32a1.39 1.39 0 0 1 1.43 1.36l.07 3.08a1.38 1.38 0 0 1-.05.39h20.69a1.39 1.39 0 0 1-.05-.39l.07-3.08a1.39 1.39 0 0 1 1.42-1.36l14.22.32a1.39 1.39 0 0 1 1.36 1.42l-.07 3.08V300h-4.52a11.34 11.34 0 0 1 7.35 10.59v.53a3.44 3.44 0 0 1 .06.62v1.91c0 1.1-.49 2-1.1 2h-.13a11.32 11.32 0 0 1-21.46-5c0-.36 0-.72.05-1.07a9.44 9.44 0 0 0-3.9-3.05v7.23a3.66 3.66 0 0 1-7.33 0v-7.23a9.46 9.46 0 0 0-3.9 3c0 .36.05.72.05 1.08a11.32 11.32 0 0 1-21.4 5.05zm40.33 10.56h5.42a12 12 0 0 1-12 12h-9.66a12 12 0 0 1-12-12h28.16z" transform="translate(-9.92 -9.43)"/>
                    <path class="cls-11" d="M183.74 306.48v7.23a3.66 3.66 0 0 0 7.33 0v-7.23a9.24 9.24 0 0 0-7.33 0zM183.74 302.85v1.62a11 11 0 0 1 7.33 0v-1.62a3.65 3.65 0 0 0-1.37-2.85h-4.58a3.65 3.65 0 0 0-1.38 2.85z" transform="translate(-9.92 -9.43)"/>
                    <path class="cls-8" d="M182.58 338.17h9.66a12 12 0 0 0 12-12h-33.62a12 12 0 0 0 11.96 12z" transform="translate(-9.92 -9.43)"/>
                    <path class="cls-10" d="M170.64 315.66c.61 0 1.1-.89 1.1-2v-1.91a3 3 0 0 0-.3-1.36l-10.25 5.26h9.45z" transform="translate(-9.92 -9.43)"/>
                    <path class="cls-14" d="M170.64 315.66c.61 0 1.1-.89 1.1-2v-1.91a3 3 0 0 0-.3-1.36l-10.25 5.26h9.45z" transform="translate(-9.92 -9.43)"/>
                    <path class="cls-10" d="M157.21 311.76v1.91c0 1.1.49 2 1.1 2h.13a11.24 11.24 0 0 1-1.18-4.51 3.45 3.45 0 0 0-.05.6z" transform="translate(-9.92 -9.43)"/>
                    <path class="cls-14" d="M157.21 311.76v1.91c0 1.1.49 2 1.1 2h.13a11.24 11.24 0 0 1-1.18-4.51 3.45 3.45 0 0 0-.05.6z" transform="translate(-9.92 -9.43)"/>
                    <path class="cls-10" d="M216.51 315.66c.61 0 1.1-.89 1.1-2v-1.91a3.44 3.44 0 0 0-.06-.62 11.23 11.23 0 0 1-1.18 4.52h.13z" transform="translate(-9.92 -9.43)"/>
                    <path class="cls-14" d="M216.51 315.66c.61 0 1.1-.89 1.1-2v-1.91a3.44 3.44 0 0 0-.06-.62 11.23 11.23 0 0 1-1.18 4.52h.13z" transform="translate(-9.92 -9.43)"/>
                    <path class="cls-10" d="M203.08 313.49v.17c0 1.1.49 2 1.1 2h10a9.38 9.38 0 0 0 1.48-5v-.84h-5.3z" transform="translate(-9.92 -9.43)"/>
                    <path class="cls-14" d="M203.08 313.49v.17c0 1.1.49 2 1.1 2h10a9.38 9.38 0 0 0 1.48-5v-.84h-5.3z" transform="translate(-9.92 -9.43)"/>
                    <path class="cls-7" d="M223 310.66a7.39 7.39 0 1 0 5.07-7 7.37 7.37 0 0 0-5.07 7zm5.08-2.23a4.23 4.23 0 1 1 0 7v-7z" transform="translate(-9.92 -9.43)"/>
                    <path class="cls-9" d="M234.71 311.9a4.23 4.23 0 0 0-6.64-3.48v7a4.23 4.23 0 0 0 6.64-3.52z" transform="translate(-9.92 -9.43)"/>
                    <path class="cls-7" d="M151.83 310.66a7.4 7.4 0 1 0-4.24 6.67 7.38 7.38 0 0 0 4.24-6.67zm-5.08 4.72a4.23 4.23 0 1 1 0-7v7z" transform="translate(-9.92 -9.43)"/>
                    <path class="cls-9" d="M140.11 311.9a4.23 4.23 0 0 0 6.64 3.48v-7a4.23 4.23 0 0 0-6.64 3.52z" transform="translate(-9.92 -9.43)"/>
                    <path class="cls-10" d="M168.57 297.36a4.2 4.2 0 0 1 3.71 2.56l.28.1h12.56a3.57 3.57 0 0 1 4.58 0h12.56l.28-.1a4 4 0 0 1 7.41 0l.28.1h4.52v-9.77a1.39 1.39 0 0 1-1.42 1.36l-14.22-.32a1.39 1.39 0 0 1-1.31-1h-20.74a1.39 1.39 0 0 1-1.31 1l-14.22.32a1.39 1.39 0 0 1-1.42-1.36V300h4.52l.28-.1a4.2 4.2 0 0 1 3.66-2.54z" transform="translate(-9.92 -9.43)"/>
                    <path class="cls-12" d="M168.57 297.36a4.2 4.2 0 0 1 3.71 2.56l.28.1h12.56a3.57 3.57 0 0 1 4.58 0h12.56l.28-.1a4 4 0 0 1 7.41 0l.28.1h4.52v-9.77a1.39 1.39 0 0 1-1.42 1.36l-14.22-.32a1.39 1.39 0 0 1-1.31-1h-20.74a1.39 1.39 0 0 1-1.31 1l-14.22.32a1.39 1.39 0 0 1-1.42-1.36V300h4.52l.28-.1a4.2 4.2 0 0 1 3.66-2.54z" transform="translate(-9.92 -9.43)"/>
                    <path class="cls-11" d="M187.41 299.18a3.63 3.63 0 0 0-2.29.83h4.58a3.62 3.62 0 0 0-2.29-.83z" transform="translate(-9.92 -9.43)"/>
                    <path class="cls-12" d="M187.41 299.18a3.63 3.63 0 0 0-2.29.83h4.58a3.62 3.62 0 0 0-2.29-.83z" transform="translate(-9.92 -9.43)"/>
                    <path class="cls-16" d="M210 299.91a4 4 0 0 0-7.41 0 11.13 11.13 0 0 1 7.41 0zM168.57 297.36a4.2 4.2 0 0 0-3.71 2.56 11.13 11.13 0 0 1 7.41 0 4.2 4.2 0 0 0-3.7-2.56z" transform="translate(-9.92 -9.43)"/>
                    <path class="cls-15" d="M161.53 291.6l14.22-.32a1.42 1.42 0 0 0 1.36-1.42l-.11-3.08a1.39 1.39 0 0 0-1.43-1.36l-14.22.32a1.39 1.39 0 0 0-1.36 1.42l.07 3.08a1.39 1.39 0 0 0 1.47 1.36zM199.07 291.28l14.22.32a1.39 1.39 0 0 0 1.42-1.36l.07-3.08a1.39 1.39 0 0 0-1.36-1.42l-14.22-.32a1.39 1.39 0 0 0-1.42 1.36l-.07 3.08a1.42 1.42 0 0 0 1.36 1.42z" transform="translate(-9.92 -9.43)"/>
                    <path class="cls-15" d="M153.8 263.86c6.21-6.1 9.86 10 33.6 10 23.74 0 27.39-16.08 33.6-10s3.55 31.27 3.55 31.27h3.51s8.42-16.18 4.52-34.07c-6.18-28.36-45.18-27.87-45.18-27.87s-39-.49-45.18 27.87c-3.9 17.89 4.52 34.07 4.52 34.07h3.51s-2.66-25.13 3.55-31.27z" transform="translate(-9.92 -9.43)"/>
                    <path class="cls-32" d="M179.9 310.61c0-.37 0-.73-.05-1.08l-.12.15a.94.94 0 1 1-1.53-1.1 11.27 11.27 0 0 1 1.19-1.38 11.37 11.37 0 0 0-6.82-7.19l-.28-.1a11.13 11.13 0 0 0-7.41 0l-.28.1a11.34 11.34 0 0 0-7.35 10.59v.53a11.32 11.32 0 0 0 22.65-.52zM168.57 320a9.44 9.44 0 0 1-7.83-4.16l-.85.43a10.38 10.38 0 1 1 18.36-9.42l-.85.43a9.42 9.42 0 0 1-8.83 12.72z" transform="translate(-9.92 -9.43)"/>
                    <path class="cls-32" d="M191.07 304.46a11.49 11.49 0 0 0-12.88 4.12.94.94 0 1 0 1.53 1.1l.12-.15a9.44 9.44 0 0 1 15.12 0 11.25 11.25 0 0 1 .47-2.33 11.33 11.33 0 0 0-4.36-2.74z" transform="translate(-9.92 -9.43)"/>
                    <path class="cls-32" d="M206.24 299.28a11.26 11.26 0 0 0-3.71.63l-.28.1a11.37 11.37 0 0 0-6.82 7.19 11.25 11.25 0 0 0-.47 2.33c0 .35-.05.71-.05 1.07a11.32 11.32 0 0 0 22.64.53v-.53a11.34 11.34 0 0 0-7.32-10.6l-.28-.1a11.26 11.26 0 0 0-3.71-.62zm9.69 7.62l-.85.43a9.36 9.36 0 0 1 .55 2.43v.84a9.44 9.44 0 0 1-17.27 5.28l-.85.43a10.38 10.38 0 1 1 18.43-9.41z" transform="translate(-9.92 -9.43)"/>
                    <path class="cls-10" d="M210.5 302.19v.16c0 2.76-1.91 5-4.27 5s-4.27-2.23-4.27-5v-.16a9.42 9.42 0 0 0-3.57 13.69l4.66-2.39v-1.74c0-1.1.49-2 1.1-2h6.17l4.74-2.43a9.48 9.48 0 0 0-4.56-5.13z" transform="translate(-9.92 -9.43)"/>
                    <path class="cls-24" d="M210.5 302.19v.16c0 2.76-1.91 5-4.27 5s-4.27-2.23-4.27-5v-.16a9.42 9.42 0 0 0-3.57 13.69l4.66-2.39v-1.74c0-1.1.49-2 1.1-2h6.17l4.74-2.43a9.48 9.48 0 0 0-4.56-5.13z" transform="translate(-9.92 -9.43)"/>
                    <path class="cls-10" d="M204.18 309.77c-.61 0-1.1.89-1.1 2v1.74l7.27-3.73h-6.17z" transform="translate(-9.92 -9.43)"/>
                    <path class="cls-14" d="M204.18 309.77c-.61 0-1.1.89-1.1 2v1.74l7.27-3.73h-6.17z" transform="translate(-9.92 -9.43)"/>
                    <path class="cls-24" d="M204.18 309.77c-.61 0-1.1.89-1.1 2v1.74l7.27-3.73h-6.17z" transform="translate(-9.92 -9.43)"/>
                    <path class="cls-16" d="M206.24 307.34c2.36 0 4.27-2.23 4.27-5v-.16a9.35 9.35 0 0 0-8.51 0v.16c0 2.76 1.89 5 4.24 5z" transform="translate(-9.92 -9.43)"/>
                    <path class="cls-24" d="M206.24 307.34c2.36 0 4.27-2.23 4.27-5v-.16a9.35 9.35 0 0 0-8.51 0v.16c0 2.76 1.89 5 4.24 5z" transform="translate(-9.92 -9.43)"/>
                    <path class="cls-32" d="M206.24 300.22a10.38 10.38 0 0 0-8.67 16.1l.85-.43a9.44 9.44 0 1 1 16.67-8.55l.85-.43a10.38 10.38 0 0 0-9.7-6.69z" transform="translate(-9.92 -9.43)"/>
                    <path class="cls-24" d="M206.24 300.22a10.38 10.38 0 0 0-8.67 16.1l.85-.43a9.44 9.44 0 1 1 16.67-8.55l.85-.43a10.38 10.38 0 0 0-9.7-6.69z" transform="translate(-9.92 -9.43)"/>
                    <path class="cls-10" d="M172.83 302.19v.16c0 2.76-1.91 5-4.27 5s-4.27-2.23-4.27-5v-.16a9.45 9.45 0 0 0-5.14 7.58h11.46a1 1 0 0 1 .8.64l6-3.07a9.48 9.48 0 0 0-4.58-5.15z" transform="translate(-9.92 -9.43)"/>
                    <path class="cls-24" d="M172.83 302.19v.16c0 2.76-1.91 5-4.27 5s-4.27-2.23-4.27-5v-.16a9.45 9.45 0 0 0-5.14 7.58h11.46a1 1 0 0 1 .8.64l6-3.07a9.48 9.48 0 0 0-4.58-5.15z" transform="translate(-9.92 -9.43)"/>
                    <path class="cls-10" d="M160.61 315.66l.14.23.44-.23h-.58z" transform="translate(-9.92 -9.43)"/>
                    <path class="cls-24" d="M160.61 315.66l.14.23.44-.23h-.58z" transform="translate(-9.92 -9.43)"/>
                    <path class="cls-10" d="M170.64 309.77h-11.47v.84a9.38 9.38 0 0 0 1.48 5h.58l10.25-5.26a1 1 0 0 0-.84-.58z" transform="translate(-9.92 -9.43)"/>
                    <path class="cls-14" d="M170.64 309.77h-11.47v.84a9.38 9.38 0 0 0 1.48 5h.58l10.25-5.26a1 1 0 0 0-.84-.58z" transform="translate(-9.92 -9.43)"/>
                    <path class="cls-24" d="M170.64 309.77h-11.47v.84a9.38 9.38 0 0 0 1.48 5h.58l10.25-5.26a1 1 0 0 0-.84-.58z" transform="translate(-9.92 -9.43)"/>
                    <path class="cls-16" d="M168.57 307.34c2.36 0 4.27-2.23 4.27-5v-.16a9.35 9.35 0 0 0-8.51 0v.16c-.03 2.76 1.88 5 4.24 5z" transform="translate(-9.92 -9.43)"/>
                    <path class="cls-24" d="M168.57 307.34c2.36 0 4.27-2.23 4.27-5v-.16a9.35 9.35 0 0 0-8.51 0v.16c-.03 2.76 1.88 5 4.24 5z" transform="translate(-9.92 -9.43)"/>
                    <path class="cls-32" d="M159.13 310.61v-.84a9.43 9.43 0 0 1 18.25-2.43l.85-.43a10.38 10.38 0 1 0-18.36 9.42l.85-.43-.14-.23a9.38 9.38 0 0 1-1.45-5.06z" transform="translate(-9.92 -9.43)"/>
                    <path class="cls-24" d="M159.13 310.61v-.84a9.43 9.43 0 0 1 18.25-2.43l.85-.43a10.38 10.38 0 1 0-18.36 9.42l.85-.43-.14-.23a9.38 9.38 0 0 1-1.45-5.06z" transform="translate(-9.92 -9.43)"/>
                </g>
                <g class="cls-33">
                    <path class="cls-34" d="M636.92 208.46a8.91 8.91 0 0 1 5.25-1.62 13.66 13.66 0 0 0-3-.34h-15.43v7.1a13.43 13.43 0 0 1-13.43 13.4h-1.81a13.43 13.43 0 0 1-13.43-13.43v-7.1h-15.43a13.66 13.66 0 0 0-3 .34 9 9 0 0 1 7.45 14.19c-.09.13-5 7.26-11.51 18.5h73.67c-6.47-11.25-11.42-18.37-11.51-18.5a9 9 0 0 1 2.18-12.54z" transform="translate(-9.92 -9.43)"/>
                    <path class="cls-10" d="M608.5 227h1.81a13.43 13.43 0 0 0 13.43-13.43v-7.1h-.14v2.4h-28.39v-2.4h-.14v7.1A13.43 13.43 0 0 0 608.5 227z" transform="translate(-9.92 -9.43)"/>
                    <path class="cls-10" d="M595.21 208.89h28.39v-12.58V201a48.27 48.27 0 0 1-28.39 0v7.91z" transform="translate(-9.92 -9.43)"/>
                    <path class="cls-34" d="M581.9 208.46a8.91 8.91 0 0 0-5.25-1.62 9.08 9.08 0 0 0-1.46.13 8.92 8.92 0 0 0-5.8 3.69A309.4 309.4 0 0 0 552 239.47h20.59C579 228.23 584 221.1 584.09 221a9 9 0 0 0-2.19-12.54zM643.63 207a9.07 9.07 0 0 0-1.46-.13 9 9 0 0 0-7.44 14.13c.09.13 5 7.26 11.51 18.5h20.59a309.41 309.41 0 0 0-17.4-28.83 8.92 8.92 0 0 0-5.8-3.67z" transform="translate(-9.92 -9.43)"/>
                    <path class="cls-6" d="M585.46 80a56.62 56.62 0 0 1 47.9 0 3.12 3.12 0 0 1 1.73 2.19 26.43 26.43 0 1 0-51.36 0 3.12 3.12 0 0 1 1.73-2.19z" transform="translate(-9.92 -9.43)"/>
                    <path class="cls-35" d="M609.41 78.77a51.87 51.87 0 0 1 24.92 6.34l.46-.85a3 3 0 0 0 .29-2.1 3.12 3.12 0 0 0-1.73-2.16 56.62 56.62 0 0 0-47.9 0 3.12 3.12 0 0 0-1.73 2.19 3 3 0 0 0 .29 2.1l.46.85a51.87 51.87 0 0 1 24.94-6.37z" transform="translate(-9.92 -9.43)"/>
                    <path class="cls-6" d="M568.75 153.39v-18.75c-2.07.17-3.32.19-3.32.19l-3.33-14.43 6.65-18 40.66-11.5 40.65 11.54 6.65 18-3.32 14.42s-1.25 0-3.32-.19v18.75a7.32 7.32 0 0 1 6 .64 52.1 52.1 0 1 0-93.35 0 7.32 7.32 0 0 1 6.03-.67z" transform="translate(-9.92 -9.43)"/>
                    <path class="cls-9" d="M623.6 201v-4.66a48.17 48.17 0 0 1-28.39 0V201a48.27 48.27 0 0 0 28.39 0z" transform="translate(-9.92 -9.43)"/>
                    <path class="cls-10" d="M609.41 198.45a45.81 45.81 0 0 0 14.19-2.14c14.59-4.73 23.08-16.67 25.63-29.25a7.37 7.37 0 0 1 .83-13.67v-18.75c-36.22 1.07-40.29-22.16-40.65-29.8-.36 7.64-4.43 30.87-40.65 29.8v18.75a7.37 7.37 0 0 1 .83 13.67c2.55 12.59 11 24.53 25.63 29.25a45.81 45.81 0 0 0 14.19 2.14zM592.62 176h33.58a12 12 0 0 1-12 12h-9.66a12 12 0 0 1-11.92-12zm13.6-14.14v-6.54a3.19 3.19 0 1 1 6.38 0v6.54a3.19 3.19 0 1 1-6.38-.05zm26.29 10.56a6 6 0 1 1 6-6 6 6 0 0 1-6 5.95zm-50.45-23.14V138.79a1.23 1.23 0 0 1 1.37-.84l14.22-.32a1.23 1.23 0 0 1 1.41.78v1.6h20.57v-1.6a1.23 1.23 0 0 1 1.41-.78l14.22.32a1.23 1.23 0 0 1 1.37.84v10.98h-.16a1 1 0 0 1-.88.52h-3.5a5.7 5.7 0 0 1 .3 1.81c0 2.76-1.91 5-4.27 5s-4.27-2.23-4.27-5a5.6 5.6 0 0 1 .52-2.33h-30.05a5.6 5.6 0 0 1 .52 2.33c0 2.76-1.91 5-4.27 5s-4.27-2.23-4.27-5a5.7 5.7 0 0 1 .3-1.81h-3.5a1 1 0 0 1-.88-.52h-.16v-.52zm4.24 11.16a6 6 0 1 1-6 6 6 6 0 0 1 6-6.05z" transform="translate(-9.92 -9.43)"/>
                    <path class="cls-11" d="M612.59 161.81v-6.54a3.19 3.19 0 1 0-6.38 0v6.54a3.19 3.19 0 1 0 6.38 0z" transform="translate(-9.92 -9.43)"/>
                    <path class="cls-8" d="M604.57 187.91h9.66a12 12 0 0 0 12-12h-33.61a12 12 0 0 0 11.95 12z" transform="translate(-9.92 -9.43)"/>
                    <path class="cls-7" d="M650.06 153.39a7.32 7.32 0 1 0 2.31-.37 7.38 7.38 0 0 0-2.31.37zm6.65 8.25a4.23 4.23 0 0 1-6.64 3.48v-7a4.23 4.23 0 0 1 6.64 3.51z" transform="translate(-9.92 -9.43)"/>
                    <path class="cls-9" d="M650.07 165.11a4.23 4.23 0 1 0 0-7v7z" transform="translate(-9.92 -9.43)"/>
                    <path class="cls-7" d="M573.83 160.39a7.4 7.4 0 1 0-4.24 6.67 7.38 7.38 0 0 0 4.24-6.67zm-7.49 5.48a4.23 4.23 0 1 1 2.41-7.71v7a4.21 4.21 0 0 1-2.41.71z" transform="translate(-9.92 -9.43)"/>
                    <path class="cls-9" d="M568.75 134.64c36.22 1.07 40.29-22.16 40.65-29.8v-1c-1.08 25.33-30.6 29.96-40.65 30.8zM650.06 134.64c-10.24-.86-40.66-5.63-40.66-32.2v2.41c.36 7.64 4.43 30.87 40.65 29.8zM568.75 158.16a4.23 4.23 0 1 0 0 7v-7z" transform="translate(-9.92 -9.43)"/>
                    <path class="cls-10" d="M636.75 149.75v-.52a1 1 0 0 1-.16.52h.16z" transform="translate(-9.92 -9.43)"/>
                    <path class="cls-12" d="M636.75 149.75v-.52a1 1 0 0 1-.16.52h.16z" transform="translate(-9.92 -9.43)"/>
                    <path class="cls-10" d="M583.1 148.2h4.82a3.88 3.88 0 0 1 2.65-1.11 4.23 4.23 0 0 1 3.75 2.66h30.17a4.23 4.23 0 0 1 3.75-2.66 3.88 3.88 0 0 1 2.65 1.11h4.82a1 1 0 0 1 1 1V140v.58a1.23 1.23 0 0 1-1.41.78l-14.24-.36a1.23 1.23 0 0 1-1.37-.84V140h-20.57v.2a1.23 1.23 0 0 1-1.37.84l-14.22.32a1.23 1.23 0 0 1-1.41-.78V140v9.25a1 1 0 0 1 .98-1.05z" transform="translate(-9.92 -9.43)"/>
                    <path class="cls-12" d="M583.1 148.2h4.82a3.88 3.88 0 0 1 2.65-1.11 4.23 4.23 0 0 1 3.75 2.66h30.17a4.23 4.23 0 0 1 3.75-2.66 3.88 3.88 0 0 1 2.65 1.11h4.82a1 1 0 0 1 1 1V140v.58a1.23 1.23 0 0 1-1.41.78l-14.24-.36a1.23 1.23 0 0 1-1.37-.84V140h-20.57v.2a1.23 1.23 0 0 1-1.37.84l-14.22.32a1.23 1.23 0 0 1-1.41-.78V140v9.25a1 1 0 0 1 .98-1.05z" transform="translate(-9.92 -9.43)"/>
                    <path class="cls-10" d="M582.06 149.23v.52h.16a1 1 0 0 1-.16-.52z" transform="translate(-9.92 -9.43)"/>
                    <path class="cls-12" d="M582.06 149.23v.52h.16a1 1 0 0 1-.16-.52z" transform="translate(-9.92 -9.43)"/>
                    <path class="cls-13" d="M629.18 149.23a1 1 0 0 1 1-1h.68a3.88 3.88 0 0 0-2.65-1.11 4.23 4.23 0 0 0-3.75 2.66 5.6 5.6 0 0 0-.52 2.33c0 2.76 1.91 5 4.27 5s4.27-2.23 4.27-5a5.7 5.7 0 0 0-.3-1.81h-2a1 1 0 0 1-1-1.07zM590.57 147.09a3.88 3.88 0 0 0-2.65 1.11h.68a1 1 0 0 1 0 2.07h-2a5.7 5.7 0 0 0-.3 1.81c0 2.76 1.91 5 4.27 5s4.27-2.23 4.27-5a5.6 5.6 0 0 0-.52-2.33 4.23 4.23 0 0 0-3.75-2.66z" transform="translate(-9.92 -9.43)"/>
                    <circle class="cls-10" cx="622.59" cy="156.95" r="5.99"/>
                    <circle class="cls-14" cx="622.59" cy="156.95" r="5.99"/>
                    <circle class="cls-10" cx="576.38" cy="156.95" r="5.99"/>
                    <circle class="cls-14" cx="576.38" cy="156.95" r="5.99"/>
                    <path class="cls-13" d="M583.1 150.27h5.5a1 1 0 0 0 0-2.07h-5.5a1 1 0 0 0-1 1 1 1 0 0 0 .16.52 1 1 0 0 0 .84.55zM635.71 148.2h-5.5a1 1 0 0 0 0 2.07h5.5a1 1 0 0 0 .88-.52 1 1 0 0 0 .16-.52 1 1 0 0 0-1.04-1.03z" transform="translate(-9.92 -9.43)"/>
                    <path class="cls-15" d="M621.06 141l14.22.32a1.23 1.23 0 0 0 1.41-.78v-1.75a1.23 1.23 0 0 0-1.37-.84l-14.22-.32a1.23 1.23 0 0 0-1.41.78v1.8a1.23 1.23 0 0 0 1.37.79zM583.52 141.34l14.22-.32a1.23 1.23 0 0 0 1.37-.84v-1.78a1.23 1.23 0 0 0-1.41-.78l-14.22.32a1.23 1.23 0 0 0-1.37.84v1.79a1.23 1.23 0 0 0 1.41.77z" transform="translate(-9.92 -9.43)"/>
                    <path class="cls-6" d="M599.49 81.47z"/>
                    <path class="cls-6" d="M609.38 103.84V90.9l-40.65 11.53-6.65 18 3.32 14.42s1.25 0 3.32-.19c10.08-.86 39.6-5.49 40.66-30.82zM609.41 102.44c0 26.56 30.42 31.34 40.66 32.2 2.07.17 3.32.19 3.32.19l3.32-14.42-6.65-18-40.65-11.51v11.54z" transform="translate(-9.92 -9.43)"/>
                </g>
                <g class="cls-36">
                    <path class="cls-20" d="M118.41 609.69l.8-.78H118.41v.75zM94.64 608.94H93.84l.8.78v-.75z" transform="translate(-9.92 -9.43)"/>
                    <path class="cls-7" d="M107.3 620.51l7-6.79a41.92 41.92 0 0 1-15.5 0l7 6.8.77.14z" transform="translate(-9.92 -9.43)"/>
                    <path class="cls-9" d="M114.28 613.72l4.13-4v-.75a40.33 40.33 0 0 1-23.77 0v.75l4.13 4a41.92 41.92 0 0 0 15.51 0z" transform="translate(-9.92 -9.43)"/>
                    <path class="cls-8" d="M127.06 629.55a7.79 7.79 0 0 1 4.94-12.14 11.49 11.49 0 0 0-1.71-.14h-4.56L113 631.06a.66.66 0 0 1-1.12-.23L111 629l-3.58 3.59 4.75 31.35h11.06l-2.8-1.23a1.92 1.92 0 0 1-1.15-1.76V649a1.92 1.92 0 0 1 1.92-1.92h.3v-2.23a1.09 1.09 0 0 1 1-1.07.4.4 0 0 1 .4-.4h.53a.4.4 0 0 1 .4.4 1.09 1.09 0 0 1 1 1.07v2.23H134a1.92 1.92 0 0 1 1.92 1.92v11.89a1.92 1.92 0 0 1-1.15 1.76l-2.8 1.23h9.77v-9.75a256.5 256.5 0 0 0-14.68-24.58zM102.08 629l-.9 1.85a.66.66 0 0 1-1.12.23l-12.74-13.81h-4.56a11.48 11.48 0 0 0-1.71.14A7.79 7.79 0 0 1 86 629.55a256.32 256.32 0 0 0-14.68 24.62v9.75h29.61l4.75-31.35z" transform="translate(-9.92 -9.43)"/>
                    <path class="cls-8" d="M97.4 612.03l-.32-.65.3-.3-.77.16.79.79zM96.61 611.24l-.77-.15.29.29-.32.65.8-.79z"/>
                    <path class="cls-37" d="M122.43 643.8a1.09 1.09 0 0 0-1 1.07v2.23h1v-3.3zM124.72 647.11v-2.23a1.09 1.09 0 0 0-1-1.07v3.31h1z" transform="translate(-9.92 -9.43)"/>
                    <path class="cls-38" d="M135.92 660.92V649a1.92 1.92 0 0 0-1.92-1.92h-10.24v4.38a.4.4 0 0 1-.4.4h-.53a.4.4 0 0 1-.4-.4v-4.38h-1.25a1.92 1.92 0 0 0-1.92 1.92v11.89a1.92 1.92 0 0 0 1.15 1.76l2.8 1.23H132l2.8-1.23a1.92 1.92 0 0 0 1.12-1.73z" transform="translate(-9.92 -9.43)"/>
                    <path class="cls-31" d="M122.43 651.49a.4.4 0 0 0 .4.4h.53a.4.4 0 0 0 .4-.4v-7.72a.4.4 0 0 0-.4-.4h-.53a.4.4 0 0 0-.4.4v7.72z" transform="translate(-9.92 -9.43)"/>
                    <path class="cls-21" d="M96.61 611.24l-.8.79-3.65 7.53 3.58 3.58.87-5.7.86 5.7 3.58-3.58-3.65-7.53-.79-.79z"/>
                    <path class="cls-8" d="M100.06 631.06a.66.66 0 0 0 1.12-.23l.9-1.85-.77-.77-.37.58a.64.64 0 0 1-1 .17l-12.6-11.69z" transform="translate(-9.92 -9.43)"/>
                    <path class="cls-22" d="M100.06 631.06a.66.66 0 0 0 1.12-.23l.9-1.85-.77-.77-.37.58a.64.64 0 0 1-1 .17l-12.6-11.69z" transform="translate(-9.92 -9.43)"/>
                    <path class="cls-8" d="M96.13 611.38l-.59.93.27-.28.32-.65z"/>
                    <path class="cls-22" d="M96.13 611.38l-.59.93.27-.28.32-.65z"/>
                    <path class="cls-21" d="M95.54 612.31l-4.15 6.48.77.77 3.65-7.53-.27.28z"/>
                    <path class="cls-22" d="M95.54 612.31l-4.15 6.48.77.77 3.65-7.53-.27.28z"/>
                    <path class="cls-8" d="M99.92 629a.64.64 0 0 0 1-.17l.37-.58 4.15-6.48.59-.93-.29-.29-7-6.8-4.13-4-.8-.78-6.52 8.36z" transform="translate(-9.92 -9.43)"/>
                    <path class="cls-8" d="M97.67 612.31l-.59-.93.32.65.27.28z"/>
                    <path class="cls-22" d="M97.67 612.31l-.59-.93.32.65.27.28z"/>
                    <path class="cls-8" d="M113.13 629a.64.64 0 0 1-1-.17l-.37-.58-.76.75.9 1.85a.66.66 0 0 0 1.12.23l12.74-13.79z" transform="translate(-9.92 -9.43)"/>
                    <path class="cls-22" d="M113.13 629a.64.64 0 0 1-1-.17l-.37-.58-.76.75.9 1.85a.66.66 0 0 0 1.12.23l12.74-13.79z" transform="translate(-9.92 -9.43)"/>
                    <path class="cls-21" d="M97.67 612.31l-.27-.28 3.65 7.53.77-.77-4.15-6.48z"/>
                    <path class="cls-22" d="M97.67 612.31l-.27-.28 3.65 7.53.77-.77-4.15-6.48z"/>
                    <path class="cls-8" d="M114.28 613.72l-7 6.79-.3.29.59.93 4.15 6.48.37.58a.64.64 0 0 0 1 .17l12.6-11.69-6.52-8.36-.8.78z" transform="translate(-9.92 -9.43)"/>
                    <path class="cls-21" d="M96.61 617.44l-.87 5.7-4.75 31.35h11.23l-4.75-31.35-.86-5.7z"/>
                    <path class="cls-10" d="M106.53 610.73a38.36 38.36 0 0 0 11.89-1.79h.09c12.16-4 19.24-14 21.37-24.46a6.17 6.17 0 0 1 .7-11.45v-7.21H138c.13-3.62.17-17.72-6.76-23.1-5.81-3.85-21.12 6.9-33.78 10.32a31.37 31.37 0 0 1-20.93-1.46 49.69 49.69 0 0 0-1.53 14.2h-2.51V573a6.17 6.17 0 0 1 .7 11.45c2.13 10.51 9.21 20.48 21.37 24.46h.09a38.36 38.36 0 0 0 11.88 1.82zm25.29-30.95v1.6c0 .92-.41 1.67-.92 1.67h-10.33c-.51 0-.92-.75-.92-1.67v-1.6c0-.92.41-1.67.92-1.67h10.32c.51 0 .92.75.92 1.67zM84.74 558l11.91-.27a1.17 1.17 0 0 1 1.19 1.14l.06 2.58a1.16 1.16 0 0 1 0 .32h17.33a1.14 1.14 0 0 1 0-.32l.06-2.58a1.17 1.17 0 0 1 1.19-1.14l11.83.27a1.17 1.17 0 0 1 1.14 1.19l-.06 2.58v8.18h-4a4.69 4.69 0 0 1 .43 2c0 2.31-1.6 4.18-3.58 4.18s-3.58-1.87-3.58-4.18a4.69 4.69 0 0 1 .43-2h-10.65a3.05 3.05 0 0 1 1.15 2.37v9.1a3.07 3.07 0 0 1-6.14 0v-9.1a3.05 3.05 0 0 1 1.15-2.37H93.9a4.69 4.69 0 0 1 .43 2c0 2.31-1.6 4.18-3.58 4.18s-3.58-1.87-3.58-4.18a4.69 4.69 0 0 1 .43-2h-4v-8.18l-.06-2.58a1.17 1.17 0 0 1 1.2-1.19zm-3.5 23.38v-1.6c0-.92.41-1.67.92-1.67h10.32c.51 0 .92.75.92 1.67v1.6c0 .92-.41 1.67-.92 1.67H82.16c-.51-.05-.92-.75-.92-1.67zM116 591.89h4.54a10 10 0 0 1-10 10h-8.09a10 10 0 0 1-10-10H116z" transform="translate(-9.92 -9.43)"/>
                    <path class="cls-11" d="M103.46 572.32v9.1a3.07 3.07 0 0 0 6.14 0v-9.1a3.05 3.05 0 0 0-1.15-2.37h-3.83a3.05 3.05 0 0 0-1.16 2.37z" transform="translate(-9.92 -9.43)"/>
                    <path class="cls-8" d="M102.48 601.9h8.09a10 10 0 0 0 10-10h-28.1a10 10 0 0 0 10.01 10z" transform="translate(-9.92 -9.43)"/>
                    <path class="cls-10" d="M93.4 581.38v-1.6c0-.92-.41-1.67-.92-1.67H82.16c-.51 0-.92.75-.92 1.67v1.6c0 .92.41 1.67.92 1.67h10.32c.52-.05.92-.75.92-1.67z" transform="translate(-9.92 -9.43)"/>
                    <path class="cls-14" d="M93.4 581.38v-1.6c0-.92-.41-1.67-.92-1.67H82.16c-.51 0-.92.75-.92 1.67v1.6c0 .92.41 1.67.92 1.67h10.32c.52-.05.92-.75.92-1.67z" transform="translate(-9.92 -9.43)"/>
                    <path class="cls-10" d="M119.65 579.78v1.6c0 .92.41 1.67.92 1.67h10.32c.51 0 .92-.75.92-1.67v-1.6c0-.92-.41-1.67-.92-1.67h-10.32c-.51 0-.92.75-.92 1.67z" transform="translate(-9.92 -9.43)"/>
                    <path class="cls-14" d="M119.65 579.78v1.6c0 .92.41 1.67.92 1.67h10.32c.51 0 .92-.75.92-1.67v-1.6c0-.92-.41-1.67-.92-1.67h-10.32c-.51 0-.92.75-.92 1.67z" transform="translate(-9.92 -9.43)"/>
                    <path class="cls-9" d="M114.78 543.56c-11.64 6.07-25.55 9.55-37.34 5.33a26.3 26.3 0 0 0-.9 2.66A31.37 31.37 0 0 0 97.48 553c12.66-3.42 28-14.17 33.78-10.32-3.47-2.68-8.67-3.2-16.48.88z" transform="translate(-9.92 -9.43)"/>
                    <path class="cls-7" d="M136.32 578.86a6.19 6.19 0 1 0 4.25-5.86 6.17 6.17 0 0 0-4.25 5.86zm4.25-1.87a3.54 3.54 0 1 1 0 5.82V577z" transform="translate(-9.92 -9.43)"/>
                    <path class="cls-9" d="M146.13 579.9a3.54 3.54 0 0 0-5.56-2.91v5.82a3.54 3.54 0 0 0 5.56-2.91z" transform="translate(-9.92 -9.43)"/>
                    <path class="cls-7" d="M76.73 578.86a6.19 6.19 0 1 0-3.55 5.58 6.18 6.18 0 0 0 3.55-5.58zm-4.25 4a3.54 3.54 0 1 1 0-5.82v5.82z" transform="translate(-9.92 -9.43)"/>
                    <path class="cls-9" d="M66.92 579.9a3.54 3.54 0 0 0 5.56 2.91V577a3.54 3.54 0 0 0-5.56 2.9z" transform="translate(-9.92 -9.43)"/>
                    <path class="cls-10" d="M96.76 562.64l-11.91.27a1.17 1.17 0 0 1-1.19-1.14v8.18h4a3.33 3.33 0 0 1 6.29 0h10.71a3 3 0 0 1 3.83 0h10.71a3.33 3.33 0 0 1 6.29 0h4v-8.18a1.17 1.17 0 0 1-1.19 1.14l-11.91-.27a1.16 1.16 0 0 1-1.1-.87H97.86a1.16 1.16 0 0 1-1.1.87z" transform="translate(-9.92 -9.43)"/>
                    <path class="cls-12" d="M96.76 562.64l-11.91.27a1.17 1.17 0 0 1-1.19-1.14v8.18h4a3.33 3.33 0 0 1 6.29 0h10.71a3 3 0 0 1 3.83 0h10.71a3.33 3.33 0 0 1 6.29 0h4v-8.18a1.17 1.17 0 0 1-1.19 1.14l-11.91-.27a1.16 1.16 0 0 1-1.1-.87H97.86a1.16 1.16 0 0 1-1.1.87z" transform="translate(-9.92 -9.43)"/>
                    <path class="cls-11" d="M104.61 569.95h3.83a3 3 0 0 0-3.83 0z" transform="translate(-9.92 -9.43)"/>
                    <path class="cls-12" d="M104.61 569.95h3.83a3 3 0 0 0-3.83 0z" transform="translate(-9.92 -9.43)"/>
                    <path class="cls-15" d="M76.54 551.55a26.3 26.3 0 0 1 .9-2.66c11.79 4.22 25.7.75 37.34-5.33 7.8-4.07 13-3.56 16.47-.87 6.93 5.38 6.89 19.47 6.76 23.1h3c4.4-8.69 3.6-31.27-.48-36.62C119.8 502 93.13 535 89.29 514.11c-20.13-6.83-30.47 19.11-19.16 30.46-.25 7.34.32 15.92 2.06 21.21H75a49.69 49.69 0 0 1 1.54-14.23z" transform="translate(-9.92 -9.43)"/>
                    <path class="cls-16" d="M122.3 567.72a3.54 3.54 0 0 0-3.14 2.23 4.69 4.69 0 0 0-.43 2c0 2.31 1.6 4.18 3.58 4.18s3.58-1.87 3.58-4.18a4.69 4.69 0 0 0-.43-2 3.54 3.54 0 0 0-3.16-2.23zM90.75 567.72a3.54 3.54 0 0 0-3.14 2.23 4.69 4.69 0 0 0-.43 2c0 2.31 1.6 4.18 3.58 4.18s3.58-1.87 3.58-4.18a4.69 4.69 0 0 0-.43-2 3.54 3.54 0 0 0-3.16-2.23z" transform="translate(-9.92 -9.43)"/>
                    <path class="cls-15" d="M84.85 562.91l11.91-.27a1.19 1.19 0 0 0 1.14-1.19l-.06-2.58a1.17 1.17 0 0 0-1.19-1.14l-11.91.27a1.17 1.17 0 0 0-1.14 1.19l.06 2.58a1.17 1.17 0 0 0 1.19 1.14zM116.29 562.64l11.91.27a1.17 1.17 0 0 0 1.19-1.14l.06-2.58a1.17 1.17 0 0 0-1.14-1.19l-11.91-.27a1.17 1.17 0 0 0-1.19 1.14l-.06 2.58a1.14 1.14 0 0 0 0 .32 1.16 1.16 0 0 0 1.14.87z" transform="translate(-9.92 -9.43)"/>
                    <path class="cls-8" d="M86 629.55a7.8 7.8 0 0 0-12.77-9 277.16 277.16 0 0 0-24 43.33h17.19c1.63-3.43 3.28-6.69 4.89-9.75A256.32 256.32 0 0 1 86 629.55zM132 617.41a7.79 7.79 0 0 0-4.94 12.14 256.5 256.5 0 0 1 14.68 24.61c1.61 3.06 3.26 6.32 4.89 9.75h17.16a277.2 277.2 0 0 0-24-43.33 7.8 7.8 0 0 0-7.79-3.17z" transform="translate(-9.92 -9.43)"/>
                </g>
                <g class="cls-39">
                    <path class="cls-40" d="M362.23 228a4.72 4.72 0 0 0-.76.07 4.64 4.64 0 0 0-3 1.92 160.67 160.67 0 0 0-9 15h7.28v-10a7.09 7.09 0 0 1 5.48-6.99zM397 228.1a4.72 4.72 0 0 0-.76-.07 7.09 7.09 0 0 1 5.53 6.91v10h7.28a160.73 160.73 0 0 0-9-15 4.64 4.64 0 0 0-3.05-1.84z" transform="translate(-9.92 -9.43)"/>
                    <path class="cls-40" d="M396.27 228a7.1 7.1 0 0 0-1.5-.17v4.89a8.72 8.72 0 0 1-8.72 8.72h-13.6a8.72 8.72 0 0 1-8.72-8.72v-4.89a7.1 7.1 0 0 0-7 7.09v10h45.1v-10a7.09 7.09 0 0 0-5.56-6.92z" transform="translate(-9.92 -9.43)"/>
                    <path class="cls-10" d="M363.73 232.75a8.72 8.72 0 0 0 8.72 8.72H386a8.72 8.72 0 0 0 8.72-8.72v-4.89h-8.22v1.23h-14.71v-1.23h-8.06v4.89z" transform="translate(-9.92 -9.43)"/>
                    <path class="cls-10" d="M371.79 229.08h14.75V225a25.07 25.07 0 0 1-14.75 0v4.11z" transform="translate(-9.92 -9.43)"/>
                    <path class="cls-9" d="M386.54 225v-2.39a25 25 0 0 1-14.75-.05V225a25.07 25.07 0 0 0 14.75 0z" transform="translate(-9.92 -9.43)"/>
                    <path class="cls-15" d="M366.8 162.11a29.42 29.42 0 0 1 24.88 0 1.62 1.62 0 0 1 .9 1.14 13.73 13.73 0 1 0-26.68 0 1.62 1.62 0 0 1 .9-1.14z" transform="translate(-9.92 -9.43)"/>
                    <path class="cls-35" d="M379.25 161.49a26.94 26.94 0 0 1 12.95 3.29l.24-.44a1.58 1.58 0 0 0 .15-1.09 1.62 1.62 0 0 0-.9-1.14 29.42 29.42 0 0 0-24.88 0 1.62 1.62 0 0 0-.9 1.14 1.58 1.58 0 0 0 .15 1.09l.24.44a26.94 26.94 0 0 1 12.95-3.29z" transform="translate(-9.92 -9.43)"/>
                    <path class="cls-15" d="M358.13 200.25v-9.74c-1.08.09-1.73.1-1.73.1l-1.73-7.49 3.45-9.33 21.12-6 21.12 6 3.45 9.33-1.73 7.49s-.65 0-1.73-.1v9.74a3.81 3.81 0 0 1 3.13.33 27.07 27.07 0 1 0-48.49 0 3.81 3.81 0 0 1 3.14-.33z" transform="translate(-9.92 -9.43)"/>
                    <path class="cls-10" d="M386.54 222.58a19.76 19.76 0 0 0 13.39-15.22 3.83 3.83 0 0 1 .43-7.1v-9.74c-18.82.56-20.93-11.51-21.12-15.48-.19 4-2.3 16-21.12 15.48v9.74a3.83 3.83 0 0 1 .43 7.1 19.77 19.77 0 0 0 13.23 15.17 25 25 0 0 0 14.76.05zm-16-10.6H388a6.21 6.21 0 0 1-6.21 6.21h-5a6.21 6.21 0 0 1-6.27-6.19zm7.06-7.35v-3.4a1.66 1.66 0 1 1 3.31 0v3.4a1.66 1.66 0 0 1-3.32 0zm13.66 5.49a3.11 3.11 0 1 1 3.11-3.11 3.11 3.11 0 0 1-3.12 3.1zm-26.21-12V192.68a.64.64 0 0 1 .71-.44l7.39-.17a.64.64 0 0 1 .73.41v.83h10.69v-.83a.64.64 0 0 1 .73-.41l7.39.17a.64.64 0 0 1 .71.44V198.39h-.08a.53.53 0 0 1-.46.27h-1.82a3 3 0 0 1 .16.94 2.25 2.25 0 1 1-4.44 0 2.91 2.91 0 0 1 .27-1.21h-15.62a2.91 2.91 0 0 1 .27 1.21 2.25 2.25 0 1 1-4.44 0 3 3 0 0 1 .16-.94h-1.82a.53.53 0 0 1-.46-.27H365v-.27zm2.2 5.8a3.11 3.11 0 1 1-3.11 3.11 3.11 3.11 0 0 1 3.1-3.14z" transform="translate(-9.92 -9.43)"/>
                    <path class="cls-11" d="M380.9 204.63v-3.4a1.66 1.66 0 1 0-3.31 0v3.4a1.66 1.66 0 0 0 3.31 0z" transform="translate(-9.92 -9.43)"/>
                    <path class="cls-8" d="M376.74 218.18h5A6.21 6.21 0 0 0 388 212h-17.48a6.21 6.21 0 0 0 6.22 6.18z" transform="translate(-9.92 -9.43)"/>
                    <path class="cls-7" d="M400.36 200.25a3.81 3.81 0 1 0 1.2-.19 3.83 3.83 0 0 0-1.2.19zm3.45 4.28a2.2 2.2 0 0 1-3.45 1.81v-3.61a2.2 2.2 0 0 1 3.46 1.81z" transform="translate(-9.92 -9.43)"/>
                    <path class="cls-9" d="M400.37 206.34a2.2 2.2 0 1 0 0-3.61v3.61z" transform="translate(-9.92 -9.43)"/>
                    <path class="cls-7" d="M360.76 203.89a3.84 3.84 0 1 0-2.2 3.46 3.83 3.83 0 0 0 2.2-3.46zm-3.89 2.84a2.2 2.2 0 1 1 1.25-4v3.61a2.19 2.19 0 0 1-1.25.39z" transform="translate(-9.92 -9.43)"/>
                    <path class="cls-9" d="M358.12 190.51c18.82.56 20.93-11.51 21.12-15.48v-.52c-.56 13.16-15.89 15.56-21.12 16zM400.37 190.51c-5.32-.44-21.12-2.93-21.12-16.73v1.25c.19 4 2.3 16 21.12 15.48zM358.12 202.73a2.2 2.2 0 1 0 0 3.61v-3.61z" transform="translate(-9.92 -9.43)"/>
                    <path class="cls-10" d="M365 198.09v.27h.08a.52.52 0 0 1-.08-.27z" transform="translate(-9.92 -9.43)"/>
                    <path class="cls-12" d="M365 198.09v.27h.08a.52.52 0 0 1-.08-.27z" transform="translate(-9.92 -9.43)"/>
                    <path class="cls-10" d="M365.58 197.56h2.5a2 2 0 0 1 1.38-.57 2.2 2.2 0 0 1 1.95 1.38h15.67A2.2 2.2 0 0 1 389 197a2 2 0 0 1 1.38.57h2.5a.54.54 0 0 1 .54.54v-4.81.3a.64.64 0 0 1-.73.41l-7.39-.17a.64.64 0 0 1-.71-.44v-.1H373.9v.1a.64.64 0 0 1-.71.44l-7.39.17a.64.64 0 0 1-.73-.41v-.3 4.81a.54.54 0 0 1 .51-.55z" transform="translate(-9.92 -9.43)"/>
                    <path class="cls-12" d="M365.58 197.56h2.5a2 2 0 0 1 1.38-.57 2.2 2.2 0 0 1 1.95 1.38h15.67A2.2 2.2 0 0 1 389 197a2 2 0 0 1 1.38.57h2.5a.54.54 0 0 1 .54.54v-4.81.3a.64.64 0 0 1-.73.41l-7.39-.17a.64.64 0 0 1-.71-.44v-.1H373.9v.1a.64.64 0 0 1-.71.44l-7.39.17a.64.64 0 0 1-.73-.41v-.3 4.81a.54.54 0 0 1 .51-.55z" transform="translate(-9.92 -9.43)"/>
                    <path class="cls-10" d="M393.45 198.36v-.27a.52.52 0 0 1-.08.27h.08z" transform="translate(-9.92 -9.43)"/>
                    <path class="cls-12" d="M393.45 198.36v-.27a.52.52 0 0 1-.08.27h.08z" transform="translate(-9.92 -9.43)"/>
                    <path class="cls-13" d="M389.52 198.09a.54.54 0 0 1 .54-.54h.35A2 2 0 0 0 389 197a2.2 2.2 0 0 0-1.95 1.38 2.91 2.91 0 0 0-.27 1.21 2.25 2.25 0 1 0 4.44 0 3 3 0 0 0-.16-.94h-1a.54.54 0 0 1-.54-.56zM369.46 197a2 2 0 0 0-1.38.57h.35a.54.54 0 0 1 .54.54.54.54 0 0 1-.54.54h-1a3 3 0 0 0-.16.94 2.25 2.25 0 1 0 4.44 0 2.91 2.91 0 0 0-.27-1.21 2.2 2.2 0 0 0-1.98-1.38z" transform="translate(-9.92 -9.43)"/>
                    <circle class="cls-10" cx="381.33" cy="197.58" r="3.11"/>
                    <circle class="cls-14" cx="381.33" cy="197.58" r="3.11"/>
                    <circle class="cls-10" cx="357.32" cy="197.58" r="3.11"/>
                    <circle class="cls-14" cx="357.32" cy="197.58" r="3.11"/>
                    <path class="cls-13" d="M365.58 198.63h2.86a.54.54 0 0 0 .54-.54.54.54 0 0 0-.54-.54h-2.86a.54.54 0 0 0-.54.54.52.52 0 0 0 .08.27.53.53 0 0 0 .46.27zM392.91 197.56h-2.86a.54.54 0 0 0-.54.54.54.54 0 0 0 .54.54h2.86a.53.53 0 0 0 .46-.27.52.52 0 0 0 .08-.27.54.54 0 0 0-.54-.54z" transform="translate(-9.92 -9.43)"/>
                    <path class="cls-15" d="M385.3 193.83l7.39.17a.64.64 0 0 0 .73-.41v-.93a.64.64 0 0 0-.71-.44l-7.39-.17a.64.64 0 0 0-.73.41V193.39a.64.64 0 0 0 .71.44zM365.8 194l7.39-.17a.64.64 0 0 0 .71-.44V192.46a.64.64 0 0 0-.73-.41l-7.39.17a.64.64 0 0 0-.71.44v.93a.64.64 0 0 0 .73.41z" transform="translate(-9.92 -9.43)"/>
                    <path class="cls-15" d="M369.32 158.37z"/>
                    <path class="cls-15" d="M379.23 174.51v-6.73l-21.12 6-3.45 9.33 1.73 7.49s.65 0 1.73-.1c5.23-.43 20.56-2.83 21.11-15.99zM379.25 173.78c0 13.8 15.8 16.28 21.12 16.73 1.08.09 1.73.1 1.73.1l1.73-7.49-3.45-9.33-21.12-6v6z" transform="translate(-9.92 -9.43)"/>
                </g>
                <g class="cls-41">
                    <path class="cls-42" d="M974.79 626.56a7.57 7.57 0 0 1 1.08-.1 11.36 11.36 0 0 1 2.51-.29h13.06v-8.68c-12.13-3.93-19.19-13.86-21.31-24.33a6.13 6.13 0 0 1-5.7-10.84 43.14 43.14 0 0 1-4.51-19.26v60.39a5.81 5.81 0 0 0 5.81 5.81h4.52a7.41 7.41 0 0 1 4.54-2.7zM1045.12 587.61a6.12 6.12 0 0 1-8.74 5.55c-2.12 10.47-9.18 20.4-21.31 24.33v8.68h12.83a11.36 11.36 0 0 1 2.48.28 7.54 7.54 0 0 1 1.34.11 7.41 7.41 0 0 1 4.54 2.7h4.52a5.81 5.81 0 0 0 5.81-5.81v-60.4a43.14 43.14 0 0 1-4.51 19.26 6.13 6.13 0 0 1 3.04 5.3z" transform="translate(-9.92 -9.43)"/>
                    <path class="cls-35" d="M1036.26 629.26a7.41 7.41 0 0 0-4.54-2.7 7.54 7.54 0 0 0-1.34-.11 11.35 11.35 0 0 1 8.87 11.07v25.82l1.21 2.34h16.68a272.53 272.53 0 0 0-20.6-36.06c-.08-.12-.18-.24-.28-.36zM967 637.52a11.35 11.35 0 0 1 8.84-11.07 7.57 7.57 0 0 0-1.08.1 7.41 7.41 0 0 0-4.54 2.7c-.1.12-.2.24-.29.37a272.5 272.5 0 0 0-20.6 36.06h16.68l1-1.9v-26.26z" transform="translate(-9.92 -9.43)"/>
                    <path class="cls-35" d="M1039.25 637.52a11.38 11.38 0 0 0-11.35-11.35h-11.47v6.17a13.28 13.28 0 0 1-13.28 13.28 13.28 13.28 0 0 1-13.28-13.28v-6.17h-11.49A11.39 11.39 0 0 0 967 637.52v28.16h72.21v-28.16z" transform="translate(-9.92 -9.43)"/>
                    <path class="cls-10" d="M1015.06 626.17v1.77h-23.61v-1.77h-1.59v6.17a13.28 13.28 0 0 0 13.28 13.28 13.28 13.28 0 0 0 13.28-13.28v-6.17h-1.36z" transform="translate(-9.92 -9.43)"/>
                    <path class="cls-42" d="M967.53 581.47a6.12 6.12 0 0 1 1.92.31v-13.13h-1.66v-20.23c0-5.62 6.35-11.81 12.13-11.81h46.69c5.78 0 12.1 6.28 12.1 11.9v26.87a13.52 13.52 0 0 1-1.64-2.56v9a6.09 6.09 0 0 1 5 .53 43.34 43.34 0 1 0-77.64 0 6.1 6.1 0 0 1 3.1-.88z" transform="translate(-9.92 -9.43)"/>
                    <path class="cls-7" d="M991.45 627.94h23.61v-6.58a40.15 40.15 0 0 1-23.61 0v6.58z" transform="translate(-9.92 -9.43)"/>
                    <path class="cls-9" d="M1015.06 621.36v-3.88a40.06 40.06 0 0 1-23.61 0v3.88a40.15 40.15 0 0 0 23.61 0z" transform="translate(-9.92 -9.43)"/>
                    <path class="cls-10" d="M990.82 582.41h4.85a3.37 3.37 0 0 1 3 1.83 5 5 0 0 1 2-1.38 2.65 2.65 0 0 1 5.21 0 5 5 0 0 1 2 1.38 3.37 3.37 0 0 1 3-1.83h4.87a4.71 4.71 0 0 1-.32-1.71 4.66 4.66 0 0 1 .43-1.94h-25.15a4.66 4.66 0 0 1 .43 1.94 4.71 4.71 0 0 1-.32 1.71zM1027.46 592.59a5 5 0 0 1 0 .6 1.72 1.72 0 0 0 1.49-1.69v-5.71a1.7 1.7 0 0 0 0-.31l-5.13 2.29a5 5 0 0 1 3.64 4.82zM997.35 585.48l-9.3 4.16a4.88 4.88 0 0 1 .93 3.57h6.69a1.72 1.72 0 0 0 1.72-1.72v-5.71a1.73 1.73 0 0 0-.04-.3zM1018 590.32l-6.47 2.89h6a4.85 4.85 0 0 1 .47-2.89z" transform="translate(-9.92 -9.43)"/>
                    <path class="cls-10" d="M1015.06 617.48c12.13-3.93 19.19-13.86 21.31-24.33a6.13 6.13 0 0 1 .69-11.37v-9c-6.53-7.93-.72-19.68-10.22-22.58-6.1-1.86-14.53 1.57-24.26 10.65-4.64 4.33-11.33 6.67-17.49 7.94l8.4-.19a1 1 0 0 1 1.17.65v1.33h17.11v-1.33a1 1 0 0 1 1.17-.65l11.83.27a1 1 0 0 1 1.14.7v9.13h-.13a.85.85 0 0 1-.73.43h-2.91a4.68 4.68 0 0 1-.07 3.22h5a3.38 3.38 0 0 1 3.38 3.38v5.71a3.38 3.38 0 0 1-3.38 3.38h-.28a5 5 0 0 1-8.85 0h-7.22a3.38 3.38 0 0 1-3.38-3.38v-3.93a3.55 3.55 0 0 0-1.54-2.81v4a2.65 2.65 0 1 1-5.3 0v-4a3.58 3.58 0 0 0-1.56 2.81v3.94a3.38 3.38 0 0 1-3.38 3.38h-7.2a5 5 0 0 1-8.85 0h-.21a3.38 3.38 0 0 1-3.38-3.38v-5.71a3.38 3.38 0 0 1 3.38-3.38h5.06a4.68 4.68 0 0 1-.07-3.22h-2.91a.85.85 0 0 1-.73-.43h-.13v-9.13a73 73 0 0 1-11.08.69v11.47a6.13 6.13 0 0 1 .69 11.37c2.12 10.47 9.18 20.4 21.31 24.33a40.06 40.06 0 0 0 23.62.04zm-2.35-16.94h4.51a9.94 9.94 0 0 1-9.94 9.94h-8a9.94 9.94 0 0 1-9.94-9.94h23.42z" transform="translate(-9.92 -9.43)"/>
                    <path class="cls-11" d="M1003.25 580.7a2.66 2.66 0 0 0-2.6 2.16 7.67 7.67 0 0 1 5.21 0 2.66 2.66 0 0 0-2.61-2.16zM1000.6 584.74v4a2.65 2.65 0 1 0 5.3 0v-4a5.52 5.52 0 0 0-5.3 0z" transform="translate(-9.92 -9.43)"/>
                    <path class="cls-8" d="M999.24 610.49h8a9.94 9.94 0 0 0 9.94-9.94h-27.89a9.94 9.94 0 0 0 9.95 9.94z" transform="translate(-9.92 -9.43)"/>
                    <path class="cls-7" d="M1032.85 587.61a6.14 6.14 0 1 0 4.22-5.82 6.13 6.13 0 0 0-4.22 5.82zm6.23-2.49a3.52 3.52 0 1 1-2 6.41v-5.78a3.5 3.5 0 0 1 2-.63z" transform="translate(-9.92 -9.43)"/>
                    <path class="cls-9" d="M1037.07 591.53a3.52 3.52 0 1 0 0-5.78v5.78z" transform="translate(-9.92 -9.43)"/>
                    <path class="cls-7" d="M973.66 587.61a6.15 6.15 0 1 0-3.53 5.55 6.13 6.13 0 0 0 3.53-5.55zm-6.23 4.55a3.52 3.52 0 1 1 2-6.41v5.78a3.5 3.5 0 0 1-2 .63z" transform="translate(-9.92 -9.43)"/>
                    <path class="cls-9" d="M969.44 585.75a3.52 3.52 0 1 0 0 5.78v-5.78z" transform="translate(-9.92 -9.43)"/>
                    <path class="cls-10" d="M993.56 571.49l-11.83.27a1 1 0 0 1-1.17-.65v-.48 7.7a.86.86 0 0 1 .86-.86h4a3.22 3.22 0 0 1 2.2-.92 3.51 3.51 0 0 1 3.12 2.21h25.09a3.52 3.52 0 0 1 3.12-2.21 3.22 3.22 0 0 1 2.21.92h4a.86.86 0 0 1 .86.86v-7.7.48a1 1 0 0 1-1.17.65l-11.83-.27a1 1 0 0 1-1.14-.7v-.16H994.7v.16a1 1 0 0 1-1.14.7z" transform="translate(-9.92 -9.43)"/>
                    <path class="cls-12" d="M993.56 571.49l-11.83.27a1 1 0 0 1-1.17-.65v-.48 7.7a.86.86 0 0 1 .86-.86h4a3.22 3.22 0 0 1 2.2-.92 3.51 3.51 0 0 1 3.12 2.21h25.09a3.52 3.52 0 0 1 3.12-2.21 3.22 3.22 0 0 1 2.21.92h4a.86.86 0 0 1 .86.86v-7.7.48a1 1 0 0 1-1.17.65l-11.83-.27a1 1 0 0 1-1.14-.7v-.16H994.7v.16a1 1 0 0 1-1.14.7z" transform="translate(-9.92 -9.43)"/>
                    <path class="cls-10" d="M980.51 578.75h.13a.84.84 0 0 1-.13-.43v.43z" transform="translate(-9.92 -9.43)"/>
                    <path class="cls-12" d="M980.51 578.75h.13a.84.84 0 0 1-.13-.43v.43z" transform="translate(-9.92 -9.43)"/>
                    <path class="cls-10" d="M1026 578.75v-.43a.84.84 0 0 1-.13.43h.13z" transform="translate(-9.92 -9.43)"/>
                    <path class="cls-12" d="M1026 578.75v-.43a.84.84 0 0 1-.13.43h.13z" transform="translate(-9.92 -9.43)"/>
                    <path class="cls-13" d="M1019.7 578.33a.86.86 0 0 1 .86-.86h.57a3.22 3.22 0 0 0-2.21-.92 3.52 3.52 0 0 0-3.12 2.21 4.66 4.66 0 0 0-.43 1.94 4.71 4.71 0 0 0 .32 1.71h6.46a4.68 4.68 0 0 0 .07-3.22h-1.66a.86.86 0 0 1-.86-.86zM991.14 580.7a4.66 4.66 0 0 0-.43-1.94 3.51 3.51 0 0 0-3.12-2.21 3.22 3.22 0 0 0-2.2.92h.57a.86.86 0 1 1 0 1.72h-1.66a4.68 4.68 0 0 0 .07 3.22h6.45a4.71 4.71 0 0 0 .32-1.71z" transform="translate(-9.92 -9.43)"/>
                    <path class="cls-10" d="M1023.74 587.77l-5.7 2.55a4.85 4.85 0 0 0-.51 2.89h9.88a4.94 4.94 0 0 0-3.67-5.44z" transform="translate(-9.92 -9.43)"/>
                    <path class="cls-14" d="M1023.74 587.77l-5.7 2.55a4.85 4.85 0 0 0-.51 2.89h9.88a4.94 4.94 0 0 0-3.67-5.44z" transform="translate(-9.92 -9.43)"/>
                    <path class="cls-10" d="M1022.47 597.57a5 5 0 0 0 4.42-2.7H1018a5 5 0 0 0 4.47 2.7z" transform="translate(-9.92 -9.43)"/>
                    <path class="cls-14" d="M1022.47 597.57a5 5 0 0 0 4.42-2.7H1018a5 5 0 0 0 4.47 2.7z" transform="translate(-9.92 -9.43)"/>
                    <path class="cls-10" d="M984 597.57a5 5 0 0 0 4.42-2.7h-8.85a5 5 0 0 0 4.43 2.7z" transform="translate(-9.92 -9.43)"/>
                    <path class="cls-14" d="M984 597.57a5 5 0 0 0 4.42-2.7h-8.85a5 5 0 0 0 4.43 2.7z" transform="translate(-9.92 -9.43)"/>
                    <path class="cls-10" d="M988 589.64l-8 3.57h9a4.88 4.88 0 0 0-1-3.57z" transform="translate(-9.92 -9.43)"/>
                    <path class="cls-14" d="M988 589.64l-8 3.57h9a4.88 4.88 0 0 0-1-3.57z" transform="translate(-9.92 -9.43)"/>
                    <path class="cls-13" d="M986.81 578.33a.86.86 0 0 0-.86-.86h-4.57a.86.86 0 0 0-.86.86.84.84 0 0 0 .13.43.85.85 0 0 0 .73.43h4.57a.86.86 0 0 0 .86-.86zM1025.13 577.46h-4.57a.86.86 0 1 0 0 1.72h4.57a.85.85 0 0 0 .73-.43.84.84 0 0 0 .13-.43.86.86 0 0 0-.86-.86z" transform="translate(-9.92 -9.43)"/>
                    <path class="cls-9" d="M980.52 569.62a1 1 0 0 1 1.14-.7l3.43-.08c6.16-1.27 12.85-3.62 17.49-7.94 9.73-9.08 18.16-12.51 24.26-10.65 9.5 2.9 3.69 14.65 10.22 22.58-4.2-8.39-1.65-21.62-10.22-24.24-6.1-1.86-14.53 1.57-24.26 10.65-10.9 10.17-33.14 9.41-33.14 9.41v1.66a73 73 0 0 0 11.08-.69z" transform="translate(-9.92 -9.43)"/>
                    <path class="cls-42" d="M1002.59 559.24c9.73-9.08 18.16-12.51 24.26-10.65 8.57 2.61 6 15.84 10.22 24.24a13.52 13.52 0 0 0 1.64 2.56v-26.88c0-5.62-6.32-11.9-12.1-11.9h-46.7c-5.78 0-12.13 6.19-12.13 11.81v20.23h1.66s22.25.76 33.15-9.41z" transform="translate(-9.92 -9.43)"/>
                    <path class="cls-15" d="M1013 571.49l11.83.27a1 1 0 0 0 1.17-.65v-1.48a1 1 0 0 0-1.14-.7l-11.83-.27a1 1 0 0 0-1.17.65v1.49a1 1 0 0 0 1.14.69zM980.52 569.62v1.48a1 1 0 0 0 1.17.65l11.83-.27a1 1 0 0 0 1.14-.7v-1.49a1 1 0 0 0-1.17-.65l-8.4.19-3.43.08a1 1 0 0 0-1.14.71z" transform="translate(-9.92 -9.43)"/>
                    <path class="cls-10" d="M984 587.61a5 5 0 0 1 4 2l9.3-4.16a1.72 1.72 0 0 0-1.69-1.41h-6a3.11 3.11 0 0 1-4.11 0h-6.2a1.72 1.72 0 0 0-1.72 1.72v5.71a1.71 1.71 0 0 0 1.51 1.7 5 5 0 0 1 4.91-5.56z" transform="translate(-9.92 -9.43)"/>
                    <path class="cls-24" d="M984 587.61a5 5 0 0 1 4 2l9.3-4.16a1.72 1.72 0 0 0-1.69-1.41h-6a3.11 3.11 0 0 1-4.11 0h-6.2a1.72 1.72 0 0 0-1.72 1.72v5.71a1.71 1.71 0 0 0 1.51 1.7 5 5 0 0 1 4.91-5.56z" transform="translate(-9.92 -9.43)"/>
                    <path class="cls-13" d="M989.65 584.07h-4.11a3.11 3.11 0 0 0 4.11 0z" transform="translate(-9.92 -9.43)"/>
                    <path class="cls-24" d="M989.65 584.07h-4.11a3.11 3.11 0 0 0 4.11 0z" transform="translate(-9.92 -9.43)"/>
                    <path class="cls-10" d="M984 587.61a5 5 0 0 0-4.94 5.58h.96l8-3.57a5 5 0 0 0-4.02-2.01z" transform="translate(-9.92 -9.43)"/>
                    <path class="cls-14" d="M984 587.61a5 5 0 0 0-4.94 5.58h.96l8-3.57a5 5 0 0 0-4.02-2.01z" transform="translate(-9.92 -9.43)"/>
                    <path class="cls-24" d="M984 587.61a5 5 0 0 0-4.94 5.58h.96l8-3.57a5 5 0 0 0-4.02-2.01z" transform="translate(-9.92 -9.43)"/>
                    <path class="cls-10" d="M1010.82 593.21h.75l6.47-2.89a5 5 0 0 1 5.7-2.55l5.13-2.29a1.72 1.72 0 0 0-1.69-1.41H1021a3.11 3.11 0 0 1-4.11 0h-6a1.72 1.72 0 0 0-1.72 1.72v5.71a1.72 1.72 0 0 0 1.65 1.71z" transform="translate(-9.92 -9.43)"/>
                    <path class="cls-24" d="M1010.82 593.21h.75l6.47-2.89a5 5 0 0 1 5.7-2.55l5.13-2.29a1.72 1.72 0 0 0-1.69-1.41H1021a3.11 3.11 0 0 1-4.11 0h-6a1.72 1.72 0 0 0-1.72 1.72v5.71a1.72 1.72 0 0 0 1.65 1.71z" transform="translate(-9.92 -9.43)"/>
                    <path class="cls-13" d="M1021 584.07h-4.11a3.11 3.11 0 0 0 4.11 0z" transform="translate(-9.92 -9.43)"/>
                    <path class="cls-24" d="M1021 584.07h-4.11a3.11 3.11 0 0 0 4.11 0z" transform="translate(-9.92 -9.43)"/>
                    <path class="cls-10" d="M1022.47 587.61a5 5 0 0 0-4.43 2.71l5.7-2.55a5 5 0 0 0-1.27-.16z" transform="translate(-9.92 -9.43)"/>
                    <path class="cls-14" d="M1022.47 587.61a5 5 0 0 0-4.43 2.71l5.7-2.55a5 5 0 0 0-1.27-.16z" transform="translate(-9.92 -9.43)"/>
                    <path class="cls-24" d="M1022.47 587.61a5 5 0 0 0-4.43 2.71l5.7-2.55a5 5 0 0 0-1.27-.16z" transform="translate(-9.92 -9.43)"/>
                    <path class="cls-43" d="M998.21 588.38a.83.83 0 0 1-.82-.84v3.95a1.72 1.72 0 0 1-1.72 1.72H979.09a1.71 1.71 0 0 1-1.51-1.7v-5.71a1.72 1.72 0 0 1 1.72-1.72h16.36a1.74 1.74 0 0 1 1.72 1.72v1.76a5.28 5.28 0 0 1 1.27-3.3 3.37 3.37 0 0 0-3-1.83H979.3a3.38 3.38 0 0 0-3.38 3.38v5.71a3.38 3.38 0 0 0 3.38 3.38h16.36a3.38 3.38 0 0 0 3.38-3.38v-3.94a.83.83 0 0 1-.83.8z" transform="translate(-9.92 -9.43)"/>
                    <path class="cls-43" d="M1002.41 583.24a.83.83 0 0 1 .83-.83 7.08 7.08 0 0 0-2.59.45 5 5 0 0 0-2 1.38 5.28 5.28 0 0 0-1.27 3.3.83.83 0 0 0 .82.84.83.83 0 0 0 .83-.82 3.58 3.58 0 0 1 1.56-2.81 4.73 4.73 0 0 1 2.64-.68.83.83 0 0 1-.82-.83zM1010.82 582.41a3.37 3.37 0 0 0-3 1.83 5.28 5.28 0 0 1 1.27 3.3v-1.76a1.72 1.72 0 0 1 1.72-1.72h16.36a1.74 1.74 0 0 1 1.72 1.72v5.71a1.72 1.72 0 0 1-1.49 1.69h-16.59a1.72 1.72 0 0 1-1.72-1.72v-3.95a.83.83 0 0 1-.82.84.83.83 0 0 1-.83-.82v3.93a3.38 3.38 0 0 0 3.38 3.38h16.36a3.38 3.38 0 0 0 3.38-3.38v-5.71a3.38 3.38 0 0 0-3.38-3.38h-16.36z" transform="translate(-9.92 -9.43)"/>
                    <path class="cls-43" d="M1008.28 588.38a.83.83 0 0 0 .82-.84 5.28 5.28 0 0 0-1.27-3.3 5 5 0 0 0-2-1.38 7.06 7.06 0 0 0-2.62-.46.83.83 0 1 0 0 1.66 4.75 4.75 0 0 1 2.66.68 3.55 3.55 0 0 1 1.54 2.81.83.83 0 0 0 .87.83z" transform="translate(-9.92 -9.43)"/>
                </g>
                <g class="cls-44">
                    <path class="cls-8" d="M997.5 394.87a7.06 7.06 0 0 1 2.27-5.19v-.32a4.71 4.71 0 0 0-.49.58 170.85 170.85 0 0 0-13.38 23.62h10.37q.63-1.25 1.25-2.44v-16.25z" transform="translate(-9.92 -9.43)"/>
                    <path class="cls-10" d="M1020 388.08a25.79 25.79 0 0 1-3.52-.24l3 3.08.53.17.53-.17 3-3.08a25.78 25.78 0 0 1-3.54.24z" transform="translate(-9.92 -9.43)"/>
                    <path class="cls-9" d="M1023.57 387.84l2.93-3a25.25 25.25 0 0 1-12.9 0l2.93 3a26 26 0 0 0 7.04 0z" transform="translate(-9.92 -9.43)"/>
                    <path class="cls-8" d="M1022 402.11a.48.48 0 0 1-.12-.23L1020.5 391l.08-.08-.53.17-.53-.17.08.08-1.42 10.89a.48.48 0 0 1-.12.23l1.19 2.63v8.81h1.6v-8.81zM1042.6 411.12c-.59-1.13-1.18-2.22-1.75-3.26a17.45 17.45 0 0 0 1.75 5.41v-2.15zM997.5 394.87v18.4c1.17-2 3.31-8 2.27-23.59a7.06 7.06 0 0 0-2.27 5.19z" transform="translate(-9.92 -9.43)"/>
                    <path class="cls-8" d="M1040.35 389.35c-.62 8.94-.2 14.77.5 18.5.57 1 1.16 2.13 1.75 3.26q.62 1.19 1.25 2.44h10.37a170.85 170.85 0 0 0-13.38-23.62 4.7 4.7 0 0 0-.49-.58z" transform="translate(-9.92 -9.43)"/>
                    <path class="cls-45" d="M1018.06 402.11a.94.94 0 0 1-1.38 0l-7.2-14.29.45-.58h-6.1a7 7 0 0 0-4.15 1.36c0 .27 0 .53.05.79v.32c1 15.56-1.1 21.55-2.27 23.59l-.18.29h21.93v-8.81zM1040.85 407.86c-.7-3.74-1.12-9.56-.5-18.5 0-.27 0-.52.05-.79a7 7 0 0 0-4.15-1.36h-6.1l.45.58-7.2 14.29a.94.94 0 0 1-1.38 0l-1.19 2.63v8.81h21.93l-.18-.29a17.45 17.45 0 0 1-1.73-5.37z" transform="translate(-9.92 -9.43)"/>
                    <path class="cls-8" d="M1017.83 400.85a.6.6 0 0 1-.19.34l.42.92a.48.48 0 0 0 .12-.23l1.42-10.88z" transform="translate(-9.92 -9.43)"/>
                    <path class="cls-46" d="M1017.83 400.85a.6.6 0 0 1-.19.34l.42.92a.48.48 0 0 0 .12-.23l1.42-10.88z" transform="translate(-9.92 -9.43)"/>
                    <path class="cls-45" d="M1016.68 401l-7.2-13.26 7.2 14.29a.94.94 0 0 0 1.38 0l-.42-.92a.62.62 0 0 1-.96-.11z" transform="translate(-9.92 -9.43)"/>
                    <path class="cls-46" d="M1016.68 401l-7.2-13.26 7.2 14.29a.94.94 0 0 0 1.38 0l-.42-.92a.62.62 0 0 1-.96-.11z" transform="translate(-9.92 -9.43)"/>
                    <path class="cls-8" d="M1022.27 400.85l-1.77-9.85 1.42 10.89a.48.48 0 0 0 .12.23l.41-.92a.61.61 0 0 1-.18-.35z" transform="translate(-9.92 -9.43)"/>
                    <path class="cls-46" d="M1022.27 400.85l-1.77-9.85 1.42 10.89a.48.48 0 0 0 .12.23l.41-.92a.61.61 0 0 1-.18-.35z" transform="translate(-9.92 -9.43)"/>
                    <path class="cls-45" d="M1022.45 401.19l-.41.92a.94.94 0 0 0 1.38 0l7.2-14.29-7.2 13.26a.62.62 0 0 1-.97.11z" transform="translate(-9.92 -9.43)"/>
                    <path class="cls-46" d="M1022.45 401.19l-.41.92a.94.94 0 0 0 1.38 0l7.2-14.29-7.2 13.26a.62.62 0 0 1-.97.11z" transform="translate(-9.92 -9.43)"/>
                    <path class="cls-8" d="M1016.68 401a.62.62 0 0 0 1 .16.6.6 0 0 0 .19-.34l1.76-9.85-.08-.08-3-3.08-2.93-3q-.74-.2-1.44-.45l-2.22 2.83-.45.58zM1026.5 384.82l-2.93 3-3 3.08-.08.08 1.76 9.85a.61.61 0 0 0 .18.34.62.62 0 0 0 1-.16l7.2-13.26-.45-.58-2.22-2.83q-.72.28-1.46.48z" transform="translate(-9.92 -9.43)"/>
                    <path class="cls-6" d="M1042.36 369.72a3.81 3.81 0 0 1-1.63-.37 20.9 20.9 0 0 1-3.74 8.41 16 16 0 0 0 15.6 12.65v-9.64a15.92 15.92 0 0 0-6.84-13.09 3.83 3.83 0 0 1-3.39 2.04zM997.73 369.72a3.83 3.83 0 0 1-3.38-2 15.92 15.92 0 0 0-6.84 13.09v9.64a16 16 0 0 0 15.6-12.65 20.9 20.9 0 0 1-3.74-8.41 3.81 3.81 0 0 1-1.64.33zM998.93 362.25v-9.74c-1.08.09-1.73.1-1.73.1l-1.73-7.49 3.45-9.33 21.12-6 21.12 6 3.45 9.33-1.73 7.49s-.65 0-1.73-.1v9.74a3.81 3.81 0 0 1 3.13.33 27.07 27.07 0 1 0-48.49 0 3.81 3.81 0 0 1 3.14-.33z" transform="translate(-9.92 -9.43)"/>
                    <path class="cls-10" d="M1013.6 384.82a25.25 25.25 0 0 0 12.9 0q.74-.2 1.44-.45a19.22 19.22 0 0 0 9.05-6.61 20.9 20.9 0 0 0 3.74-8.41 3.83 3.83 0 0 1 .43-7.1v-9.74c-18.82.56-20.93-11.51-21.12-15.48-.19 4-2.3 16-21.12 15.48v9.74a3.83 3.83 0 0 1 .43 7.1 20.9 20.9 0 0 0 3.74 8.41 19.21 19.21 0 0 0 9.05 6.61q.72.25 1.46.45zm-2.27-10.82h17.44a6.21 6.21 0 0 1-6.21 6.21h-5a6.21 6.21 0 0 1-6.23-6.21zm7.06-7.35v-3.4a1.66 1.66 0 1 1 3.31 0v3.4a1.66 1.66 0 1 1-3.31-.03zm13.66 5.49a3.11 3.11 0 1 1 3.11-3.11 3.11 3.11 0 0 1-3.11 3.08zm-26.21-12V354.7a.64.64 0 0 1 .71-.44l7.45-.26a.64.64 0 0 1 .73.41v.83h10.69v-.83a.64.64 0 0 1 .73-.41l7.39.17a.64.64 0 0 1 .71.44V360.32h-.08a.53.53 0 0 1-.46.27h-1.82a3 3 0 0 1 .16.94 2.25 2.25 0 1 1-4.44 0 2.91 2.91 0 0 1 .27-1.21h-15.67a2.91 2.91 0 0 1 .27 1.21 2.25 2.25 0 1 1-4.44 0 3 3 0 0 1 .16-.94h-1.82a.53.53 0 0 1-.46-.27h-.08v-.27zm2.2 5.8a3.11 3.11 0 1 1-3.11 3.11 3.11 3.11 0 0 1 3.07-3.16z" transform="translate(-9.92 -9.43)"/>
                    <path class="cls-11" d="M1021.7 366.62v-3.4a1.66 1.66 0 1 0-3.31 0v3.4a1.66 1.66 0 1 0 3.31 0z" transform="translate(-9.92 -9.43)"/>
                    <path class="cls-8" d="M1017.54 380.18h5a6.21 6.21 0 0 0 6.21-6.21h-17.44a6.21 6.21 0 0 0 6.23 6.21z" transform="translate(-9.92 -9.43)"/>
                    <path class="cls-7" d="M1041.17 362.25a3.81 3.81 0 1 0 1.2-.19 3.83 3.83 0 0 0-1.2.19zm3.45 4.28a2.2 2.2 0 0 1-3.45 1.81v-3.61a2.2 2.2 0 0 1 3.45 1.8z" transform="translate(-9.92 -9.43)"/>
                    <path class="cls-9" d="M1041.17 368.34a2.2 2.2 0 1 0 0-3.61v3.61z" transform="translate(-9.92 -9.43)"/>
                    <path class="cls-7" d="M997.73 369.72a3.83 3.83 0 1 0-3.38-2 3.81 3.81 0 0 0 3.38 2zm-2.26-3.19a2.2 2.2 0 0 1 3.45-1.81v3.61a2.2 2.2 0 0 1-3.44-1.8z" transform="translate(-9.92 -9.43)"/>
                    <path class="cls-9" d="M998.93 352.51c18.82.56 20.93-11.51 21.12-15.48v-.52c-.57 13.16-15.9 15.56-21.12 16z" transform="translate(-9.92 -9.43)"/>
                    <path class="cls-9" d="M1020 335.78v1.25c.19 4 2.3 16 21.12 15.48-5.27-.45-21.12-2.93-21.12-16.73zM997.67 368.73a2.19 2.19 0 0 0 1.25-.39v-3.61a2.2 2.2 0 1 0-1.25 4z" transform="translate(-9.92 -9.43)"/>
                    <path class="cls-10" d="M1005.84 360.09v.27h.08a.52.52 0 0 1-.08-.27z" transform="translate(-9.92 -9.43)"/>
                    <path class="cls-12" d="M1005.84 360.09v.27h.08a.52.52 0 0 1-.08-.27z" transform="translate(-9.92 -9.43)"/>
                    <path class="cls-10" d="M1006.38 359.55h2.5a2 2 0 0 1 1.38-.57 2.2 2.2 0 0 1 1.95 1.38h15.67a2.2 2.2 0 0 1 1.95-1.38 2 2 0 0 1 1.38.57h2.5a.54.54 0 0 1 .54.54v-4.81.3a.64.64 0 0 1-.73.41l-7.39-.17a.64.64 0 0 1-.71-.44v-.1h-10.72v.1a.64.64 0 0 1-.71.44l-7.39.17a.64.64 0 0 1-.73-.41v-.3 4.81a.54.54 0 0 1 .51-.54z" transform="translate(-9.92 -9.43)"/>
                    <path class="cls-12" d="M1006.38 359.55h2.5a2 2 0 0 1 1.38-.57 2.2 2.2 0 0 1 1.95 1.38h15.67a2.2 2.2 0 0 1 1.95-1.38 2 2 0 0 1 1.38.57h2.5a.54.54 0 0 1 .54.54v-4.81.3a.64.64 0 0 1-.73.41l-7.39-.17a.64.64 0 0 1-.71-.44v-.1h-10.72v.1a.64.64 0 0 1-.71.44l-7.39.17a.64.64 0 0 1-.73-.41v-.3 4.81a.54.54 0 0 1 .51-.54z" transform="translate(-9.92 -9.43)"/>
                    <path class="cls-10" d="M1034.25 360.36v-.27a.52.52 0 0 1-.08.27h.08z" transform="translate(-9.92 -9.43)"/>
                    <path class="cls-12" d="M1034.25 360.36v-.27a.52.52 0 0 1-.08.27h.08z" transform="translate(-9.92 -9.43)"/>
                    <path class="cls-13" d="M1030.32 360.09a.54.54 0 0 1 .54-.54h.35a2 2 0 0 0-1.38-.57 2.2 2.2 0 0 0-1.95 1.38 2.91 2.91 0 0 0-.27 1.21 2.25 2.25 0 1 0 4.44 0 3 3 0 0 0-.16-.94h-1a.54.54 0 0 1-.57-.54zM1010.26 359a2 2 0 0 0-1.38.57h.35a.54.54 0 0 1 0 1.08h-1a3 3 0 0 0-.16.94 2.25 2.25 0 1 0 4.44 0 2.91 2.91 0 0 0-.27-1.21 2.2 2.2 0 0 0-1.98-1.38z" transform="translate(-9.92 -9.43)"/>
                    <circle class="cls-10" cx="1022.13" cy="359.57" r="3.11"/>
                    <circle class="cls-14" cx="1022.13" cy="359.57" r="3.11"/>
                    <circle class="cls-10" cx="998.12" cy="359.57" r="3.11"/>
                    <circle class="cls-14" cx="998.12" cy="359.57" r="3.11"/>
                    <path class="cls-13" d="M1006.38 360.63h2.86a.54.54 0 0 0 0-1.08h-2.86a.54.54 0 0 0-.54.54.52.52 0 0 0 .08.27.53.53 0 0 0 .46.27zM1033.71 359.55h-2.86a.54.54 0 1 0 0 1.08h2.86a.53.53 0 0 0 .46-.27.52.52 0 0 0 .08-.27.54.54 0 0 0-.54-.54z" transform="translate(-9.92 -9.43)"/>
                    <path class="cls-15" d="M1026.1 355.82l7.39.17a.64.64 0 0 0 .73-.41v-.93a.64.64 0 0 0-.71-.44l-7.39-.17a.64.64 0 0 0-.73.41V355.38a.64.64 0 0 0 .71.44zM1006.6 356l7.39-.17a.64.64 0 0 0 .71-.44V354.46a.64.64 0 0 0-.7-.46l-7.39.17a.64.64 0 0 0-.71.44v.93a.64.64 0 0 0 .7.46z" transform="translate(-9.92 -9.43)"/>
                    <path class="cls-6" d="M1010.13 320.36z"/>
                    <path class="cls-6" d="M1020 336.51v-6.73l-21.12 6-3.45 9.33 1.73 7.49s.65 0 1.73-.1c5.26-.43 20.59-2.83 21.11-15.99zM1020 335.78c0 13.8 15.8 16.28 21.12 16.73 1.08.09 1.73.1 1.73.1l1.73-7.49-3.45-9.33-21.12-6v6z" transform="translate(-9.92 -9.43)"/>
                </g>
            </g>
        </g>
    </g>
</svg>
